<svg id="DocumentInsights24" xmlns="http://www.w3.org/2000/svg" width="24" height="24" viewBox="0 0 24 24">
  <g id="Rectangle_3557" data-name="Rectangle 3557" fill="#fff" stroke="#707070" stroke-width="1" opacity="0">
    <rect width="24" height="24" stroke="none"/>
    <rect x="0.5" y="0.5" width="23" height="23" fill="none"/>
  </g>
  <path id="Union_254" data-name="Union 254" d="M16420.086,23115.5a1,1,0,0,1-1-1v-1.281a3.709,3.709,0,1,1,4.131.006v1.275a1,1,0,0,1-1,1Zm-1.449-5.359a2.521,2.521,0,0,0,1.113,2.088l.533.354v1.717h1.729v-1.711l.529-.359a2.513,2.513,0,1,0-3.9-2.088Zm-9.039,3.99a4.606,4.606,0,0,1-4.6-4.6v-8.934a4.6,4.6,0,0,1,4.6-4.6h7.682a4.6,4.6,0,0,1,4.6,4.6v.475a.6.6,0,0,1-1.2,0v-.475a3.405,3.405,0,0,0-3.4-3.4h-7.682a3.4,3.4,0,0,0-3.4,3.4v8.934a3.405,3.405,0,0,0,3.4,3.4h5.279a.6.6,0,0,1,0,1.2Zm16.268-3.566a.6.6,0,1,1,0-1.2h.748a.6.6,0,0,1,0,1.2Zm-10.135,0a.6.6,0,0,1,0-1.2h.748a.6.6,0,1,1,0,1.2Zm-3.848-1.363h0Zm12.2-2.158a.592.592,0,0,1,0-.848l.527-.527a.6.6,0,0,1,.848.846l-.529.529a.587.587,0,0,1-.846,0Zm-6.66,0-.527-.529a.6.6,0,0,1,.846-.846l.529.527a.6.6,0,0,1,0,.848.581.581,0,0,1-.424.18A.6.6,0,0,1,16417.418,23107.047Zm-5.535-.98h0Zm-1.879,0a.6.6,0,1,1,0-1.2h1.561a.6.6,0,0,1,0,1.2Zm10.57-.789v-.754a.6.6,0,0,1,1.2,0v.754a.6.6,0,0,1-1.2,0Zm-10.57-1.752a.6.6,0,1,1,0-1.2h2.559a.6.6,0,0,1,.6.6h0a.6.6,0,0,1-.6.6Zm3.475-2.559H16410a.6.6,0,0,1,0-1.2h7.037a.6.6,0,1,1,0,1.2Z" transform="translate(-16404 -23094)" fill="#003c51"/>
</svg>
