<svg xmlns="http://www.w3.org/2000/svg" viewBox="0 0 32 32"><g transform="translate(-114.854 -653.467)"><rect width="32" height="32" rx="4" transform="translate(114.854 653.467)" fill="#f5e8eb"/><g transform="translate(-274 334.467)"><rect width="23.854" height="23.854" rx="4" transform="translate(393 323.055)" fill="#fff" opacity="0"/><rect width="20" height="20" rx="4" transform="translate(394.854 324.908)" fill="#f5e8eb"/><g transform="translate(392.147 323.347)"><path d="M7.514,6.123s.628,6.9,4.5,6.9,4.014-6.9,4.014-6.9" transform="translate(-4.022 -1.176)" fill="none" stroke="#f33134" stroke-linecap="round" stroke-linejoin="round" stroke-width="1.2"/><path d="M10.814,11.478S10.885,18.7,15.3,18.7s3.671-7.225,6.615-7.225" transform="translate(-3.068 0.371)" fill="none" stroke="#f33134" stroke-linecap="round" stroke-linejoin="round" stroke-width="1.2"/><g transform="translate(16.622 9.627)" fill="#f6ccd5" stroke="#f33134" stroke-width="1.2"><ellipse cx="2.223" cy="2.223" rx="2.223" ry="2.223" stroke="none"/><ellipse cx="2.223" cy="2.223" rx="1.623" ry="1.623" fill="none"/></g><line y2="1.181" transform="translate(5 4.193)" fill="none" stroke="#f33134" stroke-linecap="round" stroke-width="1.2"/><line y2="1.181" transform="translate(10.491 4.193)" fill="none" stroke="#f33134" stroke-linecap="round" stroke-width="1.2"/></g></g></g></svg>