<svg xmlns="http://www.w3.org/2000/svg" width="24" height="24" viewBox="0 0 24 24"><rect width="24" height="24" fill="#fff" opacity="0"/><path d="M0,11.5A1.5,1.5,0,1,1,1.5,13,1.5,1.5,0,0,1,0,11.5Zm9.635.7a.7.7,0,0,1,0-1.4h4.932a.7.7,0,1,1,0,1.4ZM4.7,12.2a.7.7,0,0,1,0-1.4H6.635a.7.7,0,1,1,0,1.4ZM0,6.5A1.5,1.5,0,1,1,1.5,8,1.5,1.5,0,0,1,0,6.5Zm9.635.7a.7.7,0,0,1,0-1.4h4.932a.7.7,0,1,1,0,1.4ZM4.7,7.2a.7.7,0,0,1,0-1.4H6.635a.7.7,0,1,1,0,1.4ZM0,1.5A1.5,1.5,0,1,1,1.5,3,1.5,1.5,0,0,1,0,1.5Zm9.635.7a.7.7,0,1,1,0-1.4h4.932a.7.7,0,1,1,0,1.4ZM4.7,2.2A.7.7,0,0,1,4.7.8H6.635a.7.7,0,1,1,0,1.4Z" transform="translate(4.365 5.502)" fill="#003c51"/></svg>