<svg id="IconImport24" xmlns="http://www.w3.org/2000/svg" width="24" height="24" viewBox="0 0 24 24">
  <g id="IconImport24-2" data-name="IconImport24" transform="translate(-0.001 0)">
    <rect id="Rectangle" width="24" height="24" transform="translate(0.001 0)" fill="rgba(216,216,216,0)"/>
    <path id="Union_141" data-name="Union 141" d="M21462.6,16681.154a2.609,2.609,0,0,1-2.6-2.6v-3a.6.6,0,1,1,1.2,0v3a1.4,1.4,0,0,0,1.4,1.4h9a1.4,1.4,0,0,0,1.4-1.4v-3a.6.6,0,1,1,1.2,0v3a2.6,2.6,0,0,1-2.6,2.6Zm4.322-4.684-3-2.4a.6.6,0,0,1,.75-.937l2.025,1.619v-5.15a.6.6,0,0,1,1.2,0v5.152l2.025-1.621a.6.6,0,0,1,.75.938l-3,2.4a.6.6,0,0,1-.75,0Z" transform="translate(-21455.1 -16663.076)" fill="#003c51"/>
  </g>
</svg>
