<svg xmlns="http://www.w3.org/2000/svg" width="24" height="24" viewBox="0 0 24 24"><rect width="24" height="24" fill="#231f20" opacity="0"/><path d="M.863,12.854c-.047-.094-.09-.189-.131-.293a8.934,8.934,0,1,1,.131.293ZM1.4,9a7.468,7.468,0,0,0,.623,3.008c.035.084.072.168.109.25A7.607,7.607,0,0,0,9,16.6a7.56,7.56,0,0,0,4.109-1.2,7.7,7.7,0,0,0,2.756-3.133A7.6,7.6,0,1,0,1.4,9Zm6.615,4.635v-.268a.6.6,0,0,1,1.2,0v.268a.6.6,0,0,1-1.2,0Zm.01-2.1c0-1.371.6-2.395,2.066-3.541A1.8,1.8,0,0,0,10.8,6.473a1.5,1.5,0,0,0-.67-1.207,2.544,2.544,0,0,0-2.307-.047,1.189,1.189,0,0,0-.643,1.129.6.6,0,0,1-1.2,0A2.389,2.389,0,0,1,7.254,4.166a3.713,3.713,0,0,1,3.523.084A2.7,2.7,0,0,1,12,6.41a3.035,3.035,0,0,1-1.178,2.531c-1.338,1.045-1.6,1.746-1.6,2.594a.6.6,0,0,1-1.2,0Z" transform="translate(3 3)" fill="#003c51"/></svg>