<svg id="IconAutofill16" xmlns="http://www.w3.org/2000/svg" width="16" height="16" viewBox="0 0 16 16">
  <g id="Rectangle_2868" data-name="Rectangle 2868" fill="#fff" stroke="#707070" stroke-width="1" opacity="0">
    <rect width="16" height="16" stroke="none"/>
    <rect x="0.5" y="0.5" width="15" height="15" fill="none"/>
  </g>
  <path id="Union_214" data-name="Union 214" d="M16903.084,22152.777a.6.6,0,1,1,0-1.2h11.174a.6.6,0,1,1,0,1.2Zm-.045-6.432,4.152-4.158a1.038,1.038,0,0,1,1.469.088l1.563,1.563a1.055,1.055,0,0,1,.088,1.475l-4.152,4.158c-.385.389-3.658.41-3.658.41C16902.539,22149.842,16902.654,22146.734,16903.039,22146.346Zm.984.717a10.731,10.731,0,0,0-.211,1.58,12.237,12.237,0,0,0,1.645-.168l3.848-3.857-1.424-1.424Zm6.672,2.713a.6.6,0,1,1,0-1.2h3.563a.6.6,0,1,1,0,1.2Zm3.162-3a.6.6,0,0,1,0-1.2h.4a.6.6,0,1,1,0,1.2Zm-2.824-3.168-2.34-2.342a.6.6,0,0,1,0-.846.6.6,0,0,1,.85,0l2.336,2.336a.6.6,0,0,1-.424,1.025A.6.6,0,0,1,16911.033,22143.611Z" transform="translate(-16900.672 -22138.512)" fill="#003c51"/>
</svg>
