<svg id="IconGroup24" xmlns="http://www.w3.org/2000/svg" width="24" height="24" viewBox="0 0 24 24">
  <g id="IconGroup24-2" data-name="IconGroup24" transform="translate(-0.001 0)">
    <rect id="Rectangle" width="24" height="24" transform="translate(0.001 0)" fill="rgba(216,216,216,0)" opacity="0"/>
    <path id="Union_194" data-name="Union 194" d="M21090,14789a1,1,0,0,1-1-1v-1a1,1,0,0,1,1-1h1a1,1,0,0,1,1,1v1a1,1,0,0,1-1,1Zm.2-1.2h.6v-.6h-.6Zm-13.2,1.2a1,1,0,0,1-1-1v-1a1,1,0,0,1,1-1h1a1,1,0,0,1,1,1v1a1,1,0,0,1-1,1Zm.2-1.2h.6v-.6h-.6Zm7.766.223v-1.2h2v1.2Zm-4,0v-1.2h2v1.2Zm8.824-3.774v-2h1.2v2Zm-12.8-.153v-2h1.2v2Zm4.018-.095a1,1,0,0,1-1-1v-2a1,1,0,0,1,1-1h1v-2a1,1,0,0,1,1-1h4a1,1,0,0,1,1,1v3a1,1,0,0,1-1,1h-1v1a1,1,0,0,1-1,1Zm.2-1.2h3.6v-.8h-1.8a1,1,0,0,1-.98-.8h-.82Zm2-2h3.605v-2.6h-3.605Zm6.59-.551v-2h1.2v2Zm-12.8-.159v-2h1.2v2ZM21090,14776a1,1,0,0,1-1-1v-1a1,1,0,0,1,1-1h1a1,1,0,0,1,1,1v1a1,1,0,0,1-1,1Zm.2-1.2h.6v-.6h-.6Zm-13.2,1.2a1,1,0,0,1-1-1v-1a1,1,0,0,1,1-1h1a1,1,0,0,1,1,1v1a1,1,0,0,1-1,1Zm.2-1.2h.6v-.6h-.6Zm7.67.429v-1.2h2v1.2Zm-4,0v-1.2h2v1.2Z" transform="translate(-21072 -14769.001)" fill="#003c51"/>
  </g>
</svg>
