<svg id="IconImport16" xmlns="http://www.w3.org/2000/svg" width="16" height="16" viewBox="0 0 16 16">
  <g id="IconImport16-2" data-name="IconImport16" transform="translate(-4.001 -4)">
    <rect id="Rectangle" width="16" height="16" transform="translate(4.001 4)" fill="none" opacity="0"/>
    <path id="Path_2802" data-name="Path 2802" d="M21521.988,16816.361a1.95,1.95,0,0,1-1.988-1.908v-1.961a.6.6,0,0,1,1.2,0v1.961a.752.752,0,0,0,.789.709h6.23a.75.75,0,0,0,.783-.709v-1.961a.6.6,0,0,1,1.2,0v1.961a1.948,1.948,0,0,1-1.982,1.908Zm2.74-3.738-2.135-1.709a.6.6,0,1,1,.746-.939l1.162.93v-3.307a.6.6,0,0,1,1.2,0v3.3l1.156-.928a.606.606,0,0,1,.848.1.6.6,0,0,1-.1.842s-.24.191-.771.619-1.357,1.09-1.357,1.09a.616.616,0,0,1-.377.129A.6.6,0,0,1,21524.729,16812.623Z" transform="translate(-21513.1 -16799.682)" fill="#003c51"/>
  </g>
</svg>
