<svg xmlns="http://www.w3.org/2000/svg" width="16" height="16" viewBox="0 0 16 16"><rect width="16" height="16" fill="none"/><path d="M18491.828,23262.705a.6.6,0,0,1,0-.846l2.51-2.51h-1.734a.6.6,0,1,1,0-1.2h3.24a.579.579,0,0,1,.422.176.6.6,0,0,1,.18.426v3.24a.6.6,0,0,1-1.2,0v-1.857l-2.568,2.568a.6.6,0,0,1-.846,0Zm5.926-5.26a.607.607,0,0,1-.6-.6v-3.246a.6.6,0,0,1,1.2,0v1.734l2.475-2.475a.6.6,0,0,1,.846.846l-2.539,2.539h1.857a.6.6,0,0,1,0,1.2Z" transform="translate(-18488.752 -23249.781)" fill="#2a354b"/></svg>