<svg id="IconDocumentCompare24" xmlns="http://www.w3.org/2000/svg" width="24" height="24" viewBox="0 0 24 24">
  <g id="Group_4041" data-name="Group 4041" opacity="0">
    <rect id="Rectangle_4041" data-name="Rectangle 4041" width="24" height="24" fill="#fff"/>
    <path id="Rectangle_4041_-_Outline" data-name="Rectangle 4041 - Outline" d="M1,1V23H23V1H1M0,0H24V24H0Z" fill="#707070"/>
  </g>
  <path id="Union_270" data-name="Union 270" d="M15639.746,22757.014a4.343,4.343,0,0,1-4.335-4.334v-9.344a4.341,4.341,0,0,1,4.335-4.336h1.981a.6.6,0,0,1,0,1.2h-1.981a3.138,3.138,0,0,0-3.136,3.137v9.344a3.14,3.14,0,0,0,3.136,3.135h1.981a.6.6,0,0,1,0,1.2Zm-19.145,0a.6.6,0,0,1,0-1.2h1.982a3.14,3.14,0,0,0,3.135-3.135v-9.344a3.137,3.137,0,0,0-3.135-3.137h-1.982a.6.6,0,0,1,0-1.2h1.982a4.337,4.337,0,0,1,4.334,4.336v9.344a4.339,4.339,0,0,1-4.334,4.334Zm10.063-3.643-2.091-2.086,2.091-2.09a.489.489,0,0,1,.349-.143.524.524,0,0,1,.354.143.5.5,0,0,1,0,.709l-.776.781h2.564a.6.6,0,0,1,0,1.2h-2.564l.776.777a.5.5,0,0,1,0,.709.489.489,0,0,1-.7,0Zm8.755-1.543a.6.6,0,0,1,0-1.2h2a.6.6,0,0,1,0,1.2Zm-18.51,0a.6.6,0,0,1,0-1.2h2a.6.6,0,0,1,0,1.2Zm18.51-3.221a.6.6,0,0,1,0-1.2h2a.6.6,0,0,1,0,1.2Zm-18.51,0a.6.6,0,0,1,0-1.2h2a.6.6,0,0,1,0,1.2Zm10.046-2.217a.484.484,0,0,1,0-.7l.777-.777h-2.56a.6.6,0,0,1,0-1.2h2.564l-.782-.783a.5.5,0,1,1,.7-.707l2.084,2.084-2.084,2.084a.482.482,0,0,1-.354.148A.452.452,0,0,1,15630.956,22746.391Zm8.464-.92a.6.6,0,0,1,0-1.2h2a.6.6,0,0,1,0,1.2Zm-18.51,0a.6.6,0,0,1,0-1.2h2a.6.6,0,0,1,0,1.2Z" transform="translate(-15619.162 -22736.076)" fill="#003c51"/>
</svg>
