<svg id="IconClause24" xmlns="http://www.w3.org/2000/svg" width="24" height="24" viewBox="0 0 24 24">
  <g id="Rectangle_4038" data-name="Rectangle 4038" fill="#fff" stroke="#707070" stroke-width="1" opacity="0">
    <rect width="24" height="24" stroke="none"/>
    <rect x="0.5" y="0.5" width="23" height="23" fill="none"/>
  </g>
  <g id="Group_4697" data-name="Group 4697" transform="translate(-697 -355)">
    <path id="Union_267" data-name="Union 267" d="M4.174,10.282A3.406,3.406,0,0,0,4.68,7.7H3a3,3,0,0,1-3-3V3A3,3,0,0,1,3,0H4.7a3,3,0,0,1,3,3V4.7q0,.107-.007.213c0,.044,0,.088,0,.135C7.5,8.484,6.416,10.816,5.033,10.953c-.145.015-.272.021-.381.021C3.722,10.974,4.02,10.491,4.174,10.282Z" transform="translate(699.998 362)" fill="none" stroke="#003c51" stroke-width="1"/>
    <path id="Union_268" data-name="Union 268" d="M4.174,10.282A3.406,3.406,0,0,0,4.68,7.7H3a3,3,0,0,1-3-3V3A3,3,0,0,1,3,0H4.7a3,3,0,0,1,3,3V4.7q0,.107-.007.213c0,.044,0,.088,0,.135C7.5,8.484,6.416,10.816,5.033,10.953c-.145.015-.272.021-.381.021C3.722,10.974,4.02,10.491,4.174,10.282Z" transform="translate(709.998 362)" fill="none" stroke="#003c51" stroke-width="1"/>
  </g>
</svg>
