<svg xmlns="http://www.w3.org/2000/svg" width="24" height="24.001" viewBox="0 0 24 24.001">
  <g id="IconInfoMark24" transform="translate(0 0)">
    <rect id="Rectangle_263" data-name="Rectangle 263" width="24" height="24" fill="none" opacity="0"/>
    <path id="Subtraction_57" data-name="Subtraction 57" d="M-4388-3711a11.921,11.921,0,0,1-8.485-3.515A11.922,11.922,0,0,1-4400-3723a11.921,11.921,0,0,1,3.515-8.485A11.922,11.922,0,0,1-4388-3735a11.92,11.92,0,0,1,8.485,3.515A11.921,11.921,0,0,1-4376-3723a11.922,11.922,0,0,1-3.515,8.486A11.918,11.918,0,0,1-4388-3711Zm0-15.1a.6.6,0,0,0-.6.6v8a.6.6,0,0,0,.6.6.6.6,0,0,0,.6-.6v-8A.6.6,0,0,0-4388-3726.1Zm0-3a.6.6,0,0,0-.6.6v1a.6.6,0,0,0,.6.6.6.6,0,0,0,.6-.6v-1A.6.6,0,0,0-4388-3729.1Z" transform="translate(4400 3735)" fill="#077e9c"/>
  </g>
</svg>
