<svg id="IconIdea16" xmlns="http://www.w3.org/2000/svg" width="16" height="16" viewBox="0 0 16 16">
  <g id="IconIdea16-2" data-name="IconIdea16" transform="translate(0 -1)">
    <rect id="Rectangle_226" data-name="Rectangle 226" width="16" height="16" transform="translate(0 1)" fill="#fff" opacity="0"/>
    <path id="Union_25" data-name="Union 25" d="M23722.953,20940.576a1,1,0,0,1-1-1v-1.273a3.712,3.712,0,1,1,4.127,0v1.273a1,1,0,0,1-1,1Zm-1.447-5.359a2.517,2.517,0,0,0,1.113,2.09l.531.352v1.721h1.732v-1.715l.529-.357a2.513,2.513,0,1,0-3.906-2.09Zm7.225.424a.6.6,0,0,1,0-1.2h.75a.6.6,0,0,1,0,1.2Zm-10.131,0a.6.6,0,0,1,0-1.2h.75a.6.6,0,0,1,0,1.2Zm8.344-3.521a.6.6,0,0,1,0-.846l.529-.529a.6.6,0,0,1,.852.846l-.529.529a.6.6,0,0,1-.428.18A.589.589,0,0,1,23726.943,20932.119Zm-6.658,0-.529-.529a.6.6,0,0,1,.852-.846l.529.529a.6.6,0,1,1-.852.846Zm3.156-1.773v-.75a.6.6,0,0,1,1.2,0v.75a.6.6,0,1,1-1.2,0Z" transform="translate(-23715.916 -20926.041)" fill="#003c51"/>
  </g>
</svg>
