<svg id="IconExport24" xmlns="http://www.w3.org/2000/svg" width="24" height="24" viewBox="0 0 24 24">
  <g id="IconExport24-2" data-name="IconExport24" transform="translate(-0.001 0)">
    <rect id="Rectangle" width="24" height="24" transform="translate(0.001 0)" fill="rgba(216,216,216,0)" opacity="0"/>
    <path id="Union_140" data-name="Union 140" d="M21398.6,16681.152a2.6,2.6,0,0,1-2.6-2.6v-3a.6.6,0,0,1,1.2,0v3a1.4,1.4,0,0,0,1.4,1.4h9a1.4,1.4,0,0,0,1.4-1.4v-3a.6.6,0,0,1,1.2,0v3a2.6,2.6,0,0,1-2.6,2.6Zm4.1-5.152v-5.15l-2.025,1.621a.6.6,0,0,1-.748-.941l3-2.4a.586.586,0,0,1,.748,0l3,2.4a.6.6,0,0,1,.09.844.6.6,0,0,1-.844.1l-2.025-1.623V16676a.6.6,0,1,1-1.2,0Z" transform="translate(-21391.1 -16663.074)" fill="#003c51"/>
  </g>
</svg>
