<svg xmlns="http://www.w3.org/2000/svg" viewBox="0 0 32 32"><rect width="32" height="32" rx="8" opacity="0"/><g transform="translate(6 6)"><rect width="32" height="32" transform="translate(-6 -6)" fill="#fff" opacity="0"/><path d="M23327.5,20638.75a2.25,2.25,0,1,1,2.25,2.25A2.248,2.248,0,0,1,23327.5,20638.75Zm-6.752,0a2.251,2.251,0,1,1,2.252,2.25A2.249,2.249,0,0,1,23320.75,20638.75Zm-6.748,0a2.249,2.249,0,1,1,2.248,2.25A2.25,2.25,0,0,1,23314,20638.75Zm13.5-6.75a2.25,2.25,0,1,1,2.25,2.25A2.25,2.25,0,0,1,23327.5,20632Zm-6.752,0a2.251,2.251,0,1,1,2.252,2.25A2.251,2.251,0,0,1,23320.75,20632Zm-6.748,0a2.249,2.249,0,1,1,2.248,2.25A2.252,2.252,0,0,1,23314,20632Zm13.5-6.748a2.25,2.25,0,1,1,2.25,2.25A2.248,2.248,0,0,1,23327.5,20625.252Zm-6.752,0a2.251,2.251,0,1,1,2.252,2.25A2.249,2.249,0,0,1,23320.75,20625.252Zm-6.748,0a2.249,2.249,0,1,1,2.248,2.25A2.25,2.25,0,0,1,23314,20625.252Z" transform="translate(-23313 -20622)" fill="#2a354b"/></g></svg>