<svg id="IconDashboard24" xmlns="http://www.w3.org/2000/svg" width="24" height="24" viewBox="0 0 24 24">
  <g id="IconDashboard24-2" data-name="IconDashboard24">
    <rect id="Rectangle_225" data-name="Rectangle 225" width="24" height="24" fill="#fff" opacity="0"/>
    <path id="Union_10" data-name="Union 10" d="M23654.867,20832.355c-.047-.094-.09-.189-.131-.291a8.967,8.967,0,1,1,.131.291Zm.535-3.855a7.576,7.576,0,0,0,.617,3.012c.035.084.072.162.113.244a7.6,7.6,0,0,0,13.734.006,7.507,7.507,0,0,0,.732-3.262,7.6,7.6,0,0,0-15.2,0Zm12.387.7a.7.7,0,1,1,0-1.4h.707a.7.7,0,1,1,0,1.4Zm-10.283,0a.7.7,0,1,1,0-1.4h.705a.7.7,0,1,1,0,1.4Zm5-.207a.7.7,0,0,1,0-.986l4-4a.7.7,0,0,1,.986.986l-4,4a.7.7,0,0,1-.986,0Zm-3.506-3.5-.506-.5a.7.7,0,0,1,.992-.992l.506.5a.7.7,0,0,1-.992.992Zm3.3-1.705v-.861a.7.7,0,0,1,1.4,0v.861a.7.7,0,0,1-1.4,0Z" transform="translate(-23651 -20816.5)" fill="#003c51"/>
  </g>
</svg>
