<svg id="IconImage24" xmlns="http://www.w3.org/2000/svg" width="24" height="24" viewBox="0 0 24 24">
  <g id="IconImage24-2" data-name="IconImage24" transform="translate(-961 -355)">
    <rect id="Rectangle_4068" data-name="Rectangle 4068" width="24" height="24" transform="translate(961 355)" fill="#fff" opacity="0"/>
    <path id="Union_289" data-name="Union 289" d="M15448,22755a3,3,0,0,1-3-3v-7a3,3,0,0,1,3-3h3v-1a1,1,0,0,1,1-1h5a1,1,0,0,1,1,1v1h3a3.006,3.006,0,0,1,3,3v7a3.006,3.006,0,0,1-3,3Zm-1.8-10v7a1.8,1.8,0,0,0,1.8,1.8h13a1.8,1.8,0,0,0,1.8-1.8v-7a1.8,1.8,0,0,0-1.8-1.8h-3.023a1,1,0,0,1-.979.8h-5a1,1,0,0,1-.979-.8H15448A1.8,1.8,0,0,0,15446.2,22745Zm11.795-1.916c0-.027,0-.055,0-.084C15458,22743.029,15458,22743.057,15458,22743.084Zm-5.8-.283h4.6v-1.6h-4.6Zm-2.2,5.773a4.5,4.5,0,1,1,4.5,4.5A4.5,4.5,0,0,1,15450,22748.574Zm1.2,0a3.3,3.3,0,1,0,3.3-3.3A3.305,3.305,0,0,0,15451.2,22748.574Zm8.709-3.455a1.048,1.048,0,1,1,1.045,1.045A1.045,1.045,0,0,1,15459.906,22745.119Z" transform="translate(-14481.5 -22380.898)" fill="#003c51"/>
  </g>
</svg>
