<svg id="IconCallendar16" xmlns="http://www.w3.org/2000/svg" width="16" height="16" viewBox="0 0 16 16">
  <rect id="Rectangle_1848" data-name="Rectangle 1848" width="16" height="16" fill="#fff" opacity="0"/>
  <g id="Group_2363" data-name="Group 2363" transform="translate(1 2.646)">
    <g id="Rectangle_1786" data-name="Rectangle 1786" transform="translate(0 0.352)" fill="none" stroke="#003c51" stroke-linecap="round" stroke-linejoin="round" stroke-width="1.2">
      <rect width="14" height="12" rx="2" stroke="none"/>
      <rect x="0.6" y="0.6" width="12.8" height="10.8" rx="1.4" fill="none"/>
    </g>
  </g>
  <g id="Rectangle_1787" data-name="Rectangle 1787" transform="translate(4 6.498)" fill="#2a354b" stroke="#003c51" stroke-linecap="round" stroke-linejoin="round" stroke-width="1">
    <rect width="2" height="2" stroke="none"/>
    <rect x="0.5" y="0.5" width="1" height="1" fill="none"/>
  </g>
  <g id="Rectangle_1793" data-name="Rectangle 1793" transform="translate(4 2)" fill="#2a354b" stroke="#003c51" stroke-linecap="round" stroke-linejoin="round" stroke-width="1">
    <rect width="2" height="2" stroke="none"/>
    <rect x="0.5" y="0.5" width="1" height="1" fill="none"/>
  </g>
  <g id="Rectangle_1794" data-name="Rectangle 1794" transform="translate(10 2)" fill="#2a354b" stroke="#003c51" stroke-linecap="round" stroke-linejoin="round" stroke-width="1">
    <rect width="2" height="2" stroke="none"/>
    <rect x="0.5" y="0.5" width="1" height="1" fill="none"/>
  </g>
  <g id="Rectangle_1792" data-name="Rectangle 1792" transform="translate(4 9.498)" fill="#2a354b" stroke="#003c51" stroke-linecap="round" stroke-linejoin="round" stroke-width="1">
    <rect width="2" height="2" stroke="none"/>
    <rect x="0.5" y="0.5" width="1" height="1" fill="none"/>
  </g>
  <g id="Rectangle_1789" data-name="Rectangle 1789" transform="translate(7 6.498)" fill="#2a354b" stroke="#003c51" stroke-linecap="round" stroke-linejoin="round" stroke-width="1">
    <rect width="2" height="2" stroke="none"/>
    <rect x="0.5" y="0.5" width="1" height="1" fill="none"/>
  </g>
  <g id="Rectangle_1850" data-name="Rectangle 1850" transform="translate(10 6.498)" fill="#2a354b" stroke="#003c51" stroke-linecap="round" stroke-linejoin="round" stroke-width="1">
    <rect width="2" height="2" stroke="none"/>
    <rect x="0.5" y="0.5" width="1" height="1" fill="none"/>
  </g>
  <g id="Rectangle_1790" data-name="Rectangle 1790" transform="translate(7 9.498)" fill="#2a354b" stroke="#003c51" stroke-linecap="round" stroke-linejoin="round" stroke-width="1">
    <rect width="2" height="2" stroke="none"/>
    <rect x="0.5" y="0.5" width="1" height="1" fill="none"/>
  </g>
  <g id="Rectangle_1849" data-name="Rectangle 1849" transform="translate(10 9.498)" fill="#2a354b" stroke="#003c51" stroke-linecap="round" stroke-linejoin="round" stroke-width="1">
    <rect width="2" height="2" stroke="none"/>
    <rect x="0.5" y="0.5" width="1" height="1" fill="none"/>
  </g>
</svg>
