<svg id="IconFullscreen16" xmlns="http://www.w3.org/2000/svg" width="16" height="16" viewBox="0 0 16 16">
  <g id="IconFullscreen16-2" data-name="IconFullscreen16">
    <g id="IconFullscreen16-3" data-name="IconFullscreen16" transform="translate(4 2.607)">
      <rect id="Rectangle_230" data-name="Rectangle 230" width="16" height="16" transform="translate(-4 -2.607)" fill="none" opacity="0"/>
      <path id="Union_46" data-name="Union 46" d="M18773.2,20935.191a.6.6,0,1,1,0-1.2h1.4v-1.4a.6.6,0,0,1,1.2,0v2a.6.6,0,0,1-.6.6Zm-5.2,0a.6.6,0,0,1-.6-.6v-2a.6.6,0,0,1,1.2,0v1.4h1.4a.6.6,0,1,1,0,1.2Zm6.6-5.8v-1.4h-1.4a.6.6,0,0,1,0-1.2h2a.6.6,0,0,1,.6.6v2a.6.6,0,0,1-1.2,0Zm-7.2,0v-2a.6.6,0,0,1,.6-.6h2a.6.6,0,0,1,0,1.2h-1.4v1.4a.6.6,0,1,1-1.2,0Z" transform="translate(20934.994 -18766.209) rotate(90)" fill="#003c51"/>
      <path id="Path_2208" data-name="Path 2208" d="M0,0H2.676" transform="translate(0.816 2.209) rotate(45)" fill="none" stroke="#003c51" stroke-linecap="round" stroke-width="1.2"/>
      <path id="Path_2209" data-name="Path 2209" d="M0,0H2.676" transform="translate(5.288 6.681) rotate(45)" fill="none" stroke="#003c51" stroke-linecap="round" stroke-width="1.2"/>
      <line id="Line_543" data-name="Line 543" y1="9" transform="translate(7.18 2.209) rotate(45)" fill="none" stroke="#003c51" stroke-linecap="round" stroke-width="1.2"/>
    </g>
  </g>
</svg>
