<svg id="IconBYOC24" xmlns="http://www.w3.org/2000/svg" width="24" height="24" viewBox="0 0 24 24">
  <g id="IconBYOC24-2" data-name="IconBYOC24" transform="translate(1 1)">
    <rect id="Rectangle_502" data-name="Rectangle 502" width="24" height="24" transform="translate(-1 -1)" fill="#fff" opacity="0"/>
    <g id="Group_4626" data-name="Group 4626" transform="translate(-0.211 -0.022)">
      <path id="Path_2965" data-name="Path 2965" d="M19065.59,20830.576l2.73,2.729,5.457-5.773" transform="translate(-19057.668 -20817.531)" fill="none" stroke="#003c51" stroke-linecap="round" stroke-linejoin="round" stroke-width="1.4"/>
      <path id="Path_2213_-_Outline" data-name="Path 2213 - Outline" d="M4.885-3.284A1.871,1.871,0,0,0,3.45-1.2V.33A2.977,2.977,0,0,1,2.7,2.488,2.965,2.965,0,0,1,3.45,4.631V6.166a1.893,1.893,0,0,0,1.48,2.049" transform="translate(2.012 9.492)" fill="none" stroke="#003c51" stroke-linecap="round" stroke-linejoin="round" stroke-width="1.4"/>
      <path id="Path_2213_-_Outline-2" data-name="Path 2213 - Outline" d="M2.186,0A1.871,1.871,0,0,0,.751,2.087V3.614A2.977,2.977,0,0,1,0,5.772,2.965,2.965,0,0,1,.751,7.915V9.449A1.893,1.893,0,0,0,2.231,11.5" transform="translate(19.339 17.704) rotate(180)" fill="none" stroke="#003c51" stroke-linecap="round" stroke-linejoin="round" stroke-width="1.4"/>
    </g>
  </g>
</svg>
