<svg xmlns="http://www.w3.org/2000/svg" width="16" height="16.002" viewBox="0 0 16 16.002">
  <g id="IconWarningMark16" transform="translate(16 16.002) rotate(180)">
    <rect id="Rectangle_263" data-name="Rectangle 263" width="16" height="16" fill="none" opacity="0"/>
    <path id="Subtraction_4" data-name="Subtraction 4" d="M22736,20944a8,8,0,1,1,8-8A8.013,8.013,0,0,1,22736,20944Zm0-5.605a.6.6,0,0,0-.6.605v1a.6.6,0,0,0,1.2,0v-1A.6.6,0,0,0,22736,20938.4Zm0-7a.6.6,0,0,0-.6.6v5a.6.6,0,0,0,1.2,0v-5A.6.6,0,0,0,22736,20931.4Z" transform="translate(-22728 -20928)" fill="#077e9c"/>
  </g>
</svg>
