<svg id="IconDockLeft24" xmlns="http://www.w3.org/2000/svg" width="24" height="24" viewBox="0 0 24 24">
  <g id="Rectangle_3582" data-name="Rectangle 3582" fill="#fff" stroke="#707070" stroke-width="1" opacity="0">
    <rect width="24" height="24" stroke="none"/>
    <rect x="0.5" y="0.5" width="23" height="23" fill="none"/>
  </g>
  <path id="Union_235" data-name="Union 235" d="M16312,24297a4,4,0,0,1-4-4v-8a4,4,0,0,1,4-4h8a4,4,0,0,1,4,4v8a4,4,0,0,1-4,4Zm8-1.2a2.8,2.8,0,0,0,2.8-2.8v-8a2.8,2.8,0,0,0-2.8-2.8h-1.9v13.6Zm-10.8-10.8v8a2.8,2.8,0,0,0,2.8,2.8h4.9v-13.6h-4.9A2.8,2.8,0,0,0,16309.2,24285Z" transform="translate(16327.996 24301) rotate(180)" fill="#003c51"/>
</svg>
