<svg id="IconHome24" xmlns="http://www.w3.org/2000/svg" width="24" height="24" viewBox="0 0 24 24">
  <g id="IconHome24-2" data-name="IconHome24" transform="translate(1 1)">
    <rect id="Rectangle_502" data-name="Rectangle 502" width="24" height="24" transform="translate(-1 -1)" fill="#fff" opacity="0"/>
    <path id="Union_252" data-name="Union 252" d="M15359.667,22927.256a2.257,2.257,0,0,1-2.256-2.256v-5.443a.7.7,0,1,1,1.4,0V22925a.86.86,0,0,0,.857.857h7.773a.86.86,0,0,0,.857-.857v-5.443a.7.7,0,1,1,1.4,0V22925a2.26,2.26,0,0,1-2.256,2.256Zm10.956-7.205-6.117-6.117a1.351,1.351,0,0,0-1.9,0l-6.116,6.117a.7.7,0,0,1-.99,0,.7.7,0,0,1,0-.99l6.117-6.115a2.74,2.74,0,0,1,3.884,0l6.116,6.115a.7.7,0,0,1-.5,1.193A.7.7,0,0,1,15370.623,22920.051Z" transform="translate(-15352.554 -22908.555)" fill="#003c51"/>
  </g>
</svg>
