<svg id="IconConfigurations24" xmlns="http://www.w3.org/2000/svg" width="24" height="24" viewBox="0 0 24 24">
  <g id="IconConfigurations24-2" data-name="IconConfigurations24" transform="translate(1 1)">
    <rect id="Rectangle_502" data-name="Rectangle 502" width="24" height="24" transform="translate(-1 -1)" fill="#fff" opacity="0"/>
    <path id="Union_52" data-name="Union 52" d="M19057.865,20831.855c-.047-.094-.09-.189-.131-.293a8.934,8.934,0,1,1,.131.293Zm.533-3.855a7.468,7.468,0,0,0,.623,3.008c.035.084.072.168.109.25a7.607,7.607,0,0,0,6.871,4.342,7.56,7.56,0,0,0,4.109-1.2,7.7,7.7,0,0,0,2.756-3.133,7.6,7.6,0,1,0-14.469-3.264Zm4.125,4.074a.6.6,0,0,1-.6-.6v-2a.581.581,0,0,1,.174-.422l4.658-4.66a.6.6,0,0,1,.848,0l2,2a.6.6,0,0,1,0,.852l-4.654,4.654a.6.6,0,0,1-.424.178Zm.6-2.354v1.156h1.15l4.059-4.059-1.15-1.15Zm6.924-3.77-2-2a.6.6,0,0,1,.846-.846l2,2a.6.6,0,0,1-.422,1.02A.611.611,0,0,1,19070.049,20825.951Z" transform="translate(-19055 -20817)" fill="#003c51"/>
  </g>
</svg>
