<svg id="IconAction24" xmlns="http://www.w3.org/2000/svg" width="24" height="24" viewBox="0 0 24 24">
  <g id="IconAction24-2" data-name="IconAction24" transform="translate(1 1)">
    <rect id="Rectangle_502" data-name="Rectangle 502" width="24" height="24" transform="translate(-1 -1)" fill="#fff" opacity="0"/>
    <path id="Path_2438" data-name="Path 2438" d="M3.059,7.923H.951a.451.451,0,0,1-.325-.762L6.867.643a.451.451,0,0,1,.732.5l-2.375,5a.45.45,0,0,0,.407.644H7.739a.45.45,0,0,1,.325.762L1.823,14.076a.451.451,0,0,1-.732-.5l2.375-5A.45.45,0,0,0,3.059,7.923Z" transform="translate(6.655 3.884)" fill="none" stroke="#003c51" stroke-linejoin="round" stroke-miterlimit="10" stroke-width="1.2"/>
  </g>
</svg>
