<svg id="IconHelp24" xmlns="http://www.w3.org/2000/svg" width="24" height="24" viewBox="0 0 24 24">
  <g id="Rectangle_3580" data-name="Rectangle 3580" fill="#fff" stroke="#707070" stroke-width="1" opacity="0">
    <rect width="24" height="24" stroke="none"/>
    <rect x="0.5" y="0.5" width="23" height="23" fill="none"/>
  </g>
  <path id="Union_228" data-name="Union 228" d="M0,9.5A9.5,9.5,0,1,1,9.5,19,9.5,9.5,0,0,1,0,9.5Zm1.2,0A8.3,8.3,0,1,0,9.5,1.2,8.309,8.309,0,0,0,1.2,9.5Zm7.589,4.879a.729.729,0,0,1-.188-.514.755.755,0,0,1,.188-.521.708.708,0,0,1,.557-.211.719.719,0,0,1,.561.211.745.745,0,0,1,.192.521.72.72,0,0,1-.192.514.732.732,0,0,1-.561.2A.721.721,0,0,1,8.788,14.379Zm-.133-2.686A4.067,4.067,0,0,1,8.84,10.41a3.3,3.3,0,0,1,.7-1.044l.9-.922a2.066,2.066,0,0,0,.574-1.391,1.588,1.588,0,0,0-.376-1.122,1.419,1.419,0,0,0-1.094-.406,1.648,1.648,0,0,0-1.121.369,1.25,1.25,0,0,0-.424.992H6.727A2.3,2.3,0,0,1,7.517,5.1a2.953,2.953,0,0,1,2.02-.68,2.785,2.785,0,0,1,2.013.693,2.512,2.512,0,0,1,.721,1.9,3.437,3.437,0,0,1-1.107,2.354l-.745.737a2.292,2.292,0,0,0-.5,1.59Z" transform="translate(2.5 2.5)" fill="#003c51"/>
</svg>
