<svg id="IconDocumentCompare24" xmlns="http://www.w3.org/2000/svg" width="24" height="24" viewBox="0 0 24 24">
  <g id="Rectangle_4049" data-name="Rectangle 4049" fill="#fff" stroke="#707070" stroke-width="1" opacity="0">
    <rect width="24" height="24" stroke="none"/>
    <rect x="0.5" y="0.5" width="23" height="23" fill="none"/>
  </g>
  <path id="Union_275" data-name="Union 275" d="M16415.328,23116.092a3.329,3.329,0,0,1-3.312-3.342v-1a.6.6,0,0,1,1.2,0v1a2.125,2.125,0,0,0,2.111,2.141h6.318a2.125,2.125,0,0,0,2.111-2.141v-7.314a2.122,2.122,0,0,0-2.111-2.137h-1.8a.6.6,0,0,1,0-1.2h1.8a3.331,3.331,0,0,1,3.313,3.336v7.314a3.336,3.336,0,0,1-3.312,3.342Zm-7.947-.15a.492.492,0,0,1,0-.7l.777-.777h-2.559a.6.6,0,0,1,0-1.2h2.564l-.783-.783a.5.5,0,0,1,.7-.7l2.09,2.082-2.09,2.084a.5.5,0,0,1-.354.145A.478.478,0,0,1,16407.381,23115.941Zm8.836-3.633a.6.6,0,0,1-.6-.6.6.6,0,0,1,.6-.6h4.564a.607.607,0,0,1,.6.6.6.6,0,0,1-.6.6Zm-8.221-2.3a3,3,0,0,1-2.994-3v-8a3,3,0,0,1,2.994-3h7a3,3,0,0,1,3,3v8a3,3,0,0,1-3,3Zm-1.793-11v8a1.8,1.8,0,0,0,1.793,1.8h7a1.806,1.806,0,0,0,1.8-1.8v-8a1.806,1.806,0,0,0-1.8-1.8h-7A1.8,1.8,0,0,0,16406.2,23099.006Zm14.016,10.8a.6.6,0,0,1,0-1.2h.563a.6.6,0,0,1,0,1.2Zm0-2.5a.6.6,0,0,1,0-1.2h.563a.6.6,0,0,1,0,1.2Zm-11-1.107a.6.6,0,0,1,0-1.2h4.57a.6.6,0,0,1,0,1.2Zm0-2.5a.6.6,0,0,1,0-1.2h4.57a.6.6,0,0,1,0,1.2Zm0-2.494a.612.612,0,0,1-.6-.6.6.6,0,0,1,.6-.6h4.57a.6.6,0,0,1,.6.6.608.608,0,0,1-.6.6Zm12.7-.887-2.09-2.09,2.09-2.082a.481.481,0,0,1,.348-.15.5.5,0,0,1,.354.15.5.5,0,0,1,0,.707l-.777.777h2.564a.6.6,0,0,1,0,1.2h-2.564l.777.777a.5.5,0,0,1,0,.709.481.481,0,0,1-.348.15A.494.494,0,0,1,16421.914,23100.318Z" transform="translate(-16403 -23094)" fill="#003c51"/>
</svg>
