<svg id="IconFlowBuilder24" xmlns="http://www.w3.org/2000/svg" width="24" height="24" viewBox="0 0 24 24">
  <g id="Rectangle_4175" data-name="Rectangle 4175" fill="none" stroke="#707070" stroke-width="1" opacity="0">
    <rect width="24" height="24" stroke="none"/>
    <rect x="0.5" y="0.5" width="23" height="23" fill="none"/>
  </g>
  <path id="Union_307" data-name="Union 307" d="M15878.5,22819.521l-2.591-2.529-3.022,3.063c-.692.051-3.367.16-3.345.137l-.572-.178-.224-.619c.092-.928.132-2.25.252-3.229l2.833-2.867-2.673-2.6a2.286,2.286,0,0,1-.687-1.512,1.891,1.891,0,0,1,.544-1.455l1.414-1.414a1.9,1.9,0,0,1,1.357-.549,2.3,2.3,0,0,1,1.609.686l2.652,2.58,2.062-2.086a.918.918,0,0,1,1.294,0l2.589,2.588a.919.919,0,0,1,0,1.295l-1.868,1.893,2.618,2.557a2.4,2.4,0,0,1,.71,1.541,1.879,1.879,0,0,1-.532,1.467l-1.409,1.414a1.893,1.893,0,0,1-1.34.537A2.407,2.407,0,0,1,15878.5,22819.521Zm.853-3.162a.6.6,0,0,1,0,.848l-.727.729c-.006,0-.006.006-.012.012l.733.721a1.211,1.211,0,0,0,.824.367.673.673,0,0,0,.487-.184l1.414-1.414a.684.684,0,0,0,.184-.545,1.167,1.167,0,0,0-.355-.762l-2.595-2.525-2.542,2.543.99.961a.085.085,0,0,0,.023-.021l.727-.729a.6.6,0,0,1,.848,0Zm-9.2.355c-.046.447-.074.951-.108,1.438-.018.287-.035.566-.052.836.59-.023,1.678-.068,2.371-.1l8.585-8.7-2.188-2.193Zm2.319-6.947a.6.6,0,0,1,0,.848l-.824.824.8.785,2.543-2.543-2.44-2.383a1.118,1.118,0,0,0-.762-.332.7.7,0,0,0-.51.2l-1.414,1.414a.732.732,0,0,0-.2.551,1.12,1.12,0,0,0,.333.715l.784.762.836-.836a.6.6,0,0,1,.426-.176A.587.587,0,0,1,15872.466,22809.768Zm10.475-.486-3.006-3.012a.6.6,0,0,1,0-.848.606.606,0,0,1,.848,0l3.012,3.012a.6.6,0,0,1-.427,1.023A.6.6,0,0,1,15882.94,22809.281Z" transform="translate(-15863.608 -22801.496)" fill="#003c51"/>
</svg>
