<svg id="IconAccount24" xmlns="http://www.w3.org/2000/svg" width="24" height="24" viewBox="0 0 24 24">
  <g id="IconAccount24-2" data-name="IconAccount24" transform="translate(1 1)">
    <rect id="Rectangle_502" data-name="Rectangle 502" width="24" height="24" transform="translate(-1 -1)" fill="#fff" opacity="0"/>
    <path id="Path_2823" data-name="Path 2823" d="M-4707-3440.13a7.851,7.851,0,0,1,5.743-7.3,4,4,0,0,1-2.186-3.566,4,4,0,0,1,4-4,4,4,0,0,1,4,4,4,4,0,0,1-2.186,3.566,7.85,7.85,0,0,1,5.743,7.3c0,2.087-3.778,3.13-7.557,3.13S-4707-3438.043-4707-3440.13Zm3.334-4.335a6.033,6.033,0,0,0-1.934,4.335c0,.242.453.669,1.446,1.035a14.446,14.446,0,0,0,4.711.7,14.451,14.451,0,0,0,4.712-.7c.992-.366,1.445-.793,1.445-1.035a6.03,6.03,0,0,0-1.934-4.335,6.21,6.21,0,0,0-4.223-1.822A6.208,6.208,0,0,0-4703.667-3444.466Zm1.623-6.534a2.6,2.6,0,0,0,2.6,2.6,2.6,2.6,0,0,0,2.6-2.6,2.6,2.6,0,0,0-2.6-2.6A2.6,2.6,0,0,0-4702.043-3451Z" transform="translate(4710.443 3457)" fill="#003c51"/>
  </g>
</svg>
