<svg xmlns="http://www.w3.org/2000/svg" width="24" height="24" viewBox="0 0 24 24"><g transform="translate(1 1)"><rect width="24" height="24" transform="translate(-1 -1)" fill="#fff" opacity="0"/><circle cx="1.5" cy="1.5" r="1.5" transform="translate(3.434 6)" fill="none" stroke="#003c51" stroke-linecap="round" stroke-width="1.4"/><circle cx="1.5" cy="1.5" r="1.5" transform="translate(15.434 13)" fill="none" stroke="#003c51" stroke-linecap="round" stroke-width="1.4"/><path d="M7.867.7H-1A.7.7,0,0,1-1.7,0,.7.7,0,0,1-1-.7H7.867a.7.7,0,0,1,.7.7A.7.7,0,0,1,7.867.7Z" transform="translate(10.566 7.5)" fill="#003c51"/><path d="M7.867.7H-1A.7.7,0,0,1-1.7,0,.7.7,0,0,1-1-.7H7.867a.7.7,0,0,1,.7.7A.7.7,0,0,1,7.867.7Z" transform="translate(4.566 14.5)" fill="#003c51"/></g></svg>