<svg id="Icondoc24" xmlns="http://www.w3.org/2000/svg" width="24" height="24" viewBox="0 0 24 24">
  <g id="Rectangle_3558" data-name="Rectangle 3558" fill="#003c51" stroke="#707070" stroke-width="1" opacity="0">
    <rect width="24" height="24" stroke="none"/>
    <rect x="0.5" y="0.5" width="23" height="23" fill="none"/>
  </g>
  <path id="Union_298" data-name="Union 298" d="M4.007,18A4.007,4.007,0,0,1,0,14V4A4.006,4.006,0,0,1,4.007,0h6.871C10.954,0,16.006,4.693,16,4.7V14a4,4,0,0,1-4,4ZM1.2,4V14a2.807,2.807,0,0,0,2.8,2.8h8A2.807,2.807,0,0,0,14.8,14V5.877H12.636A2.253,2.253,0,0,1,10.46,3.568V1.225L10.437,1.2H4.007A2.8,2.8,0,0,0,1.2,4Zm10.456-.43a1.052,1.052,0,0,0,.974,1.107h1.589c-.724-.666-1.734-1.6-2.564-2.361ZM5.944,12.705a.6.6,0,0,1,0-1.2H10.5a.6.6,0,1,1,0,1.2Zm0-3.133a.6.6,0,0,1,0-1.2H10.5a.6.6,0,1,1,0,1.2Zm0-3.139a.6.6,0,0,1,0-1.2H8.506a.6.6,0,0,1,0,1.2Z" transform="translate(4 3)" fill="#003c51"/>
</svg>
