<svg id="IconAutomationStory24" xmlns="http://www.w3.org/2000/svg" width="24" height="24" viewBox="0 0 24 24">
  <g id="IconAutomationStory24-2" data-name="IconAutomationStory24" transform="translate(4 2.607)">
    <rect id="Rectangle_230" data-name="Rectangle 230" width="24" height="24" transform="translate(-4 -2.607)" fill="none"/>
    <path id="Union_5" data-name="Union 5" d="M23079.6,20836.16l-.816-1.311a.7.7,0,0,1-.088-.527.688.688,0,0,1,.309-.434l1.314-.824a.7.7,0,0,1,.963.227.709.709,0,0,1,0,.744,7.26,7.26,0,0,0,1.271.113,7.165,7.165,0,0,0,6.084-10.936.69.69,0,0,1,.221-.961.7.7,0,0,1,.967.227,8.558,8.558,0,0,1-9.07,12.881l.037.059a.706.706,0,0,1-.221.969.716.716,0,0,1-.371.1A.707.707,0,0,1,23079.6,20836.16Zm3.217-4.057a1.65,1.65,0,0,0-2.139-.377.791.791,0,0,1-1.2-.7,1.649,1.649,0,0,0-1.4-1.664.794.794,0,0,1-.475-1.309,1.642,1.642,0,0,0,0-2.168.794.794,0,0,1,.475-1.309,1.644,1.644,0,0,0,1.4-1.658.788.788,0,0,1,1.2-.7,1.659,1.659,0,0,0,2.139-.377.794.794,0,0,1,1.373.238,1.641,1.641,0,0,0,1.879,1.084.794.794,0,0,1,.891,1.066,1.649,1.649,0,0,0,.742,2.039.792.792,0,0,1,0,1.391,1.653,1.653,0,0,0-.742,2.041.791.791,0,0,1-.891,1.064,1.641,1.641,0,0,0-1.879,1.084.794.794,0,0,1-.758.539A.783.783,0,0,1,23082.818,20832.1Zm.445-1.479a3.065,3.065,0,0,1,2.2-1.268c-.006-.082-.012-.158-.012-.244a3.051,3.051,0,0,0,0-4.277c0-.08.006-.162.012-.242a3.7,3.7,0,0,0-4.687-.83,2.2,2.2,0,0,0-1.357,3.211,2.2,2.2,0,0,0,1.357,3.211,3.019,3.019,0,0,1,.758-.1A3.064,3.064,0,0,1,23083.264,20830.625Zm-8.187.533a8.56,8.56,0,0,1,7.477-12.719,8.909,8.909,0,0,1,1.186.078.661.661,0,0,1-.021-.449.694.694,0,0,1,1.281-.146l.752,1.352a.7.7,0,0,1-.271.949l-1.355.748a.7.7,0,0,1-.838-1.1,7.02,7.02,0,0,0-.732-.037,7.165,7.165,0,0,0-6.254,10.639.7.7,0,0,1-.607,1.043A.719.719,0,0,1,23075.076,20831.158Zm6.473-4.184a1.113,1.113,0,1,1,1.113,1.113A1.11,1.11,0,0,1,23081.549,20826.975Z" transform="translate(-23074.654 -20817.549)" fill="#003c51"/>
  </g>
</svg>
