<svg id="IconCopy16" xmlns="http://www.w3.org/2000/svg" width="16" height="16" viewBox="0 0 16 16">
  <g id="IconCopy16-2" data-name="IconCopy16" transform="translate(-4.001 -4)">
    <rect id="Rectangle" width="16" height="16" transform="translate(4.001 4)" fill="#003c51" opacity="0"/>
    <path id="Path_2995" data-name="Path 2995" d="M21588,16809.2a.8.8,0,0,0-.8.8v6a.8.8,0,0,0,.8.8h4a.8.8,0,0,0,.8-.8v-6a.8.8,0,0,0-.8-.8h-4m0-1.2h4a2,2,0,0,1,2,2v6a2,2,0,0,1-2,2h-4a2,2,0,0,1-2-2v-6A2,2,0,0,1,21588,16808Z" transform="translate(-21578.75 -16801.754)" fill="#003c51"/>
    <path id="Path_2994" data-name="Path 2994" d="M14912,22978h-4a2,2,0,0,1-1.937-1.5h1.314a.8.8,0,0,0,.623.3h4a.8.8,0,0,0,.795-.8v-6a.8.8,0,0,0-.3-.627v-1.312a2,2,0,0,1,1.5,1.939v6A2,2,0,0,1,14912,22978Z" transform="translate(-14897.249 -22960.254)" fill="#003c51"/>
  </g>
</svg>
