<svg xmlns="http://www.w3.org/2000/svg" viewBox="0 0 24 24"><g transform="translate(-0.001 0)"><rect width="24" height="24" transform="translate(0.001 0)" fill="none" opacity="0"/><path d="M20572.1,16751.508a1.827,1.827,0,0,0-2.367-.418,1.773,1.773,0,0,1-2.686-1.551,1.816,1.816,0,0,0-1.543-1.844,1.765,1.765,0,0,1-1.061-2.908,1.818,1.818,0,0,0,0-2.406,1.765,1.765,0,0,1,1.061-2.908,1.816,1.816,0,0,0,1.543-1.844,1.769,1.769,0,0,1,2.686-1.549,1.83,1.83,0,0,0,2.367-.42,1.774,1.774,0,0,1,3.053.537,1.833,1.833,0,0,0,2.08,1.205,1.77,1.77,0,0,1,2.113,1.73,1.837,1.837,0,0,1-.119.645,1.8,1.8,0,0,0-.123.656,1.826,1.826,0,0,0,.945,1.6,1.769,1.769,0,0,1,0,3.1,1.825,1.825,0,0,0-.822,2.258,1.823,1.823,0,0,1,.119.646,1.772,1.772,0,0,1-2.113,1.73,1.825,1.825,0,0,0-2.08,1.2,1.769,1.769,0,0,1-3.053.543Zm.934-.754a.571.571,0,0,0,.982-.176,3.032,3.032,0,0,1,3.449-1.988.566.566,0,0,0,.471-.119.557.557,0,0,0,.17-.646,3.073,3.073,0,0,1-.205-1.09,3.032,3.032,0,0,1,1.568-2.654.561.561,0,0,0,.295-.5.556.556,0,0,0-.295-.5,3.023,3.023,0,0,1-1.363-3.744.578.578,0,0,0,.041-.211.586.586,0,0,0-.211-.439.561.561,0,0,0-.471-.113,3.034,3.034,0,0,1-3.449-1.994.568.568,0,0,0-.982-.172,3.035,3.035,0,0,1-3.92.693.562.562,0,0,0-.572-.01.556.556,0,0,0-.289.49v.016a3.032,3.032,0,0,1-2.562,3.053.573.573,0,0,0-.486.568.543.543,0,0,0,.145.365,3.026,3.026,0,0,1,0,3.988.547.547,0,0,0-.145.367.576.576,0,0,0,.486.568,3.028,3.028,0,0,1,2.563,3.053v.01a.565.565,0,0,0,.861.484,3.03,3.03,0,0,1,3.92.693Zm-3.691-7.17a2.936,2.936,0,1,1,2.938,2.934A2.936,2.936,0,0,1,20569.338,16743.584Zm1.2,0a1.735,1.735,0,1,0,1.74-1.734A1.741,1.741,0,0,0,20570.535,16743.584Z" transform="translate(-20560.482 -16731.584)" fill="#2a354b"/></g></svg>