<svg id="IconExport16" xmlns="http://www.w3.org/2000/svg" width="16" height="16" viewBox="0 0 16 16">
  <g id="IconExport16-2" data-name="IconExport16" transform="translate(-4.001 -4)">
    <rect id="Rectangle" width="16" height="16" transform="translate(4.001 4)" fill="rgba(216,216,216,0)" opacity="0"/>
    <path id="Union_174" data-name="Union 174" d="M21455.988,16816.363a1.953,1.953,0,0,1-1.988-1.906v-1.961a.6.6,0,1,1,1.2,0v1.961a.748.748,0,0,0,.787.705h6.227a.749.749,0,0,0,.787-.705v-1.961a.6.6,0,1,1,1.2,0v1.961a1.953,1.953,0,0,1-1.988,1.906Zm2.51-4.211v-3.3l-1.158.928a.6.6,0,0,1-.748-.937l2.133-1.707a.616.616,0,0,1,.377-.129.6.6,0,0,1,.371.129l2.139,1.707a.6.6,0,0,1-.754.938l-1.158-.93v3.307a.6.6,0,0,1-1.2,0Z" transform="translate(-21447.1 -16799.682)" fill="#003c51"/>
  </g>
</svg>
