<svg id="IconExternalLink16" xmlns="http://www.w3.org/2000/svg" width="16" height="16" viewBox="0 0 16 16">
  <g id="Group_101" data-name="Group 101">
    <rect id="Rectangle" width="16" height="16" fill="rgba(216,216,216,0)"/>
    <path id="Union_27" data-name="Union 27" d="M22531.826,20996.2a1.83,1.83,0,0,1-1.828-1.828v-6.125a1.825,1.825,0,0,1,1.828-1.822h3.672a.6.6,0,0,1,0,1.2h-3.672a.621.621,0,0,0-.623.623v6.125a.621.621,0,0,0,.623.623h6.127a.621.621,0,0,0,.621-.623v-3.676a.6.6,0,0,1,1.2,0v3.676a1.825,1.825,0,0,1-1.82,1.828Zm2.777-4.605a.592.592,0,0,1,0-.848l4.549-4.549h-1.652a.6.6,0,0,1,0-1.2h3.1a.6.6,0,0,1,.6.6v3.1a.6.6,0,0,1-1.2,0v-1.656l-4.549,4.553a.591.591,0,0,1-.424.176A.575.575,0,0,1,22534.6,20991.6Z" transform="translate(-22527.6 -20982.6)" fill="#2a354b"/>
  </g>
</svg>
