<svg id="IconFeatures24" xmlns="http://www.w3.org/2000/svg" width="24" height="24" viewBox="0 0 24 24">
  <g id="IconFeatures24-2" data-name="IconFeatures24" transform="translate(1 1)">
    <rect id="Rectangle_502" data-name="Rectangle 502" width="24" height="24" transform="translate(-1 -1)" fill="#fff" opacity="0"/>
    <path id="Path_2839" data-name="Path 2839" d="M12.127,5.745,10.28,1.335m0,0L8.433,5.745A2.846,2.846,0,0,1,6.041,7.486l-4.761.4,3.625,3.141a2.845,2.845,0,0,1,.909,2.8L4.724,18.5,8.8,16.026a2.855,2.855,0,0,1,2.964,0L15.836,18.5l-1.091-4.672a2.845,2.845,0,0,1,.909-2.8L19.28,7.887" transform="translate(0.72 1.081)" fill="none" stroke="#003c51" stroke-linecap="round" stroke-linejoin="round" stroke-width="1.4"/>
    <path id="Path_2840" data-name="Path 2840" d="M6.61,7.676,9,10.062,15.83,3.228" transform="translate(3.855 2.163)" fill="none" stroke="#003c51" stroke-linecap="round" stroke-linejoin="round" stroke-width="1.4"/>
  </g>
</svg>
