<svg id="IconAllApps24" xmlns="http://www.w3.org/2000/svg" width="24" height="24" viewBox="0 0 24 24">
  <g id="IconAllApps24-2" data-name="IconAllApps24" transform="translate(1 1)">
    <rect id="Rectangle_502" data-name="Rectangle 502" width="24" height="24" transform="translate(-1 -1)" fill="#fff" opacity="0"/>
    <path id="Path_2813" data-name="Path 2813" d="M-4655-3443a4,4,0,0,1,4-4,4,4,0,0,1,4,4,4,4,0,0,1-4,4A4,4,0,0,1-4655-3443Zm1.4,0a2.6,2.6,0,0,0,2.6,2.6,2.6,2.6,0,0,0,2.6-2.6,2.6,2.6,0,0,0-2.6-2.6A2.6,2.6,0,0,0-4653.6-3443Zm-9.4,0a4,4,0,0,1,4-4,4,4,0,0,1,4,4,4,4,0,0,1-4,4A4,4,0,0,1-4663-3443Zm1.4,0a2.6,2.6,0,0,0,2.6,2.6,2.6,2.6,0,0,0,2.6-2.6,2.6,2.6,0,0,0-2.6-2.6A2.6,2.6,0,0,0-4661.6-3443Zm6.6-8a4,4,0,0,1,4-4,4,4,0,0,1,4,4,4,4,0,0,1-4,4A4,4,0,0,1-4655-3451Zm1.4,0a2.6,2.6,0,0,0,2.6,2.6,2.6,2.6,0,0,0,2.6-2.6,2.6,2.6,0,0,0-2.6-2.6A2.6,2.6,0,0,0-4653.6-3451Zm-9.4,0a4,4,0,0,1,4-4,4,4,0,0,1,4,4,4,4,0,0,1-4,4A4,4,0,0,1-4663-3451Zm1.4,0a2.6,2.6,0,0,0,2.6,2.6,2.6,2.6,0,0,0,2.6-2.6,2.6,2.6,0,0,0-2.6-2.6A2.6,2.6,0,0,0-4661.6-3451Z" transform="translate(4666 3458)" fill="#003c51"/>
  </g>
</svg>
