<svg id="IconExpandHandle12" xmlns="http://www.w3.org/2000/svg" width="12" height="12" viewBox="0 0 12 12">
  <g id="IconExpandHandle12-2" data-name="IconExpandHandle12" transform="translate(-793 -229)">
    <rect id="Rectangle_4078" data-name="Rectangle 4078" width="12" height="12" transform="translate(793 229)" fill="#fff" opacity="0"/>
    <path id="Path_3116" data-name="Path 3116" d="M16654.178,23279.025a.6.6,0,0,1,0-.848l3-3a.6.6,0,0,1,.848.848l-3,3a.6.6,0,0,1-.848,0Zm-4,0a.6.6,0,0,1,0-.848l7-7a.592.592,0,0,1,.848,0,.6.6,0,0,1,0,.848l-7,7a.6.6,0,0,1-.848,0Z" transform="translate(-15855.1 -23040.1)" fill="#878f9d"/>
  </g>
</svg>
