<svg xmlns="http://www.w3.org/2000/svg" width="16" height="16" viewBox="0 0 16 16"><g transform="translate(-1189.934 -178.922)"><rect width="16" height="16" transform="translate(1189.934 178.922)" fill="none"/><path d="M20222.436,19031.723a.8.8,0,0,0,.8-.8v-1a.8.8,0,0,0-.8-.8h-9.5a.8.8,0,0,0-.8.8v1a.8.8,0,0,0,.8.8h9.5m0-6a.8.8,0,0,0,.8-.8v-1a.8.8,0,0,0-.8-.8h-9.5a.8.8,0,0,0-.8.8v1a.8.8,0,0,0,.8.8h9.5m0,7.2h-9.5a2,2,0,0,1-2-2v-1a2,2,0,0,1,2-2h9.5a2,2,0,0,1,2,2v1A2,2,0,0,1,20222.436,19032.922Zm0-6h-9.5a2,2,0,0,1-2-2v-1a2,2,0,0,1,2-2h9.5a2,2,0,0,1,2,2v1A2,2,0,0,1,20222.436,19026.924Z" transform="translate(-19020 -18840.5)" fill="#2a354b"/></g></svg>