<svg xmlns="http://www.w3.org/2000/svg" width="24" height="24" viewBox="0 0 24 24">
  <g id="IconInfo16" transform="translate(4 4)">
    <g id="IconInfo16-2" data-name="IconInfo16">
      <rect id="Rectangle_226" data-name="Rectangle 226" width="24" height="24" transform="translate(-4 -4)" fill="#fff" opacity="0"/>
      <path id="Union_13" data-name="Union 13" d="M22926.58,20936.57a1.993,1.993,0,0,1-.092-.2,5.936,5.936,0,0,1-.49-2.373,6,6,0,1,1,12,0,5.931,5.931,0,0,1-.582,2.574,6,6,0,0,1-10.84-.006Zm.621-2.568a4.785,4.785,0,0,0,.393,1.9c.018.053.045.1.068.156a4.8,4.8,0,0,0,8.676,0,4.8,4.8,0,1,0-9.137-2.057Zm4.2,2.609v-2.943a.6.6,0,1,1,1.2,0v2.943a.6.6,0,1,1-1.2,0Zm0-4.824v-.426a.6.6,0,1,1,1.2,0v.426a.6.6,0,0,1-1.2,0Z" transform="translate(-22924 -20926)" fill="#003c51"/>
    </g>
  </g>
</svg>
