<svg id="IconDataTypeInt16" xmlns="http://www.w3.org/2000/svg" width="24" height="24" viewBox="0 0 24 24">
  <g id="IconDataTypeInt16-2" data-name="IconDataTypeInt16">
    <rect id="Rectangle" width="24" height="24" fill="#fff" opacity="0"/>
    <path id="Path_2830" data-name="Path 2830" d="M11.159,13.248l2.032-1.212V18.43" transform="translate(-6.612 -3.441)" fill="none" stroke="#878f9d" stroke-linecap="round" stroke-linejoin="round" stroke-width="1.2"/>
    <path id="Path_2831" data-name="Path 2831" d="M9.833,9.964a1.638,1.638,0,0,1,1.695-1.812c1.026.037,1.666.491,1.666,1.636,0,.818-.526,1.11-1.4,2.192s-1.958,2.4-1.958,2.4H13.34" transform="translate(0.426 0.382)" fill="none" stroke="#878f9d" stroke-linecap="round" stroke-linejoin="round" stroke-width="1.2"/>
    <path id="Path_2832" data-name="Path 2832" d="M16.844,9.96a1.643,1.643,0,0,1,1.87-1.841,1.546,1.546,0,0,1,1.695,1.549c0,1.578-2.338,1.607-2.338,1.607s2.338-.38,2.338,1.519a1.784,1.784,0,0,1-3.565,0" transform="translate(-0.359 0.371)" fill="none" stroke="#878f9d" stroke-linecap="round" stroke-linejoin="round" stroke-width="1.2"/>
  </g>
</svg>
