<svg xmlns="http://www.w3.org/2000/svg" width="24" height="24" viewBox="0 0 24 24">
  <g id="IconInfo16" transform="translate(4 4)">
    <g id="IconInfo16-2" data-name="IconInfo16" transform="translate(7.406 5.152)">
      <rect id="Rectangle_232" data-name="Rectangle 232" width="24" height="24" transform="translate(-11.406 -9.152)" fill="none" opacity="0"/>
      <path id="Union_33" data-name="Union 33" d="M23116.592,20985.848a6,6,0,1,1,6,6A6,6,0,0,1,23116.592,20985.848Zm1.2,0a4.8,4.8,0,1,0,4.8-4.8A4.807,4.807,0,0,0,23117.793,20985.848Zm4.209,2.42v-3a.6.6,0,0,1,1.2,0v3a.6.6,0,1,1-1.2,0Zm0-4.666a.6.6,0,1,1,.6.6A.6.6,0,0,1,23122,20983.6Z" transform="translate(-23122 -20983)" fill="#fc6a59"/>
    </g>
  </g>
</svg>
