<svg id="IconInsights24" xmlns="http://www.w3.org/2000/svg" width="24" height="24" viewBox="0 0 24 24">
  <g id="Rectangle_4017" data-name="Rectangle 4017" fill="#fff" stroke="#707070" stroke-width="1" opacity="0">
    <rect width="24" height="24" stroke="none"/>
    <rect x="0.5" y="0.5" width="23" height="23" fill="none"/>
  </g>
  <path id="Union_257" data-name="Union 257" d="M16412.381,23112.357a1,1,0,0,1-1-1v-1.729a5.777,5.777,0,1,1,5.254,0v1.729a1.006,1.006,0,0,1-1,1Zm-2.951-7.877a4.566,4.566,0,0,0,2.494,4.078l.654.336v2.264h2.854v-2.264l.65-.336a4.576,4.576,0,1,0-6.652-4.078Zm11.926,1.125a.6.6,0,1,1,0-1.205h1.049a.6.6,0,0,1,0,1.205Zm-15.754,0a.6.6,0,1,1,0-1.205h1.049a.6.6,0,0,1,0,1.205Zm2.783-5.371-.742-.742a.6.6,0,0,1,0-.846.592.592,0,0,1,.848,0l.742.742a.6.6,0,0,1-.424,1.02A.6.6,0,0,1,16408.385,23100.234Zm10.4-.006a.59.59,0,0,1,0-.846l.736-.742a.592.592,0,0,1,.848,0,.6.6,0,0,1,0,.846l-.742.742a.591.591,0,0,1-.424.174A.584.584,0,0,1,16418.785,23100.229Zm-5.383-2.574v-1.051a.6.6,0,1,1,1.2,0v1.051a.6.6,0,0,1-1.2,0Z" transform="translate(-16401.996 -23092)" fill="#003c51"/>
</svg>
