<svg id="IconAI16" xmlns="http://www.w3.org/2000/svg" width="16" height="16" viewBox="0 0 16 16">
  <g id="Rectangle_3996" data-name="Rectangle 3996" fill="#fff" stroke="#707070" stroke-width="1" opacity="0">
    <rect width="16" height="16" stroke="none"/>
    <rect x="0.5" y="0.5" width="15" height="15" fill="none"/>
  </g>
  <g id="Path_2987" data-name="Path 2987" transform="translate(2.844 9.242)" fill="#003c51" stroke-linecap="round" stroke-linejoin="round">
    <path d="M 1.618016362190247 2.336031913757324 C 1.534888863563538 2.228651285171509 1.444576025009155 2.129511833190918 1.348013997077942 2.039769172668457 C 1.44631826877594 1.936696529388428 1.53767204284668 1.824844598770142 1.621370911598206 1.706938982009888 C 1.706730127334595 1.827613234519958 1.796722888946533 1.937963485717773 1.890536427497864 2.037432670593262 C 1.79304027557373 2.12778115272522 1.701855182647705 2.227732419967651 1.618016362190247 2.336031913757324 Z" stroke="none"/>
    <path d="M 1.618016362190247 -4.291534423828125e-06 C 1.618016362190247 0.7734856605529785 2.342426300048828 2.085555553436279 3.23603630065918 2.085555553436279 C 2.342426300048828 2.085555553436279 1.618016362190247 3.019295692443848 1.618016362190247 4.171115398406982 C 1.618016362190247 3.019295692443848 0.893606424331665 2.085555553436279 -3.576278686523438e-06 2.085555553436279 C 0.893606424331665 2.085555553436279 1.618016362190247 0.8206255435943604 1.618016362190247 -4.291534423828125e-06 Z" stroke="none" fill="#003c51"/>
  </g>
  <path id="Path_2988" data-name="Path 2988" d="M.809,0h0A.949.949,0,0,1,0,1.043.949.949,0,0,1,.809,2.086a.949.949,0,0,1,.809-1.043A.949.949,0,0,1,.809,0" transform="translate(11.518 9.242)" fill="none" stroke="#003c51" stroke-linecap="round" stroke-linejoin="round" stroke-width="1.2"/>
  <path id="Path_2989" data-name="Path 2989" d="M3.178,0h0C3.178,2.262,1.755,4.1,0,4.1c1.755,0,3.178,1.834,3.178,4.1,0-2.262,1.423-4.1,3.178-4.1C4.6,4.1,3.178,2.262,3.178,0" transform="translate(4.822 2.338)" fill="none" stroke="#003c51" stroke-linecap="round" stroke-linejoin="round" stroke-width="1.2"/>
</svg>
