<svg id="IconAnnotate16" xmlns="http://www.w3.org/2000/svg" width="16" height="16" viewBox="0 0 16 16">
  <g id="Rectangle_4006" data-name="Rectangle 4006" fill="#fff" stroke="#707070" stroke-width="1" opacity="0">
    <rect width="16" height="16" stroke="none"/>
    <rect x="0.5" y="0.5" width="15" height="15" fill="none"/>
  </g>
  <g id="Group_4689" data-name="Group 4689">
    <g id="Union_251" data-name="Union 251" transform="translate(2.518 -0.262)" fill="none" stroke-linecap="round">
      <path d="M4.618,14.261H0l2.255-3.906-.219-.127a.909.909,0,0,1-.3-1.249L6.62,2.1a.908.908,0,0,1,1.23-.368L10.537,3.22a.908.908,0,0,1,.3,1.249L7.082,12.064a.91.91,0,0,1-1.23.368l-.133-.077-1.1,1.906Z" stroke="none"/>
      <path d="M 3.925858736038208 13.06140041351318 L 5.279650211334229 10.71576023101807 L 6.158761978149414 11.22329330444336 L 9.671464920043945 4.111924171447754 L 7.512344837188721 2.911930799484253 L 2.938087463378906 9.363801002502441 L 3.894070148468018 9.915760040283203 L 2.078271150588989 13.06140041351318 L 3.925858736038208 13.06140041351318 M 4.618800163269043 14.26140022277832 L 2.090454103154116e-07 14.26140022277832 L 2.254930257797241 10.35502052307129 L 2.035800218582153 10.22850036621094 C 1.61460018157959 9.985500335693359 1.482300162315369 9.425700187683105 1.739700198173523 8.979300498962402 L 6.620400428771973 2.095200061798096 C 6.878699779510498 1.647900581359863 7.429499626159668 1.483199715614319 7.850700378417969 1.727100133895874 L 10.53719997406006 3.220200061798096 C 10.95930004119873 3.463200092315674 11.09160041809082 4.023000240325928 10.83330059051514 4.469399929046631 L 7.082100391387939 12.06360054016113 C 6.823800563812256 12.50999927520752 6.273000240325928 12.67470359802246 5.851800441741943 12.43169975280762 L 5.719050407409668 12.35506057739258 L 4.618800163269043 14.26140022277832 Z" stroke="none" fill="#003c51"/>
    </g>
    <line id="Line_850" data-name="Line 850" x2="2" y2="1" transform="translate(5 11.5)" fill="none" stroke="#003c51" stroke-linecap="round" stroke-width="1"/>
  </g>
</svg>
