<svg id="IconBookmark24" xmlns="http://www.w3.org/2000/svg" width="24" height="24" viewBox="0 0 24 24">
  <g id="Rectangle_2575" data-name="Rectangle 2575" fill="#fff" stroke="#707070" stroke-width="1" opacity="0">
    <rect width="24" height="24" stroke="none"/>
    <rect x="0.5" y="0.5" width="23" height="23" fill="none"/>
  </g>
  <path id="Union_244" data-name="Union 244" d="M16411.611,23108.852a.6.6,0,0,1-.6-.6v-5.988c-.008-.086-.012-.176-.012-.264v-6a3,3,0,0,1,3-3h5.945a3,3,0,0,1,3,3v12.25a.6.6,0,0,1-.834.553l-5.131-2.186-5.135,2.186A.6.6,0,0,1,16411.611,23108.852Zm2.389-14.65a1.8,1.8,0,0,0-1.8,1.8v6a1.735,1.735,0,0,0,.01.176c0,.021,0,.041,0,.061v5.107l4.535-1.93a.609.609,0,0,1,.469,0l4.531,1.93V23096a1.8,1.8,0,0,0-1.8-1.8Z" transform="translate(-16405 -23089)" fill="#003c51"/>
</svg>
