<svg id="IconFolder16" xmlns="http://www.w3.org/2000/svg" width="16" height="16" viewBox="0 0 16 16">
  <g id="Rectangle_4055" data-name="Rectangle 4055" fill="#fff" stroke="#707070" stroke-width="1" opacity="0">
    <rect width="16" height="16" stroke="none"/>
    <rect x="0.5" y="0.5" width="15" height="15" fill="none"/>
  </g>
  <g id="Union_280" data-name="Union 280" transform="translate(-15206.502 -23195)" fill="#fff">
    <path d="M 15218.998046875 23207.400390625 L 15211.9970703125 23207.400390625 L 15209.9990234375 23207.400390625 C 15209.228515625 23207.400390625 15208.6015625 23206.716796875 15208.6015625 23205.875 L 15208.6015625 23199.490234375 C 15208.6015625 23198.6484375 15209.228515625 23197.96484375 15209.9990234375 23197.96484375 L 15212.9990234375 23197.96484375 C 15213.623046875 23197.96484375 15214.1328125 23198.49609375 15214.912109375 23199.36328125 L 15214.947265625 23199.40234375 L 15215.1259765625 23199.6015625 L 15215.3935546875 23199.6015625 L 15218.998046875 23199.6015625 C 15219.7724609375 23199.6015625 15220.40234375 23200.228515625 15220.40234375 23201 L 15220.40234375 23206.001953125 C 15220.40234375 23206.7734375 15219.7724609375 23207.400390625 15218.998046875 23207.400390625 Z" stroke="none"/>
    <path d="M 15218.998046875 23206.80078125 C 15219.44140625 23206.80078125 15219.8017578125 23206.44140625 15219.8017578125 23206.001953125 L 15219.8017578125 23201 C 15219.8017578125 23200.560546875 15219.44140625 23200.201171875 15218.998046875 23200.201171875 L 15214.8583984375 23200.201171875 L 15214.4658203125 23199.765625 C 15213.8876953125 23199.12109375 15213.3876953125 23198.564453125 15212.9990234375 23198.564453125 L 15209.9990234375 23198.564453125 C 15209.5595703125 23198.564453125 15209.2021484375 23198.98046875 15209.2021484375 23199.490234375 L 15209.2021484375 23205.875 C 15209.2021484375 23206.384765625 15209.5595703125 23206.80078125 15209.9990234375 23206.80078125 L 15218.998046875 23206.80078125 M 15218.998046875 23208 L 15209.9990234375 23208 C 15208.892578125 23208 15208.001953125 23207.044921875 15208.001953125 23205.875 L 15208.001953125 23199.490234375 C 15208.001953125 23198.3203125 15208.892578125 23197.365234375 15209.9990234375 23197.365234375 L 15212.9990234375 23197.365234375 C 15213.9365234375 23197.365234375 15214.5947265625 23198.11328125 15215.3935546875 23199.001953125 L 15218.998046875 23199.001953125 C 15220.1044921875 23199.001953125 15221.001953125 23199.892578125 15221.001953125 23201 L 15221.001953125 23206.001953125 C 15221.001953125 23207.103515625 15220.1044921875 23208 15218.998046875 23208 Z" stroke="none" fill="#003c51"/>
  </g>
</svg>
