<svg id="IconConsole16" xmlns="http://www.w3.org/2000/svg" width="16" height="16" viewBox="0 0 16 16">
  <g id="IconConsole16-2" data-name="IconConsole16" transform="translate(-0.001 0)">
    <rect id="Rectangle" width="16" height="16" transform="translate(0.001 0)" fill="rgba(216,216,216,0)" opacity="0"/>
    <path id="Union_166" data-name="Union 166" d="M21188,16862.678a2,2,0,0,1-2-2V16853a2,2,0,0,1,2-2h7.684a2,2,0,0,1,2,2v7.676a2,2,0,0,1-2,2Zm-.8-2a.8.8,0,0,0,.8.8h7.684a.8.8,0,0,0,.8-.8v-4.137a.528.528,0,0,1-.139.02h-9a.528.528,0,0,1-.139-.02Zm9.139-5.117a.458.458,0,0,1,.139.02V16853a.8.8,0,0,0-.8-.8H21188a.8.8,0,0,0-.8.8v2.578a.458.458,0,0,1,.139-.02Zm-5.277-1.139a.5.5,0,0,1,0-1h.777a.5.5,0,0,1,0,1Zm-2.34,0a.5.5,0,0,1,0-1h.781a.5.5,0,0,1,0,1Z" transform="translate(-21183.84 -16848.84)" fill="#003c51"/>
  </g>
</svg>
