<svg xmlns="http://www.w3.org/2000/svg" width="16" height="16" viewBox="0 0 16 16"><g transform="translate(2 2)"><rect width="16" height="16" transform="translate(-2 -2)" fill="rgba(216,216,216,0)"/><path d="M22730.266,20992.756l-1.93-1.8a.6.6,0,1,1,.816-.879l.918.861v-3.9a.6.6,0,1,1,1.2,0v3.9l.924-.863a.6.6,0,0,1,.816.879l-1.93,1.8a.6.6,0,0,1-.814,0Zm-4.336-4.871v-3.9l-.92.861a.6.6,0,0,1-.82-.879l1.934-1.8a.606.606,0,0,1,.816,0l1.928,1.8a.6.6,0,0,1-.816.879l-.924-.863v3.9a.6.6,0,1,1-1.2,0Z" transform="translate(-22722.602 -20981.602)" fill="#2a354b"/></g></svg>