<svg xmlns="http://www.w3.org/2000/svg" width="12" height="12" viewBox="0 0 12 12"><g transform="translate(-442 -416)"><rect width="12" height="12" transform="translate(442 416)" fill="none" opacity="0"/><path d="M-4003-3258a6.006,6.006,0,0,1-6-6,6.007,6.007,0,0,1,6-6,6.007,6.007,0,0,1,6,6A6.007,6.007,0,0,1-4003-3258Zm-1.889-8.49a.6.6,0,0,0-.425.176.6.6,0,0,0-.176.424.6.6,0,0,0,.176.425l1.466,1.467-1.466,1.466a.6.6,0,0,0-.176.424.6.6,0,0,0,.176.424.6.6,0,0,0,.425.176.6.6,0,0,0,.425-.176l1.466-1.466,1.466,1.466a.6.6,0,0,0,.425.176.6.6,0,0,0,.425-.176.6.6,0,0,0,0-.848l-1.467-1.466,1.467-1.467a.6.6,0,0,0,.176-.424.6.6,0,0,0-.176-.424.6.6,0,0,0-.425-.176.6.6,0,0,0-.425.176l-1.466,1.466-1.466-1.466A.6.6,0,0,0-4004.89-3266.49Z" transform="translate(4451 3686)" fill="#cf2f29"/></g></svg>