<svg id="IconClauses24" xmlns="http://www.w3.org/2000/svg" width="24" height="24" viewBox="0 0 24 24">
  <g id="Rectangle_4018" data-name="Rectangle 4018" fill="#fff" stroke="#707070" stroke-width="1" opacity="0">
    <rect width="24" height="24" stroke="none"/>
    <rect x="0.5" y="0.5" width="23" height="23" fill="none"/>
  </g>
  <g id="IconClauses24-2" data-name="IconClauses24">
    <g id="Rectangle_4018-2" data-name="Rectangle 4018" fill="#fff" stroke="#707070" stroke-width="1" opacity="0">
      <rect width="24" height="24" stroke="none"/>
      <rect x="0.5" y="0.5" width="23" height="23" fill="none"/>
    </g>
    <path id="Union_258" data-name="Union 258" d="M16414,23111a2,2,0,0,1,0-4h5a2,2,0,0,1,0,4Zm-.8-2a.8.8,0,0,0,.8.8h5a.8.8,0,1,0,0-1.6h-5A.8.8,0,0,0,16413.2,23109Zm-6.2,2a2,2,0,0,1,0-4h1.34a2,2,0,0,1,0,4Zm-.8-2a.8.8,0,0,0,.8.8h1.34a.8.8,0,0,0,0-1.6H16407A.8.8,0,0,0,16406.2,23109Zm.8-4a2,2,0,0,1,0-4h12a2,2,0,0,1,0,4Zm-.8-2a.8.8,0,0,0,.8.8h12a.8.8,0,0,0,0-1.6h-12A.8.8,0,0,0,16406.2,23103Zm11.467-4a2,2,0,1,1,0-4H16419a2,2,0,0,1,0,4Zm-.8-2a.8.8,0,0,0,.8.8H16419a.8.8,0,0,0,0-1.6h-1.334A.8.8,0,0,0,16416.863,23097Zm-9.865,2a2,2,0,0,1,0-4h5a2,2,0,0,1,0,4Zm-.8-2a.8.8,0,0,0,.8.8h5a.8.8,0,0,0,0-1.6h-5A.8.8,0,0,0,16406.2,23097Z" transform="translate(-16401 -23091)" fill="#003c51"/>
  </g>
</svg>
