<svg id="IconFilter16" xmlns="http://www.w3.org/2000/svg" width="16" height="16" viewBox="0 0 16 16">
  <g id="Group_73" data-name="Group 73">
    <rect id="Rectangle_231" data-name="Rectangle 231" width="16" height="16" fill="none"/>
    <path id="Rectangle" d="M0-.6H10a.6.6,0,0,1,.538.334.6.6,0,0,1-.06.63L7.267,4.58V8.889a.6.6,0,0,1-.41.569L3.523,10.569A.6.6,0,0,1,2.733,10V4.58L-.477.363a.6.6,0,0,1-.06-.63A.6.6,0,0,1,0-.6ZM8.789.6H1.211l2.6,3.414a.6.6,0,0,1,.123.363v4.79l2.133-.711V4.378a.6.6,0,0,1,.123-.363Z" transform="translate(3 3)" fill="#003c51"/>
  </g>
</svg>
