<svg xmlns="http://www.w3.org/2000/svg" width="24" height="24" viewBox="0 0 24 24"><g transform="translate(-0.001 0)"><rect width="24" height="24" transform="translate(0.001 0)" fill="rgba(216,216,216,0)"/><path d="M21661.229,16682.822a.473.473,0,0,1-.229-.289l-.082-.3a.473.473,0,0,1,.3-.57,2.737,2.737,0,0,0,1.865-2.371l.213-1.354a2.892,2.892,0,0,1,1.125-2.033,1.25,1.25,0,0,1-.131-.158,1.989,1.989,0,0,1-.385-1.088,3.466,3.466,0,0,1,.021-.729l.244-1.572a3.848,3.848,0,0,0,.033-.744,1.513,1.513,0,0,0-1.045-1.414.5.5,0,0,1-.271-.266.481.481,0,0,1,.01-.375l.131-.273a.473.473,0,0,1,.594-.244,2.845,2.845,0,0,1,1.3.93,2.789,2.789,0,0,1,.555,1.457v.012a4.941,4.941,0,0,1-.039,1.1l-.244,1.533a1.965,1.965,0,0,0-.016.561.622.622,0,0,0,.223.451,1.023,1.023,0,0,0,.609.191.476.476,0,0,1,.342.174.438.438,0,0,1,.1.363l-.055.42a.468.468,0,0,1-.445.406,1.3,1.3,0,0,0-.914.377,1.82,1.82,0,0,0-.461,1.027l-.225,1.441a3.9,3.9,0,0,1-2.756,3.381.488.488,0,0,1-.375-.037Zm-6.367.027a2.784,2.784,0,0,1-1.3-.914,2.745,2.745,0,0,1-.564-1.463,4.207,4.207,0,0,1,.027-1.049v-.006l.244-1.566a2.208,2.208,0,0,0,.021-.561c-.049-.326-.186-.625-.838-.658a.466.466,0,0,1-.342-.168.483.483,0,0,1-.1-.363l.055-.42a.472.472,0,0,1,.445-.408,1.351,1.351,0,0,0,.9-.348,1.916,1.916,0,0,0,.475-1.012l.223-1.484a3.935,3.935,0,0,1,2.768-3.408.5.5,0,0,1,.385.043.489.489,0,0,1,.225.32l.059.289a.473.473,0,0,1-.311.539,2.587,2.587,0,0,0-1.223.857,3.154,3.154,0,0,0-.609,1.469l-.223,1.441a2.9,2.9,0,0,1-1.125,2.039c.043.049.086.1.131.158a2.156,2.156,0,0,1,.391,1.086v.006a3.418,3.418,0,0,1-.033.729l-.238,1.557a2.558,2.558,0,0,0-.021.729,1.544,1.544,0,0,0,1.07,1.4.449.449,0,0,1,.271.283.473.473,0,0,1-.031.391l-.158.277a.474.474,0,0,1-.414.24A.548.548,0,0,1,21654.861,16682.85Zm1.9-3.2a.6.6,0,0,1,0-1.2h3.85a.6.6,0,0,1,0,1.2Z" transform="translate(-21647.232 -16663.939)" fill="#003c51"/></g></svg>