<svg id="IconDataTypeJson16" xmlns="http://www.w3.org/2000/svg" width="24" height="24" viewBox="0 0 24 24">
  <g id="IconDataTypeJson16-2" data-name="IconDataTypeJson16">
    <rect id="Rectangle" width="24" height="24" fill="#fff" opacity="0"/>
    <path id="Path_2213_-_Outline" data-name="Path 2213 - Outline" d="M5.044-3.284A2.006,2.006,0,0,0,3.5-1.046V.592A3.193,3.193,0,0,1,2.7,2.906,3.18,3.18,0,0,1,3.5,5.2V6.85a2.03,2.03,0,0,0,1.588,2.2" transform="translate(2.604 9.118)" fill="none" stroke="#878f9d" stroke-linecap="round" stroke-width="1.2"/>
    <path id="Path_2213_-_Outline-2" data-name="Path 2213 - Outline" d="M2.344,0A2.006,2.006,0,0,0,.805,2.238V3.876A3.193,3.193,0,0,1,0,6.19a3.18,3.18,0,0,1,.805,2.3v1.645a2.03,2.03,0,0,0,1.588,2.2" transform="translate(18.696 18.166) rotate(180)" fill="none" stroke="#878f9d" stroke-linecap="round" stroke-width="1.2"/>
  </g>
</svg>
