<svg id="IconDocumentProcessed24" xmlns="http://www.w3.org/2000/svg" width="24" height="24" viewBox="0 0 24 24">
  <g id="Rectangle_3557" data-name="Rectangle 3557" fill="#fff" stroke="#707070" stroke-width="1" opacity="0">
    <rect width="24" height="24" stroke="none"/>
    <rect x="0.5" y="0.5" width="23" height="23" fill="none"/>
  </g>
  <path id="Union_227" data-name="Union 227" d="M9445.767,17299.578a.678.678,0,0,0-.882-.156,1.2,1.2,0,0,1-1.229.018,1.217,1.217,0,0,1-.616-1.082v-.018a.676.676,0,0,0-.578-.672,1.208,1.208,0,0,1-1.028-1.2,1.2,1.2,0,0,1,.3-.8.7.7,0,0,0,.169-.447.682.682,0,0,0-.169-.451,1.217,1.217,0,0,1,.729-2,.678.678,0,0,0,.578-.674v-.012a1.215,1.215,0,0,1,.616-1.086,1.2,1.2,0,0,1,1.229.018.68.68,0,0,0,.882-.156,1.218,1.218,0,0,1,2.1.373.684.684,0,0,0,.776.447,1.208,1.208,0,0,1,1.368,1.633.667.667,0,0,0-.043.242.677.677,0,0,0,.352.6,1.219,1.219,0,0,1,0,2.133.691.691,0,0,0-.309.842,1.2,1.2,0,0,1,.087.443,1.219,1.219,0,0,1-1.455,1.189.678.678,0,0,0-.776.451,1.223,1.223,0,0,1-.942.8,1.1,1.1,0,0,1-.211.02A1.234,1.234,0,0,1,9445.767,17299.578Zm.938-.756c0,.008,0,.008.013.008s.014,0,.014-.008a1.89,1.89,0,0,1,2.145-1.242c.009,0,.009,0,.013,0a.008.008,0,0,0,.009-.008v-.01a1.827,1.827,0,0,1-.13-.682,1.877,1.877,0,0,1,.977-1.645c.009-.006.009-.006.009-.014s0-.014-.009-.018a1.875,1.875,0,0,1-.977-1.65,1.829,1.829,0,0,1,.13-.678v-.008s0,0-.009-.014,0,0-.013,0a1.89,1.89,0,0,1-2.145-1.236c0-.01,0-.014-.014-.014s-.008,0-.013,0a1.891,1.891,0,0,1-2.439.436c0-.006-.009-.01-.018,0s-.009,0-.009.008v.043a1.872,1.872,0,0,1-1.594,1.859c-.009,0-.013.008-.013.018s0,0,0,.008a1.884,1.884,0,0,1,0,2.479c0,.006,0,.006,0,.01s0,.018.013.018a1.865,1.865,0,0,1,1.594,1.9c0,.01,0,.014.009.018h.018a1.88,1.88,0,0,1,2.439.426Zm-12.1-.187a4.6,4.6,0,0,1-4.6-4.6v-8.936a4.6,4.6,0,0,1,4.6-4.6h7.681a4.606,4.606,0,0,1,4.6,4.6v2.479a.6.6,0,0,1-1.2,0v-2.479a3.4,3.4,0,0,0-3.4-3.4H9434.6a3.4,3.4,0,0,0-3.4,3.4v8.936a3.406,3.406,0,0,0,3.4,3.4h4.276a.6.6,0,1,1,0,1.2Zm9.813-3.42a1.682,1.682,0,1,1,1.685,1.68A1.686,1.686,0,0,1,9444.412,17295.215Zm1.2,0a.484.484,0,1,0,.486-.482A.484.484,0,0,0,9445.61,17295.215Zm-8.731-1.512h0Zm-.6-.4a.6.6,0,0,1,0-1.2h2.506a.6.6,0,0,1,0,1.2Zm.6-2.736h0Zm-.6-.4a.6.6,0,0,1,0-1.2h4.563a.6.6,0,1,1,0,1.2Zm.6-2.744h0Zm-.6-.4a.6.6,0,1,1,0-1.2h4.563a.6.6,0,1,1,0,1.2Z" transform="translate(-9428.477 -17278.266)" fill="#003c51"/>
</svg>
