<svg xmlns="http://www.w3.org/2000/svg" viewBox="0 0 32 32"><g transform="translate(6 6)"><rect width="32" height="32" transform="translate(-6 -6)" fill="#fff" opacity="0"/><circle cx="1.5" cy="1.5" r="1.5" transform="translate(8.5 0.75)" fill="#2a354b"/><g transform="translate(-21705.5 -16451.75)" fill="none" stroke-miterlimit="10"><path d="M21710,16468.277V16459h.023a5.5,5.5,0,0,1,10.955,0h.023v9.279Z" stroke="none"/><path d="M 21719.6015625 16466.876953125 L 21719.6015625 16459.3203125 L 21719.583984375 16459.125 C 21719.4921875 16458.111328125 21719.02734375 16457.171875 21718.271484375 16456.48046875 C 21717.513671875 16455.783203125 21716.529296875 16455.400390625 21715.5 16455.400390625 C 21714.470703125 16455.400390625 21713.486328125 16455.783203125 21712.728515625 16456.48046875 C 21711.974609375 16457.171875 21711.509765625 16458.111328125 21711.41796875 16459.125 L 21711.400390625 16459.3203125 L 21711.400390625 16466.876953125 L 21719.6015625 16466.876953125 M 21721.001953125 16468.27734375 L 21710 16468.27734375 L 21710 16458.998046875 L 21710.0234375 16458.998046875 C 21710.27734375 16456.197265625 21712.6328125 16454 21715.5 16454 C 21718.3671875 16454 21720.724609375 16456.197265625 21720.978515625 16458.998046875 L 21721.001953125 16458.998046875 L 21721.001953125 16468.27734375 Z" stroke="none" fill="#2a354b"/></g><path d="M4,2A2,2,0,0,1,0,2" transform="translate(8 15.25)" fill="#2a354b"/><line x2="13" transform="translate(3.5 15.851)" fill="none" stroke="#2a354b" stroke-linecap="round" stroke-width="1.4"/></g></svg>