<svg id="IconDocument24" xmlns="http://www.w3.org/2000/svg" width="24" height="24" viewBox="0 0 24 24">
  <g id="Rectangle_3558" data-name="Rectangle 3558" fill="#fff" stroke="#707070" stroke-width="1" opacity="0">
    <rect width="24" height="24" stroke="none"/>
    <rect x="0.5" y="0.5" width="23" height="23" fill="none"/>
  </g>
  <path id="Union_195" data-name="Union 195" d="M9400,17298.938a4,4,0,0,1-4-4V17285a4,4,0,0,1,4-4h8.683a4,4,0,0,1,4,4v9.934a4,4,0,0,1-4,4Zm-2.8-13.937v9.934a2.8,2.8,0,0,0,2.8,2.8h8.683a2.8,2.8,0,0,0,2.8-2.8V17285a2.8,2.8,0,0,0-2.8-2.8H9400A2.8,2.8,0,0,0,9397.2,17285Zm5.084,8.705a.6.6,0,1,1,0-1.2h4.559a.6.6,0,1,1,0,1.2Zm0-3.135a.6.6,0,1,1,0-1.2h4.559a.6.6,0,1,1,0,1.2Zm0-3.143a.6.6,0,1,1,0-1.2h4.559a.6.6,0,1,1,0,1.2Z" transform="translate(-9392.34 -17278)" fill="#003c51"/>
</svg>
