<svg id="IconAdvancedSearch24" xmlns="http://www.w3.org/2000/svg" width="24" height="24" viewBox="0 0 24 24">
  <rect id="Rectangle_230" data-name="Rectangle 230" width="24" height="24" fill="none"/>
  <path id="Union_243" data-name="Union 243" d="M15753.37,23208.5l-2.594-2.594a9.021,9.021,0,1,1,1-.984l2.581,2.588a.7.7,0,0,1-.5,1.193A.726.726,0,0,1,15753.37,23208.5ZM15737.4,23199a7.6,7.6,0,1,0,7.6-7.6A7.609,7.609,0,0,0,15737.4,23199Zm7.764,5.16a1.648,1.648,0,0,0-2.138-.379.794.794,0,0,1-1.205-.693,1.65,1.65,0,0,0-1.393-1.666.794.794,0,0,1-.676-.785.786.786,0,0,1,.2-.52,1.64,1.64,0,0,0,0-2.172.8.8,0,0,1,.478-1.3,1.647,1.647,0,0,0,1.393-1.66.8.8,0,0,1,1.205-.7,1.646,1.646,0,0,0,2.138-.373.792.792,0,0,1,1.369.24,1.647,1.647,0,0,0,1.881,1.082.794.794,0,0,1,.892,1.066,1.645,1.645,0,0,0,.745,2.039.8.8,0,0,1,0,1.393,1.643,1.643,0,0,0-.745,2.037.793.793,0,0,1-.892,1.066,1.648,1.648,0,0,0-1.881,1.084.794.794,0,0,1-.756.539A.784.784,0,0,1,15745.163,23204.162Zm.448-1.479a3.047,3.047,0,0,1,2.19-1.266c-.006-.08-.006-.162-.006-.244a3.058,3.058,0,0,0,0-4.281c0-.082,0-.162.006-.244a3.044,3.044,0,0,1-2.19-1.264,3.1,3.1,0,0,1-2.5.441,2.192,2.192,0,0,0-1.352,3.205,3.061,3.061,0,0,1-.279,1.27,3.025,3.025,0,0,1,1.631,1.945,3.065,3.065,0,0,1,2.5.438Zm-1.619-3.646a1.116,1.116,0,1,1,1.113,1.111A1.113,1.113,0,0,1,15743.992,23199.037Z" transform="translate(-15733.283 -23187.352)" fill="#003c51"/>
</svg>
