<svg xmlns="http://www.w3.org/2000/svg" width="16" height="16" viewBox="0 0 16 16"><g transform="translate(4 2.607)"><rect width="16" height="16" transform="translate(-4 -2.607)" fill="none" opacity="0"/><path d="M18774.2,20936.191a.6.6,0,1,1,0-1.2h1.4v-1.4a.6.6,0,0,1,1.2,0v2a.6.6,0,0,1-.6.6Zm-7.2,0a.6.6,0,0,1-.6-.6v-2a.6.6,0,1,1,1.2,0v1.4h1.4a.6.6,0,0,1,0,1.2Zm8.6-7.8v-1.4h-1.4a.6.6,0,0,1,0-1.2h2a.6.6,0,0,1,.6.6v2a.6.6,0,0,1-1.2,0Zm-9.2,0v-2a.6.6,0,0,1,.6-.6h2a.6.6,0,0,1,0,1.2h-1.4v1.4a.6.6,0,1,1-1.2,0Z" transform="translate(20934.994 -18766.209) rotate(90)" fill="#003c51"/></g></svg>