<svg xmlns="http://www.w3.org/2000/svg" width="24" height="24" viewBox="0 0 24 24"><g transform="translate(-0.001 0)"><rect width="24" height="24" transform="translate(0.001 0)" fill="rgba(216,216,216,0)" opacity="0"/><path d="M20632,16750a4,4,0,0,1-4-4v-7a4,4,0,0,1,4-4h7a4,4,0,0,1,4,4v7a4,4,0,0,1-4,4Zm-2.8-4a2.807,2.807,0,0,0,2.8,2.8h7a2.8,2.8,0,0,0,2.8-2.8v-4h-12.6Zm12.6-5v-2a2.8,2.8,0,0,0-2.8-2.8h-7a2.8,2.8,0,0,0-2.8,2.8v2Zm-7.3-1.75a.5.5,0,0,1,0-1h1a.5.5,0,1,1,0,1Zm-3,0a.5.5,0,0,1,0-1h1a.5.5,0,1,1,0,1Z" transform="translate(-20623.5 -16730.25)" fill="#003c51"/></g></svg>