<svg id="IconINprogress24" xmlns="http://www.w3.org/2000/svg" width="24" height="24" viewBox="0 0 24 24">
  <g id="Rectangle_4060" data-name="Rectangle 4060" fill="#003c51" stroke="#707070" stroke-width="1" opacity="0">
    <rect width="24" height="24" stroke="none"/>
    <rect x="0.5" y="0.5" width="23" height="23" fill="none"/>
  </g>
  <path id="Union_281" data-name="Union 281" d="M8.6,17.2h0a8.661,8.661,0,0,1-2.128-.265.6.6,0,0,1,.3-1.163A7.442,7.442,0,0,0,8.6,16h0c.175,0,.352-.006.526-.018a.6.6,0,0,1,.641.556c0,.014,0,.029,0,.043a.6.6,0,0,1-.558.6c-.2.014-.406.022-.609.022Zm1.955-.817a.6.6,0,0,1,.381-.759,7.4,7.4,0,0,0,1.663-.8.6.6,0,0,1,.83.18.593.593,0,0,1,.1.324.6.6,0,0,1-.275.5,8.557,8.557,0,0,1-1.935.926.6.6,0,0,1-.759-.38Zm-6.08-.235a8.628,8.628,0,0,1-1.738-1.255.6.6,0,0,1,.818-.878,7.471,7.471,0,0,0,1.5,1.081.6.6,0,1,1-.576,1.052Zm-3.113-2.9a8.576,8.576,0,0,1-.926-1.935.6.6,0,1,1,1.139-.378,7.363,7.363,0,0,0,.8,1.663.6.6,0,0,1-1.01.65Zm14.674-2.929L13.825,8.107a.6.6,0,1,1,.848-.849L16,8.584A7.408,7.408,0,0,0,8.6,1.2c-.175,0-.352.006-.526.018a.6.6,0,0,1-.64-.556.34.34,0,0,1,0-.042.6.6,0,0,1,.558-.6C8.192.007,8.4,0,8.6,0a8.611,8.611,0,0,1,8.6,8.314L18.25,7.259a.6.6,0,0,1,.849.849l-2.213,2.212a.6.6,0,0,1-.849,0ZM.021,9.209C.007,9.007,0,8.8,0,8.6A8.661,8.661,0,0,1,.265,6.472a.6.6,0,0,1,1.164.3A7.4,7.4,0,0,0,1.2,8.6c0,.175.006.352.018.526a.6.6,0,0,1-.556.641H.619A.6.6,0,0,1,.021,9.209ZM1.29,5.29a.6.6,0,0,1-.238-.815A8.628,8.628,0,0,1,2.307,2.738a.6.6,0,1,1,.878.818A7.471,7.471,0,0,0,2.1,5.052a.6.6,0,0,1-.814.239Zm2.482-3.1a.6.6,0,0,1,.179-.83A8.594,8.594,0,0,1,5.886.437a.6.6,0,1,1,.378,1.139,7.363,7.363,0,0,0-1.663.8.6.6,0,0,1-.829-.18Z" transform="translate(3 3)" fill="#003c51"/>
</svg>
