<svg xmlns="http://www.w3.org/2000/svg" width="24" height="24" viewBox="0 0 24 24"><g transform="translate(0 0)"><rect width="24" height="24" transform="translate(0 0)" fill="rgba(216,216,216,0)"/><path d="M2,15a2,2,0,0,1-2-2V2A1.994,1.994,0,0,1,2,0h9a2,2,0,0,1,2,2V13a2,2,0,0,1-2,2ZM1.2,2V13a.8.8,0,0,0,.8.8h9a.8.8,0,0,0,.8-.8V2a.8.8,0,0,0-.8-.8H2A.8.8,0,0,0,1.2,2ZM3.582,12.1a.6.6,0,0,1,0-1.2H9.4a.6.6,0,0,1,0,1.2ZM5.9,8.863V5.918a.6.6,0,1,1,1.2,0V8.863a.6.6,0,0,1-1.2,0Zm0-4.826V3.605a.6.6,0,0,1,1.2,0v.432a.6.6,0,0,1-1.2,0Z" transform="translate(5.502 4.752)" fill="#003c51"/></g></svg>