<svg id="IconDataTypeString16" xmlns="http://www.w3.org/2000/svg" width="24" height="24" viewBox="0 0 24 24">
  <g id="IconDataTypeString16-2" data-name="IconDataTypeString16">
    <rect id="Rectangle" width="24" height="24" fill="#fff" opacity="0"/>
    <path id="Path_2826" data-name="Path 2826" d="M4928.166,3468.419l2.293-6.114,2.14,6.114" transform="translate(-4924.791 -3453.555)" fill="none" stroke="#878f9d" stroke-linecap="round" stroke-linejoin="round" stroke-width="1.2"/>
    <path id="Path_2827" data-name="Path 2827" d="M4929.038,3467.188h3.019" transform="translate(-4924.899 -3454.159)" fill="none" stroke="#878f9d" stroke-width="1.2"/>
    <path id="Path_2828" data-name="Path 2828" d="M4929.038,3466.778h1.456c1.411,0,2.087.631,2.087,1.42,0,1.148-.748,1.583-2.087,1.583h-1.456v-5.914h1.456c1.113,0,1.914.5,1.931,1.391s-.853,1.519-1.931,1.519" transform="translate(-4918.765 -3454.789)" fill="none" stroke="#878f9d" stroke-linecap="round" stroke-linejoin="round" stroke-width="1.2"/>
    <path id="Path_2829" data-name="Path 2829" d="M4947.146,3464.567a1.873,1.873,0,0,0-2-1.948,2.127,2.127,0,0,0-2.069,2.174v1.7a2.273,2.273,0,0,0,2.069,2.156,1.861,1.861,0,0,0,2-2.035" transform="translate(-4926.635 -3453.594)" fill="none" stroke="#878f9d" stroke-linecap="round" stroke-width="1.2"/>
  </g>
</svg>
