<svg xmlns="http://www.w3.org/2000/svg" width="24" height="24" viewBox="0 0 24 24"><rect width="24" height="24" fill="#fff" opacity="0"/><path d="M-4610.905-3438.495a1.832,1.832,0,0,0-2.368-.418,1.747,1.747,0,0,1-1.783.028,1.743,1.743,0,0,1-.9-1.577,1.818,1.818,0,0,0-1.546-1.842,1.761,1.761,0,0,1-1.5-1.751,1.762,1.762,0,0,1,.438-1.159,1.821,1.821,0,0,0,.452-1.2,1.821,1.821,0,0,0-.452-1.2,1.762,1.762,0,0,1-.438-1.159,1.763,1.763,0,0,1,1.5-1.753,1.816,1.816,0,0,0,1.546-1.842,1.745,1.745,0,0,1,.9-1.576,1.746,1.746,0,0,1,1.783.028,1.832,1.832,0,0,0,2.368-.417,1.745,1.745,0,0,1,1.685-.633,1.747,1.747,0,0,1,1.367,1.171,1.829,1.829,0,0,0,2.082,1.2,1.756,1.756,0,0,1,1.462.365,1.763,1.763,0,0,1,.65,1.365,1.776,1.776,0,0,1-.121.642,1.809,1.809,0,0,0-.124.659,1.828,1.828,0,0,0,.946,1.6,1.744,1.744,0,0,1,.917,1.549,1.746,1.746,0,0,1-.917,1.549,1.828,1.828,0,0,0-.946,1.6,1.8,1.8,0,0,0,.124.658,1.78,1.78,0,0,1,.121.642,1.762,1.762,0,0,1-.65,1.366,1.755,1.755,0,0,1-1.462.365,1.831,1.831,0,0,0-2.082,1.2,1.747,1.747,0,0,1-1.367,1.171,1.831,1.831,0,0,1-.317.028A1.742,1.742,0,0,1-4610.905-3438.495Zm1.091-.877a.344.344,0,0,0,.35.131.346.346,0,0,0,.285-.243,3.234,3.234,0,0,1,3.678-2.124.362.362,0,0,0,.3-.074.359.359,0,0,0,.112-.42,3.215,3.215,0,0,1-.219-1.165,3.226,3.226,0,0,1,1.672-2.827.347.347,0,0,0,.191-.322.346.346,0,0,0-.191-.322,3.227,3.227,0,0,1-1.672-2.827,3.21,3.21,0,0,1,.219-1.165.36.36,0,0,0-.112-.421.361.361,0,0,0-.3-.073,3.235,3.235,0,0,1-3.678-2.124.349.349,0,0,0-.285-.245.347.347,0,0,0-.35.132,3.235,3.235,0,0,1-4.184.737.353.353,0,0,0-.371-.006.344.344,0,0,0-.187.319v.009a3.207,3.207,0,0,1-2.731,3.255.361.361,0,0,0-.312.369.361.361,0,0,0,.091.237,3.229,3.229,0,0,1,.8,2.125,3.225,3.225,0,0,1-.8,2.124.365.365,0,0,0-.091.238.361.361,0,0,0,.312.369,3.208,3.208,0,0,1,2.732,3.187c0,.022,0,.045,0,.068v.009a.342.342,0,0,0,.188.318.349.349,0,0,0,.371-.006,3.2,3.2,0,0,1,1.663-.463A3.231,3.231,0,0,1-4609.814-3439.372Zm-3.85-7.045a2.939,2.939,0,0,1,2.935-2.936,2.939,2.939,0,0,1,2.935,2.936,2.939,2.939,0,0,1-2.935,2.935A2.939,2.939,0,0,1-4613.664-3446.417Zm1.2,0a1.737,1.737,0,0,0,1.735,1.735,1.737,1.737,0,0,0,1.735-1.735,1.736,1.736,0,0,0-1.735-1.735A1.736,1.736,0,0,0-4612.464-3446.417Z" transform="translate(4622.521 3458.415)" fill="#003c51"/></svg>