<svg xmlns="http://www.w3.org/2000/svg" viewBox="0 0 16 16"><g transform="translate(2.5 3.5)"><g transform="translate(0 0)" fill="none" stroke-linejoin="round" stroke-miterlimit="10"><rect width="16" height="16" fill="#fff" opacity="0"/><path d="M0,.72A.74.74,0,0,1,.759,0H3.081a.786.786,0,0,1,.455.144l1.5,1.066a.786.786,0,0,0,.455.144h4.751a.74.74,0,0,1,.759.72V8.28a.74.74,0,0,1-.759.72H.759A.74.74,0,0,1,0,8.28Z" stroke="none"/><path d="M 1.199999809265137 1.199999809265137 L 1.199999809265137 7.800000190734863 L 9.800000190734863 7.800000190734863 L 9.800000190734863 2.553380012512207 L 5.490600109100342 2.553380012512207 C 5.074930191040039 2.553380012512207 4.677380084991455 2.427030086517334 4.340909957885742 2.187980175018311 L 2.950424194335938 1.199999809265137 L 1.199999809265137 1.199999809265137 M 0.7586202621459961 0 L 3.080830097198486 0 C 3.244740009307861 0 3.404250144958496 0.05039024353027344 3.535470008850098 0.1436195373535156 L 5.03596019744873 1.209760189056396 C 5.167180061340332 1.302989959716797 5.326690196990967 1.35338020324707 5.490600109100342 1.35338020324707 L 10.241379737854 1.35338020324707 C 10.66034984588623 1.35338020324707 11 1.675739765167236 11 2.073379993438721 L 11 8.279999732971191 C 11 8.677650451660156 10.66034984588623 9 10.241379737854 9 L 0.7586202621459961 9 C 0.3396501541137695 9 0 8.677650451660156 0 8.279999732971191 L 0 0.7200002670288086 C 0 0.3223600387573242 0.3396501541137695 0 0.7586202621459961 0 Z" stroke="none" fill="#2a354b"/></g></g></svg>