<svg xmlns="http://www.w3.org/2000/svg" width="24" height="24" viewBox="0 0 24 24"><rect width="24" height="24" fill="#fff" opacity="0"/><g transform="translate(18.5 6) rotate(90)" fill="none"><path d="M5.122,1.609a1,1,0,0,1,1.756,0l4.315,7.912A1,1,0,0,1,10.315,11H1.685A1,1,0,0,1,.807,9.521Z" stroke="none"/><path d="M 6.000001907348633 2.505989074707031 L 2.021449089050293 9.799995422363281 L 9.978541374206543 9.799995422363281 L 6.000001907348633 2.505989074707031 M 6 1.08833122253418 C 6.344194889068604 1.08833122253418 6.688389778137207 1.262045860290527 6.877900123596191 1.609476089477539 L 11.19334983825684 9.521145820617676 C 11.55683040618896 10.18752574920654 11.07452011108398 10.99999618530273 10.31546020507812 10.99999618530273 L 1.684539794921875 10.99999618530273 C 0.9254798889160156 10.99999618530273 0.4431695938110352 10.18752574920654 0.8066501617431641 9.521145820617676 L 5.122099876403809 1.609476089477539 C 5.311610221862793 1.262045860290527 5.655805110931396 1.08833122253418 6 1.08833122253418 Z" stroke="none" fill="#003c51"/></g></svg>