<svg id="IconEscalarte24" xmlns="http://www.w3.org/2000/svg" width="24" height="24" viewBox="0 0 24 24">
  <g id="Rectangle_3453" data-name="Rectangle 3453" fill="#003c51" stroke="#707070" stroke-width="1" opacity="0">
    <rect width="24" height="24" stroke="none"/>
    <rect x="0.5" y="0.5" width="23" height="23" fill="none"/>
  </g>
  <path id="Path_2948" data-name="Path 2948" d="M11.221,6.087H11.2L-.026,5.6A.6.6,0,0,1-.582,5.15a.6.6,0,0,1,.275-.662L3.666,2.123,2.685.282a.6.6,0,0,1,.02-.6A.6.6,0,0,1,3.232-.6L14.38-.271A.6.6,0,0,1,14.655.853L10.749,3.031l1.017,2.2a.6.6,0,0,1-.545.851ZM2.035,4.49l8.229.355L9.426,3.029a.6.6,0,0,1,.253-.775L12.17.865,4.23.63l.764,1.434a.6.6,0,0,1-.223.8Z" transform="translate(4.5 13.681) rotate(-30)" fill="#003c51"/>
</svg>
