<svg id="IconDragHandle16" xmlns="http://www.w3.org/2000/svg" width="16" height="16" viewBox="0 0 16 16">
  <g id="IconDragHandle16-2" data-name="IconDragHandle16">
    <rect id="Rectangle_231" data-name="Rectangle 231" width="16" height="16" fill="none"/>
    <g id="Union_56" data-name="Union 56" transform="translate(-23927 -20877)" fill="#fff">
      <path d="M 23937.001953125 20889.501953125 C 23936.724609375 20889.501953125 23936.498046875 20889.275390625 23936.498046875 20888.998046875 C 23936.498046875 20888.72265625 23936.724609375 20888.5 23937.001953125 20888.5 C 23937.27734375 20888.5 23937.5 20888.72265625 23937.5 20888.998046875 C 23937.5 20889.275390625 23937.27734375 20889.501953125 23937.001953125 20889.501953125 Z M 23933 20889.501953125 C 23932.72265625 20889.501953125 23932.498046875 20889.275390625 23932.498046875 20888.998046875 C 23932.498046875 20888.72265625 23932.72265625 20888.5 23933 20888.5 C 23933.275390625 20888.5 23933.498046875 20888.72265625 23933.498046875 20888.998046875 C 23933.498046875 20889.275390625 23933.275390625 20889.501953125 23933 20889.501953125 Z M 23937.001953125 20885.5 C 23936.724609375 20885.5 23936.498046875 20885.27734375 23936.498046875 20885.001953125 C 23936.498046875 20884.724609375 23936.724609375 20884.5 23937.001953125 20884.5 C 23937.27734375 20884.5 23937.5 20884.724609375 23937.5 20885.001953125 C 23937.5 20885.27734375 23937.27734375 20885.5 23937.001953125 20885.5 Z M 23933 20885.5 C 23932.72265625 20885.5 23932.498046875 20885.27734375 23932.498046875 20885.001953125 C 23932.498046875 20884.724609375 23932.72265625 20884.5 23933 20884.5 C 23933.275390625 20884.5 23933.498046875 20884.724609375 23933.498046875 20885.001953125 C 23933.498046875 20885.27734375 23933.275390625 20885.5 23933 20885.5 Z M 23937.001953125 20881.5 C 23936.724609375 20881.5 23936.498046875 20881.27734375 23936.498046875 20881.001953125 C 23936.498046875 20880.724609375 23936.724609375 20880.498046875 23937.001953125 20880.498046875 C 23937.27734375 20880.498046875 23937.5 20880.724609375 23937.5 20881.001953125 C 23937.5 20881.27734375 23937.27734375 20881.5 23937.001953125 20881.5 Z M 23933 20881.5 C 23932.72265625 20881.5 23932.498046875 20881.27734375 23932.498046875 20881.001953125 C 23932.498046875 20880.724609375 23932.72265625 20880.498046875 23933 20880.498046875 C 23933.275390625 20880.498046875 23933.498046875 20880.724609375 23933.498046875 20881.001953125 C 23933.498046875 20881.27734375 23933.275390625 20881.5 23933 20881.5 Z" stroke="none"/>
      <path d="M 23937.001953125 20890.001953125 C 23936.44921875 20890.001953125 23935.998046875 20889.55078125 23935.998046875 20888.998046875 C 23935.998046875 20888.4453125 23936.44921875 20888 23937.001953125 20888 C 23937.5546875 20888 23938 20888.4453125 23938 20888.998046875 C 23938 20889.55078125 23937.5546875 20890.001953125 23937.001953125 20890.001953125 Z M 23933 20890.001953125 C 23932.447265625 20890.001953125 23931.998046875 20889.55078125 23931.998046875 20888.998046875 C 23931.998046875 20888.4453125 23932.447265625 20888 23933 20888 C 23933.552734375 20888 23933.998046875 20888.4453125 23933.998046875 20888.998046875 C 23933.998046875 20889.55078125 23933.552734375 20890.001953125 23933 20890.001953125 Z M 23937.001953125 20886 C 23936.44921875 20886 23935.998046875 20885.5546875 23935.998046875 20885.001953125 C 23935.998046875 20884.451171875 23936.44921875 20884 23937.001953125 20884 C 23937.5546875 20884 23938 20884.451171875 23938 20885.001953125 C 23938 20885.5546875 23937.5546875 20886 23937.001953125 20886 Z M 23933 20886 C 23932.447265625 20886 23931.998046875 20885.5546875 23931.998046875 20885.001953125 C 23931.998046875 20884.451171875 23932.447265625 20884 23933 20884 C 23933.552734375 20884 23933.998046875 20884.451171875 23933.998046875 20885.001953125 C 23933.998046875 20885.5546875 23933.552734375 20886 23933 20886 Z M 23937.001953125 20882 C 23936.44921875 20882 23935.998046875 20881.5546875 23935.998046875 20881.001953125 C 23935.998046875 20880.44921875 23936.44921875 20879.998046875 23937.001953125 20879.998046875 C 23937.5546875 20879.998046875 23938 20880.44921875 23938 20881.001953125 C 23938 20881.5546875 23937.5546875 20882 23937.001953125 20882 Z M 23933 20882 C 23932.447265625 20882 23931.998046875 20881.5546875 23931.998046875 20881.001953125 C 23931.998046875 20880.44921875 23932.447265625 20879.998046875 23933 20879.998046875 C 23933.552734375 20879.998046875 23933.998046875 20880.44921875 23933.998046875 20881.001953125 C 23933.998046875 20881.5546875 23933.552734375 20882 23933 20882 Z" stroke="none" fill="#2a354b"/>
    </g>
  </g>
</svg>
