<svg id="IconHistory16" xmlns="http://www.w3.org/2000/svg" width="16" height="16" viewBox="0 0 16 16">
  <rect id="Rectangle_2388" data-name="Rectangle 2388" width="16" height="16" fill="#003c51" opacity="0"/>
  <path id="Ellipse_152" data-name="Ellipse 152" d="M6,1.2A4.8,4.8,0,1,0,10.8,6,4.805,4.805,0,0,0,6,1.2M6,0A6,6,0,1,1,0,6,6,6,0,0,1,6,0Z" transform="translate(2 2)" fill="#003c51"/>
  <path id="Path_2330" data-name="Path 2330" d="M-21225.975,10846.632a.585.585,0,0,1-.285-.073l-1.918-1.039a.6.6,0,0,1-.314-.527v-3a.6.6,0,0,1,.6-.6.6.6,0,0,1,.6.6v2.638l1.6.869a.6.6,0,0,1,.242.813A.6.6,0,0,1-21225.975,10846.632Z" transform="translate(21235.893 -10836.918)" fill="#003c51"/>
</svg>
