<svg id="IconHistory24" xmlns="http://www.w3.org/2000/svg" width="24" height="24" viewBox="0 0 24 24">
  <g id="IconHistory24-2" data-name="IconHistory24">
    <g id="Rectangle_3456" data-name="Rectangle 3456" fill="#003c51" stroke="#707070" stroke-width="1" opacity="0">
      <rect width="24" height="24" stroke="none"/>
      <rect x="0.5" y="0.5" width="23" height="23" fill="none"/>
    </g>
    <path id="Union_211" data-name="Union 211" d="M9675.922,17291.7a.6.6,0,0,1-.285-.072l-2.322-1.32a.6.6,0,0,1-.314-.527v-4.182a.6.6,0,1,1,1.2,0v3.824l2.008,1.15a.6.6,0,0,1-.285,1.127Z" transform="translate(-9661.6 -17277.598)" fill="#003c51"/>
    <path id="Path_1885" data-name="Path 1885" d="M1.48,2.161a5.984,5.984,0,0,0-1.48,4A6.164,6.164,0,1,0,6.164,0" transform="translate(6.396 18.165) rotate(-90)" fill="none" stroke="#003c51" stroke-linecap="round" stroke-linejoin="round" stroke-width="1.2"/>
    <path id="Path_2978" data-name="Path 2978" d="M1.48,0,0,1.48l1.48,1.48" transform="translate(4.916 12.775) rotate(-90)" fill="none" stroke="#003c51" stroke-linecap="round" stroke-linejoin="round" stroke-width="1.2"/>
  </g>
</svg>
