<svg xmlns="http://www.w3.org/2000/svg" viewBox="0 0 16 16"><g transform="translate(-1186.5 -179.5)"><rect width="16" height="16" transform="translate(1186.5 179.5)" fill="none" opacity="0"/><path d="M20195.5,19036.3a.805.805,0,0,0,.8-.8v-3a.8.8,0,0,0-.8-.8h-3a.8.8,0,0,0-.8.8v3a.8.8,0,0,0,.8.8h3m-8,0a.8.8,0,0,0,.8-.8v-3a.8.8,0,0,0-.8-.8h-3a.8.8,0,0,0-.8.8v3a.8.8,0,0,0,.8.8h3m8-8a.8.8,0,0,0,.8-.8v-3a.805.805,0,0,0-.8-.8h-3a.8.8,0,0,0-.8.8v3a.788.788,0,0,0,.8.8h3m-8,0a.8.8,0,0,0,.8-.8v-3a.8.8,0,0,0-.8-.8h-3a.8.8,0,0,0-.8.8v3a.8.8,0,0,0,.8.8h3m8,9.2h-3a2,2,0,0,1-2-2v-3a1.994,1.994,0,0,1,2-2h3a2,2,0,0,1,2,2v3A2,2,0,0,1,20195.5,19037.5Zm-8,0h-3a2,2,0,0,1-2-2v-3a2,2,0,0,1,2-2h3a2,2,0,0,1,2,2v3A2,2,0,0,1,20187.5,19037.5Zm8-8h-3a1.992,1.992,0,0,1-2-2v-3a2,2,0,0,1,2-2h3a2,2,0,0,1,2,2v3A2,2,0,0,1,20195.5,19029.5Zm-8,0h-3a1.994,1.994,0,0,1-2-2v-3a2,2,0,0,1,2-2h3a2,2,0,0,1,2,2v3A1.994,1.994,0,0,1,20187.5,19029.5Z" transform="translate(-18995.5 -18842.5)" fill="#2a354b"/></g></svg>