<svg id="IconAI16" xmlns="http://www.w3.org/2000/svg" width="16" height="16" viewBox="0 0 16 16">
  <g id="Rectangle_3996" data-name="Rectangle 3996" fill="#fff" stroke="#707070" stroke-width="1" opacity="0">
    <rect width="16" height="16" stroke="none"/>
    <rect x="0.5" y="0.5" width="15" height="15" fill="none"/>
  </g>
  <path id="Path_2987" data-name="Path 2987" d="M1.618,0h0A1.9,1.9,0,0,1,0,2.086,1.9,1.9,0,0,1,1.618,4.171,1.9,1.9,0,0,1,3.236,2.086,1.9,1.9,0,0,1,1.618,0" transform="translate(2.844 9.242)" fill="none" stroke="#003c51" stroke-linecap="round" stroke-linejoin="round" stroke-width="1.2"/>
  <path id="Path_2988" data-name="Path 2988" d="M.809,0h0A.949.949,0,0,1,0,1.043.949.949,0,0,1,.809,2.086a.949.949,0,0,1,.809-1.043A.949.949,0,0,1,.809,0" transform="translate(11.518 9.242)" fill="none" stroke="#003c51" stroke-linecap="round" stroke-linejoin="round" stroke-width="1.2"/>
  <path id="Path_2989" data-name="Path 2989" d="M3.178,0h0C3.178,2.262,1.755,4.1,0,4.1c1.755,0,3.178,1.834,3.178,4.1,0-2.262,1.423-4.1,3.178-4.1C4.6,4.1,3.178,2.262,3.178,0" transform="translate(4.822 2.338)" fill="none" stroke="#003c51" stroke-linecap="round" stroke-linejoin="round" stroke-width="1.2"/>
</svg>
