<svg xmlns="http://www.w3.org/2000/svg" viewBox="0 0 24 24"><g transform="translate(1 1)"><rect width="24" height="24" transform="translate(-1 -1)" fill="none" opacity="0"/><path d="M19057.865,20831.855c-.047-.094-.09-.189-.131-.293a8.934,8.934,0,1,1,.131.293Zm.533-3.855a7.468,7.468,0,0,0,.623,3.008c.035.084.072.168.109.25a7.607,7.607,0,0,0,6.871,4.342,7.56,7.56,0,0,0,4.109-1.2,7.7,7.7,0,0,0,2.756-3.133,7.6,7.6,0,1,0-14.469-3.264Zm9.779,4.18-1.756-1.756-1.471,1.473a.6.6,0,0,1-.424.178h-2a.6.6,0,0,1-.6-.6v-2a.581.581,0,0,1,.174-.422l1.477-1.479-1.76-1.754a1.012,1.012,0,0,1,0-1.418l1.078-1.082a1,1,0,0,1,1.416,0l1.76,1.76.688-.687a.6.6,0,0,1,.848,0l2,2a.6.6,0,0,1,0,.852l-.684.684,1.76,1.76a1.008,1.008,0,0,1,.293.705,1,1,0,0,1-.3.705l-1.084,1.084a1,1,0,0,1-.705.293A1.015,1.015,0,0,1,19068.178,20832.18Zm.711-.707,1.082-1.082-1.756-1.758-1.086,1.086.723.721.357-.357a.5.5,0,0,1,.705,0,.508.508,0,0,1,0,.711l-.354.354Zm-5.764-1.752v1.156h1.15l4.059-4.059-1.15-1.15Zm1.162-2.855,1.08-1.078-1.76-1.76-1.078,1.082v0l.375.375.352-.354a.5.5,0,0,1,.707,0,.5.5,0,0,1,0,.707l-.352.352Zm5.762-.914-2-2a.6.6,0,0,1,.846-.846l2,2a.6.6,0,0,1-.422,1.02A.611.611,0,0,1,19070.049,20825.951Z" transform="translate(-19055 -20817)" fill="#231f20"/></g></svg>