<svg id="IconGrid16" xmlns="http://www.w3.org/2000/svg" width="16" height="16" viewBox="0 0 16 16">
  <g id="IconGrid16-2" data-name="IconGrid16">
    <rect id="Rectangle_3068" data-name="Rectangle 3068" width="16" height="16" fill="none" opacity="0"/>
    <path id="Path_2801" data-name="Path 2801" d="M-2012-6112a2,2,0,0,1-2-2v-3a2,2,0,0,1,2-2h3a2,2,0,0,1,2,2v3a2,2,0,0,1-2,2Zm-.8-5v3a.8.8,0,0,0,.8.8h3a.8.8,0,0,0,.8-.8v-3a.8.8,0,0,0-.8-.8h-3A.8.8,0,0,0-2012.8-6117Zm-7.2,5a2,2,0,0,1-2-2v-3a2,2,0,0,1,2-2h3a2,2,0,0,1,2,2v3a2,2,0,0,1-2,2Zm-.8-5v3a.8.8,0,0,0,.8.8h3a.8.8,0,0,0,.8-.8v-3a.8.8,0,0,0-.8-.8h-3A.8.8,0,0,0-2020.8-6117Zm8.8-3a2,2,0,0,1-2-2v-3a2,2,0,0,1,2-2h3a2,2,0,0,1,2,2v3a2,2,0,0,1-2,2Zm-.8-5v3a.8.8,0,0,0,.8.8h3a.8.8,0,0,0,.8-.8v-3a.8.8,0,0,0-.8-.8h-3A.8.8,0,0,0-2012.8-6125Zm-7.2,5a2,2,0,0,1-2-2v-3a2,2,0,0,1,2-2h3a2,2,0,0,1,2,2v3a2,2,0,0,1-2,2Zm-.8-5v3a.8.8,0,0,0,.8.8h3a.8.8,0,0,0,.8-.8v-3a.8.8,0,0,0-.8-.8h-3A.8.8,0,0,0-2020.8-6125Z" transform="translate(2022.5 6127.5)" fill="#003c51"/>
  </g>
</svg>
