<svg id="IconControl24" xmlns="http://www.w3.org/2000/svg" width="24" height="24" viewBox="0 0 24 24">
  <g id="IconControl24-2" data-name="IconControl24" transform="translate(1 1)">
    <rect id="Rectangle_502" data-name="Rectangle 502" width="24" height="24" transform="translate(-1 -1)" fill="#fff" opacity="0"/>
    <path id="Union_150" data-name="Union 150" d="M21530.824,16747.711v-6h6v6Zm1.4-1.4h3.2v-3.2h-3.2Zm-7.1.52v-1.422h-1.428a.7.7,0,0,1,0-1.395h1.428v-1.426a.7.7,0,0,1,1.395,0v1.426h1.422a.7.7,0,0,1,0,1.395h-1.422v1.422a.7.7,0,1,1-1.395,0Zm1.193-9.328a3.5,3.5,0,1,1,3.5,3.5A3.5,3.5,0,0,1,21526.32,16737.5Zm1.4,0a2.1,2.1,0,1,0,2.1-2.1A2.1,2.1,0,0,0,21527.721,16737.5Z" transform="translate(-21518.822 -16730)" fill="#003c51"/>
  </g>
</svg>
