<svg xmlns="http://www.w3.org/2000/svg" width="24" height="24" viewBox="0 0 24 24"><g transform="translate(-477 -290)"><g transform="translate(477 290)" fill="none" stroke="#707070" stroke-width="1" opacity="0"><rect width="24" height="24" stroke="none"/><rect x="0.5" y="0.5" width="23" height="23" fill="none"/></g><g transform="translate(480 292)"><g transform="translate(2.6 3.6)" fill="none" stroke-linecap="round" stroke-linejoin="round"><path d="M.15-.6h12.5a.75.75,0,0,1,.6,1.2L9.233,5.875v5.386a.75.75,0,0,1-.513.712L4.554,13.362a.75.75,0,0,1-.987-.712V5.875L-.447.6A.75.75,0,0,1,.15-.6Z" stroke="none"/><path d="M 1.461936950683594 0.8000030517578125 L 4.680508613586426 5.02689266204834 C 4.866138458251953 5.270672798156738 4.966658592224121 5.568623065948486 4.966658592224121 5.875032901763916 L 4.966658592224121 11.74817371368408 L 7.833338737487793 10.79261589050293 L 7.833338737487793 5.875032901763916 C 7.833338737487793 5.568623065948486 7.933858871459961 5.270672798156738 8.119488716125488 5.02689266204834 L 11.33806228637695 0.8000030517578125 L 1.461936950683594 0.8000030517578125 M 0.149998664855957 -0.5999975204467773 L 12.64999866485596 -0.5999975204467773 C 12.93505859375 -0.5999975204467773 13.19548892974854 -0.4383974075317383 13.3220386505127 -0.1829671859741211 C 13.44858837127686 0.07246303558349609 13.41939830780029 0.3775625228881836 13.2466983795166 0.6043624877929688 L 9.233338356018066 5.875032901763916 L 9.233338356018066 11.2611026763916 C 9.233338356018066 11.58393287658691 9.026758193969727 11.87053298950195 8.720508575439453 11.97262287139893 L 4.553838729858398 13.36151313781738 C 4.325119018554688 13.43774318695068 4.073698043823242 13.39939308166504 3.878118515014648 13.25843238830566 C 3.682548522949219 13.11746311187744 3.566658973693848 12.89108276367188 3.566658973693848 12.64999294281006 L 3.566658973693848 5.875032901763916 L -0.4467010498046875 0.6043624877929688 C -0.6194009780883789 0.3775625228881836 -0.6485910415649414 0.07246303558349609 -0.5220413208007812 -0.1829671859741211 C -0.3954916000366211 -0.4383974075317383 -0.1350612640380859 -0.5999975204467773 0.149998664855957 -0.5999975204467773 Z" stroke="none" fill="#003c51"/></g></g></g></svg>