<svg xmlns="http://www.w3.org/2000/svg" width="16.002" height="16.002" viewBox="0 0 16.002 16.002"><rect width="16" height="16" fill="none" opacity="0"/><path d="M22802,20944a8,8,0,1,1,8-8A8.01,8.01,0,0,1,22802,20944Zm0-7.15v0l2.313,2.3a.587.587,0,0,0,.842,0,.587.587,0,0,0,.176-.416.6.6,0,0,0-.176-.43l-2.307-2.309,2.307-2.312a.6.6,0,0,0,.174-.422.59.59,0,0,0-.174-.426.6.6,0,0,0-.422-.176.59.59,0,0,0-.42.176l-2.312,2.309-2.307-2.309a.606.606,0,0,0-.854,0,.61.61,0,0,0,0,.848l2.313,2.313-2.312,2.309a.607.607,0,0,0,0,.846.606.606,0,0,0,.854,0l2.307-2.3Z" transform="translate(-22794 -20928)" fill="#cf2f29"/></svg>