<svg xmlns="http://www.w3.org/2000/svg" width="24" height="24" viewBox="0 0 24 24"><g transform="translate(-942 -10)"><g transform="translate(942 10)"><g transform="translate(1 1)"><rect width="24" height="24" transform="translate(-1 -1)" fill="#fff" opacity="0"/><g transform="translate(19.5 2.5) rotate(90)" fill="none"><path d="M7.63,1.535a1,1,0,0,1,1.74,0l6.784,11.972A1,1,0,0,1,15.284,15H1.716a1,1,0,0,1-.87-1.493Z" stroke="none"/><path d="M 8.500003814697266 2.434021949768066 L 2.059271812438965 13.79999446868896 L 14.94071674346924 13.79999446868896 L 8.500003814697266 2.434021949768066 M 8.499999046325684 1.028349876403809 C 8.83924674987793 1.028349876403809 9.178493499755859 1.197344779968262 9.37001895904541 1.535334587097168 L 16.15395927429199 13.50698471069336 C 16.53171920776367 14.17361450195312 16.05016899108887 14.9999942779541 15.28393936157227 14.9999942779541 L 1.716058731079102 14.9999942779541 C 0.9498386383056641 14.9999942779541 0.4682788848876953 14.17361450195312 0.846038818359375 13.50698471069336 L 7.629979133605957 1.535334587097168 C 7.821503639221191 1.197344779968262 8.160751342773438 1.028349876403809 8.499999046325684 1.028349876403809 Z" stroke="none" fill="#003c51"/></g></g></g><g transform="translate(952.277 19.129)"><g transform="translate(-2.277 1.748)" fill="#003c51"><path d="M 3.302834510803223 9.744217872619629 C 2.61592435836792 9.744297027587891 2.067254543304443 9.207807540893555 2.053724527359009 8.52283763885498 L 2.047784328460693 8.151627540588379 C 2.046534538269043 8.019227027893066 1.939094424247742 7.914197444915771 1.808234453201294 7.914197444915771 C 1.795374393463135 7.914197444915771 1.782244443893433 7.915257453918457 1.769184470176697 7.917327404022217 L 1.417804479598999 7.97578763961792 C 1.346904397010803 7.987217426300049 1.277734398841858 7.992807388305664 1.209714412689209 7.992807388305664 C 0.7334344387054443 7.992817401885986 0.3075844347476959 7.723277568817139 0.09834443777799606 7.289377689361572 C -0.1095255613327026 6.858297348022461 -0.05268556252121925 6.356807708740234 0.2466944456100464 5.980617523193359 L 0.5006644129753113 5.66384744644165 C 0.5593244433403015 5.59007740020752 0.5564244389533997 5.511337280273438 0.5493744611740112 5.471107482910156 C 0.5423281788825989 5.430983543395996 0.5184457302093506 5.356414318084717 0.4375903010368347 5.305759906768799 L 0.09793443977832794 5.101537704467773 C -0.345645546913147 4.829557418823242 -0.5710955858230591 4.327427387237549 -0.4801355600357056 3.820047378540039 C -0.3894955515861511 3.314437389373779 -0.004595561418682337 2.923187494277954 0.5004344582557678 2.823277473449707 L 0.5029644370079041 2.822787523269653 L 0.5054844617843628 2.822307586669922 L 0.8793033361434937 2.752348661422729 C 0.9723759889602661 2.732469320297241 1.019964456558228 2.67119026184082 1.040124416351318 2.636207580566406 C 1.060494422912598 2.600867509841919 1.090044379234314 2.527917385101318 1.059184432029724 2.436387538909912 L 0.9337944388389587 2.065947532653809 C 0.8026844263076782 1.684447526931763 0.8608644604682922 1.276927471160889 1.094154477119446 0.9500674605369568 C 1.329674482345581 0.6200875043869019 1.708074450492859 0.423087477684021 2.106394529342651 0.423087477684021 C 2.315854549407959 0.423087477684021 2.525594472885132 0.4790974855422974 2.712954521179199 0.5850574970245361 L 3.016174554824829 0.7579174637794495 C 3.051324367523193 0.7778174877166748 3.090214490890503 0.7882674932479858 3.13051438331604 0.7882674932479858 C 3.213391065597534 0.7882674932479858 3.315553426742554 0.7399865388870239 3.357891082763672 0.632193922996521 L 3.477724552154541 0.3075074851512909 L 3.478604555130005 0.3050974905490875 L 3.479524374008179 0.3027074635028839 C 3.665194511413574 -0.1849225163459778 4.120204448699951 -0.5000025033950806 4.638734340667725 -0.5000025033950806 C 5.155194282531738 -0.5000025033950806 5.61022424697876 -0.1857625246047974 5.797974586486816 0.3005474805831909 L 5.924204349517822 0.6311074495315552 C 5.965064525604248 0.7409474849700928 6.066774368286133 0.7882674932479858 6.150134563446045 0.7882674932479858 C 6.190644264221191 0.7882674932479858 6.229474544525146 0.7778874635696411 6.265554428100586 0.7574175000190735 L 6.559554576873779 0.5874174833297729 L 6.562534332275391 0.5856974720954895 L 6.565534591674805 0.5840075016021729 C 6.753554344177246 0.478737473487854 6.963594436645508 0.423087477684021 7.172974586486816 0.423087477684021 C 7.572034358978271 0.423087477684021 7.951074600219727 0.6198675036430359 8.186914443969727 0.94947749376297 C 8.42043399810791 1.275837421417236 8.479274749755859 1.683177471160889 8.34836483001709 2.067037582397461 L 8.223154067993164 2.436957359313965 L 8.222254753112793 2.439607381820679 L 8.22132396697998 2.442257404327393 C 8.190854072570801 2.529037475585938 8.218794822692871 2.599157571792603 8.238164901733398 2.633227586746216 C 8.258528709411621 2.66908073425293 8.306954383850098 2.731910467147827 8.403185844421387 2.752349853515625 L 8.775753974914551 2.822387456893921 L 8.778314590454102 2.822867393493652 L 8.780874252319336 2.823377370834351 C 9.286374092102051 2.923877477645874 9.670924186706543 3.316497564315796 9.760564804077148 3.823627471923828 C 9.850234031677246 4.330877304077148 9.622974395751953 4.831997394561768 9.181604385375977 5.100287437438965 L 8.839897155761719 5.305754661560059 C 8.759444236755371 5.356160163879395 8.735671043395996 5.430412292480469 8.728654861450195 5.470367431640625 C 8.721584320068359 5.510717391967773 8.718694686889648 5.589697360992432 8.778884887695312 5.665377616882324 L 9.029824256896973 5.980477333068848 C 9.329614639282227 6.355687618255615 9.387204170227051 6.857287406921387 9.179624557495117 7.288917541503906 C 8.970844268798828 7.723037242889404 8.546104431152344 7.99274730682373 8.071154594421387 7.992807388305664 C 8.003214836120605 7.992817401885986 7.93412446975708 7.987197399139404 7.865814208984375 7.976107597351074 L 7.505114555358887 7.916957378387451 C 7.494364261627197 7.915247440338135 7.481374263763428 7.914197444915771 7.468674659729004 7.914197444915771 C 7.338884353637695 7.914197444915771 7.231284618377686 8.021327018737793 7.228814601898193 8.152997016906738 L 7.224654674530029 8.518677711486816 C 7.2155442237854 9.205717086791992 6.667944431304932 9.74317741394043 5.977964401245117 9.74317741394043 C 5.614604473114014 9.74317741394043 5.282304286956787 9.589967727661133 5.042294502258301 9.311777114868164 L 5.040594577789307 9.309807777404785 L 5.038914203643799 9.307827949523926 L 4.818094253540039 9.04643726348877 C 4.757184505462646 8.973867416381836 4.680354595184326 8.963217735290527 4.639894485473633 8.963217735290527 C 4.598624229431152 8.963217735290527 4.520034313201904 8.974227905273438 4.457264423370361 9.047927856445312 L 4.237714290618896 9.307827949523926 C 3.997324466705322 9.589807510375977 3.665834426879883 9.74417781829834 3.302834510803223 9.744217872619629 Z M 4.638734340667725 7.077007293701172 C 4.951192378997803 7.077007293701172 5.2568039894104 7.146541595458984 5.534729480743408 7.276325225830078 C 5.797833442687988 6.704520225524902 6.30707311630249 6.265556812286377 6.920114517211914 6.098289489746094 C 6.832189083099365 5.791074275970459 6.813530445098877 5.464505672454834 6.870294570922852 5.142687320709229 C 6.926798820495605 4.823527812957764 7.055095195770264 4.525323867797852 7.241378784179688 4.268166065216064 C 6.982829093933105 4.091499805450439 6.764534950256348 3.85809063911438 6.605554580688477 3.581477403640747 C 6.443343639373779 3.296759366989136 6.349498271942139 2.984779119491577 6.326200008392334 2.669285297393799 C 6.266843795776367 2.674509286880493 6.20743465423584 2.677147388458252 6.148204326629639 2.677147388458252 C 5.576564311981201 2.677147388458252 5.033256053924561 2.43955659866333 4.638947010040283 2.045500040054321 C 4.24518871307373 2.43955659866333 3.702932596206665 2.677147388458252 3.132634401321411 2.677147388458252 C 3.073026657104492 2.677147388458252 3.013309717178345 2.67452073097229 2.95365571975708 2.669314861297607 C 2.930494070053101 2.987710475921631 2.835710763931274 3.30052924156189 2.671764373779297 3.583187580108643 C 2.512349367141724 3.858575582504272 2.294688940048218 4.091124534606934 2.037697315216064 4.267349243164062 C 2.222856760025024 4.524435043334961 2.350342512130737 4.823104381561279 2.406434535980225 5.143247604370117 C 2.463313341140747 5.465714931488037 2.445696592330933 5.791900634765625 2.359601974487305 6.097839832305908 C 2.972619295120239 6.264708518981934 3.481611967086792 6.703639507293701 3.743728160858154 7.27534294128418 C 4.022176265716553 7.146202087402344 4.327509880065918 7.077007293701172 4.638734340667725 7.077007293701172 Z M 4.638734340667725 6.719457626342773 C 3.547904491424561 6.719457626342773 2.660444498062134 5.831687450408936 2.660444498062134 4.740477561950684 C 2.660444498062134 3.648337364196777 3.547904491424561 2.759817361831665 4.638734340667725 2.759817361831665 C 5.729564666748047 2.759817361831665 6.617024421691895 3.648337364196777 6.617024421691895 4.740477561950684 C 6.617024421691895 5.831687450408936 5.729564666748047 6.719457626342773 4.638734340667725 6.719457626342773 Z" stroke="none"/><path d="M 3.30277943611145 9.244218826293945 C 3.501654386520386 9.244194984436035 3.703299999237061 9.163994789123535 3.855764389038086 8.985157012939453 L 4.076584339141846 8.723767280578613 C 4.372405052185059 8.376367568969727 4.908434391021729 8.376369476318359 5.200044631958008 8.723767280578613 L 5.420864582061768 8.985157012939453 C 5.575094223022461 9.163917541503906 5.777374267578125 9.24317741394043 5.977964401245117 9.24317741394043 C 6.353004455566406 9.24317741394043 6.718784332275391 8.95817756652832 6.724684238433838 8.512967109680176 L 6.728904247283936 8.143637657165527 C 6.737334251403809 7.693367481231689 7.141873836517334 7.352720260620117 7.586034297943115 7.423547267913818 L 7.945914268493652 7.482567310333252 C 8.610889434814453 7.590497970581055 9.061794281005859 6.821497440338135 8.638704299926758 6.291967391967773 L 8.387554168701172 5.976607322692871 C 8.108584403991699 5.625837326049805 8.198764801025391 5.113177299499512 8.579714775085449 4.878767490386963 L 8.921894073486328 4.673027515411377 C 9.501744270324707 4.320567607879639 9.34498405456543 3.445317506790161 8.683374404907227 3.313777446746826 L 8.306644439697266 3.242957592010498 C 7.865004539489746 3.153577566146851 7.600364208221436 2.701617479324341 7.749544620513916 2.276647567749023 L 7.875124454498291 1.905637502670288 C 8.094254493713379 1.263117790222168 7.403144836425781 0.6880570650100708 6.809814453125 1.020277500152588 L 6.512304306030273 1.192287445068359 C 6.117024421691895 1.416577935218811 5.613864421844482 1.231077313423157 5.457104206085205 0.8094774484634399 L 5.33152437210083 0.4806274771690369 C 5.208474636077881 0.1618974804878235 4.925294399261475 -2.523040848245728e-06 4.638734340667725 -2.523040848245728e-06 C 4.355554580688477 -2.523040848245728e-06 4.068154335021973 0.1618974804878235 3.946794509887695 0.4806274771690369 L 3.825424432754517 0.8094774484634399 C 3.663604021072388 1.231077313423157 3.164664745330811 1.416577577590942 2.768544435501099 1.192287445068359 L 2.466814517974854 1.020277500152588 C 1.87938404083252 0.6880576610565186 1.186594605445862 1.263117432594299 1.40740442276001 1.905637502670288 L 1.532984495162964 2.276647567749023 C 1.676264405250549 2.701617479324341 1.416674494743347 3.153577566146851 0.9758844375610352 3.242957592010498 L 0.5974644422531128 3.313777446746826 C -0.06750556081533432 3.445317506790161 -0.2192155569791794 4.320567607879639 0.355584442615509 4.673027515411377 L 0.6977644562721252 4.878767490386963 C 1.078714489936829 5.113177299499512 1.169734477996826 5.625837326049805 0.8907644152641296 5.976607322692871 L 0.6379244327545166 6.291967391967773 C 0.2165144383907318 6.821496963500977 0.6657351851463318 7.590503215789795 1.335764408111572 7.482567310333252 L 1.690594434738159 7.423547267913818 C 2.135595560073853 7.352722644805908 2.543514490127563 7.693367481231689 2.547724485397339 8.143637657165527 L 2.553624391555786 8.512967109680176 C 2.562439441680908 8.959261894226074 2.927795648574829 9.2442626953125 3.30277943611145 9.244218826293945 M 4.638734340667725 7.577007293701172 C 4.181094646453857 7.577007293701172 3.744514465332031 7.770947456359863 3.434364557266235 8.108227729797363 C 3.411604404449463 7.236357688903809 2.688474416732788 6.524697303771973 1.811954379081726 6.524697303771973 C 1.731044411659241 6.524697303771973 1.650134444236755 6.533127307891846 1.573444485664368 6.54661750793457 L 1.586924433708191 6.529757499694824 C 1.879384398460388 6.165487289428711 1.994844436645508 5.68823766708374 1.913934469223022 5.229537487030029 C 1.833864450454712 4.772517681121826 1.560794472694397 4.366097450256348 1.159624457359314 4.123257637023926 L 1.141924381256104 4.109767436981201 L 1.146134495735168 4.109767436981201 C 1.605464458465576 4.020387649536133 2.00495433807373 3.737067461013794 2.239254474639893 3.332327365875244 C 2.476934432983398 2.922537565231323 2.522444486618042 2.433477401733398 2.37326455116272 1.993327498435974 L 2.369054555892944 1.986587524414062 C 2.602514505386353 2.108007431030273 2.867154359817505 2.177147388458252 3.132634401321411 2.177147388458252 C 3.794244527816772 2.177147388458252 4.391794204711914 1.767347455024719 4.638734340667725 1.161927461624146 C 4.885674476623535 1.767347455024719 5.488284587860107 2.177147388458252 6.148204326629639 2.177147388458252 C 6.413694381713867 2.177147388458252 6.674124240875244 2.108007431030273 6.907574653625488 1.986587524414062 L 6.907574653625488 1.993327498435974 C 6.755024433135986 2.433477401733398 6.805594444274902 2.922537565231323 7.039054393768311 3.332327365875244 C 7.271674633026123 3.737067461013794 7.672844409942627 4.020387649536133 8.13470458984375 4.109767436981201 L 8.122064590454102 4.123257637023926 C 7.721734523773193 4.366097450256348 7.443604469299316 4.772517681121826 7.362694263458252 5.229537487030029 C 7.281784534454346 5.68823766708374 7.403144359588623 6.165487289428711 7.694764614105225 6.529757499694824 L 7.707404613494873 6.54661750793457 C 7.626494407653809 6.533127307891846 7.545584201812744 6.524697303771973 7.469734668731689 6.524697303771973 C 6.593214511871338 6.524697303771973 5.865864276885986 7.236357688903809 5.842264652252197 8.113287925720215 C 5.533794403076172 7.770947456359863 5.101434230804443 7.577007293701172 4.638734340667725 7.577007293701172 M 4.638734340667725 6.219457626342773 C 5.457104206085205 6.219457626342773 6.117024421691895 5.556697368621826 6.117024421691895 4.740477561950684 C 6.117024421691895 3.925947427749634 5.457104206085205 3.259817361831665 4.638734340667725 3.259817361831665 C 3.819524526596069 3.259817361831665 3.160444498062134 3.925947427749634 3.160444498062134 4.740477561950684 C 3.160444498062134 5.556697368621826 3.819524526596069 6.219457626342773 4.638734340667725 6.219457626342773 M 4.638734340667725 4.150237560272217 C 4.965744495391846 4.150237560272217 5.23207426071167 4.416687488555908 5.23207426071167 4.740477561950684 C 5.23207426071167 5.06763744354248 4.965744495391846 5.334097385406494 4.638734340667725 5.334097385406494 C 4.315094470977783 5.334097385406494 4.049614429473877 5.06763744354248 4.049614429473877 4.740477561950684 C 4.049614429473877 4.416687488555908 4.315094470977783 4.150237560272217 4.638734340667725 4.150237560272217 M 3.302884340286255 10.24421787261963 C 3.302874326705933 10.24421787261963 3.302874326705933 10.24421787261963 3.302874326705933 10.24421787261963 C 2.341044425964355 10.24431705474854 1.57276439666748 9.492537498474121 1.55381441116333 8.532707214355469 L 1.552656769752502 8.460232734680176 L 1.49472439289093 8.469857215881348 C 1.400114417076111 8.485087394714355 1.304224491119385 8.492807388305664 1.209694385528564 8.492807388305664 C 0.5397644639015198 8.492827415466309 -0.05866556242108345 8.114917755126953 -0.35202556848526 7.506557464599609 C -0.6440255641937256 6.901017665863037 -0.5645255446434021 6.197007656097412 -0.144535556435585 5.669267654418945 L -0.07415773719549179 5.581484317779541 L -0.1671555638313293 5.525517463684082 C -0.7838055491447449 5.147397518157959 -1.0998455286026 4.4433274269104 -0.9722955822944641 3.731817483901978 C -0.8450555801391602 3.022087574005127 -0.3050655722618103 2.472927570343018 0.4034144282341003 2.33278751373291 L 0.4907070100307465 2.316391229629517 L 0.4601944386959076 2.226247549057007 C 0.2766644358634949 1.692227482795715 0.3588544428348541 1.119607448577881 0.6871944665908813 0.6595875024795532 C 1.016344428062439 0.1984174698591232 1.546894431114197 -0.076912522315979 2.106394529342651 -0.076912522315979 C 2.401944398880005 -0.076912522315979 2.69681453704834 0.001497476943768561 2.959104537963867 0.1498474776744843 L 2.995327472686768 0.1704966127872467 L 3.012244462966919 0.1247874796390533 C 3.272414445877075 -0.5584925413131714 3.910854339599609 -1.000002503395081 4.638734340667725 -1.000002503395081 C 5.363524436950684 -1.000002503395081 6.00163459777832 -0.5601925253868103 6.264414310455322 0.1204674765467644 L 6.283194065093994 0.1696419715881348 L 6.321254253387451 0.1477474719285965 C 6.583734512329102 0.0007774769328534603 6.878254413604736 -0.076912522315979 7.172974586486816 -0.076912522315979 C 7.732994556427002 -0.076912522315979 8.264054298400879 0.1980174779891968 8.593554496765137 0.6585274934768677 C 8.922124862670898 1.11774742603302 9.005244255065918 1.689957499504089 8.82159423828125 2.228437423706055 L 8.791743278503418 2.316628932952881 L 8.878374099731445 2.332977533340454 C 9.587594032287598 2.473977565765381 10.12713432312012 3.024937391281128 10.25293445587158 3.736597537994385 C 10.37875461578369 4.448387622833252 10.06017398834229 5.15137767791748 9.441314697265625 5.527547359466553 L 9.35136890411377 5.581632614135742 L 9.420944213867188 5.668997287750244 C 9.841254234313965 6.195047378540039 9.92182445526123 6.899277687072754 9.630214691162109 7.505617618560791 C 9.337414741516113 8.114447593688965 8.740044593811035 8.492717742919922 8.07121467590332 8.492807388305664 C 7.976394653320312 8.492807388305664 7.88038444519043 8.485017776489258 7.785714626312256 8.469647407531738 L 7.725353240966797 8.459750175476074 L 7.72461462020874 8.524397850036621 C 7.71183443069458 9.488997459411621 6.944624423980713 10.24317741394043 5.977964401245117 10.24317741394043 C 5.474344253540039 10.24317741394043 4.995324611663818 10.02274703979492 4.663724422454834 9.638407707214355 L 4.638313770294189 9.608420372009277 L 4.619664669036865 9.630497932434082 C 4.286164283752441 10.0217170715332 3.80726432800293 10.24416732788086 3.302874326705933 10.24421787261963 L 3.302884340286255 10.24421787261963 Z" stroke="none" fill="#fff"/></g></g></g></svg>