<svg id="IconArrowLeft12" xmlns="http://www.w3.org/2000/svg" width="12" height="12" viewBox="0 0 12 12">
  <g id="IconArrowLeft12-2" data-name="IconArrowLeft12" transform="translate(-489 -51)">
    <rect id="Rectangle_235" data-name="Rectangle 235" width="12" height="12" transform="translate(501 63) rotate(180)" fill="none" opacity="0"/>
    <path id="Path_2" data-name="Path 2" d="M-4,4.6a.6.6,0,0,1-.424-.176L-7.717,1.131a.6.6,0,0,1,0-.849.6.6,0,0,1,.849,0L-4,3.151-1.131.283a.6.6,0,0,1,.849,0,.6.6,0,0,1,0,.849L-3.576,4.424A.6.6,0,0,1-4,4.6Z" transform="translate(497.354 61) rotate(90)" fill="#003c51"/>
  </g>
</svg>
