<svg xmlns="http://www.w3.org/2000/svg" width="24" height="24" viewBox="0 0 24 24"><g transform="translate(1 1)"><rect width="24" height="24" transform="translate(-1 -1)" fill="#fff" opacity="0"/><g transform="translate(4.04 5.169)"><g transform="translate(6.566 4.949) rotate(45)" fill="#003c51" stroke="#003c51" stroke-width="1.2"><path d="M0,0H3A0,0,0,0,1,3,0V8.8a1,1,0,0,1-1,1H1a1,1,0,0,1-1-1V0A0,0,0,0,1,0,0Z" stroke="none"/><path d="M.6.6H2.4a0,0,0,0,1,0,0V8.8a.4.4,0,0,1-.4.4H1a.4.4,0,0,1-.4-.4V.6A0,0,0,0,1,.6.6Z" fill="none"/></g><g transform="translate(9.563 1.951) rotate(45)" fill="none" stroke="#003c51" stroke-width="1.2"><path d="M1,0H2A1,1,0,0,1,3,1V6.671a0,0,0,0,1,0,0H0a0,0,0,0,1,0,0V1A1,1,0,0,1,1,0Z" stroke="none"/><path d="M1,.6H2a.4.4,0,0,1,.4.4V6.071a0,0,0,0,1,0,0H.6a0,0,0,0,1,0,0V1A.4.4,0,0,1,1,.6Z" fill="none"/></g><g transform="translate(-0.153 -2.335)" fill="none"><path d="M4.316,0A5.43,5.43,0,0,0,5.524,2.818,4.427,4.427,0,0,0,7.632,4.026,4.427,4.427,0,0,0,5.524,5.233,5.43,5.43,0,0,0,4.316,8.051,5.43,5.43,0,0,0,3.108,5.233,4.427,4.427,0,0,0,1,4.026,4.427,4.427,0,0,0,3.108,2.818,5.43,5.43,0,0,0,4.316,0Z" stroke="none"/><path d="M 4.316214084625244 3.254761695861816 C 4.206564903259277 3.398247718811035 4.087059497833252 3.536508083343506 3.957015037536621 3.666553497314453 C 3.826940059661865 3.796628475189209 3.695510387420654 3.916096210479736 3.56432056427002 4.025743961334229 C 3.695510864257812 4.135393142700195 3.826948642730713 4.254867553710938 3.957025051116943 4.38494348526001 C 4.087068557739258 4.514987945556641 4.206567287445068 4.653240203857422 4.316215991973877 4.796725273132324 C 4.425865173339844 4.653239250183105 4.545370578765869 4.514979362487793 4.6754150390625 4.384933471679688 C 4.805490493774414 4.254858016967773 4.936919689178467 4.135391235351562 5.068109035491943 4.025743007659912 C 4.936919212341309 3.916093826293945 4.80548095703125 3.796619892120361 4.675405025482178 3.666543483734131 C 4.545361518859863 3.5364990234375 4.425862789154053 3.398247241973877 4.316214084625244 3.254761695861816 M 4.316215038299561 3.814697265625e-06 C 4.316215038299561 3.814697265625e-06 4.517505168914795 1.811583518981934 5.523935317993164 2.818023681640625 C 6.530375003814697 3.824453353881836 7.632425308227539 4.02574348449707 7.632425308227539 4.02574348449707 C 7.632425308227539 4.02574348449707 6.530375003814697 4.227033615112305 5.523935317993164 5.233463287353516 C 4.517505168914795 6.239903450012207 4.316215038299561 8.051483154296875 4.316215038299561 8.051483154296875 C 4.316215038299561 8.051483154296875 4.114924907684326 6.239903450012207 3.108495235443115 5.233463287353516 C 2.102055072784424 4.227033615112305 0.999995231628418 4.02574348449707 0.999995231628418 4.02574348449707 C 0.999995231628418 4.02574348449707 2.102055072784424 3.824453353881836 3.108495235443115 2.818023681640625 C 4.114924907684326 1.811583518981934 4.316215038299561 3.814697265625e-06 4.316215038299561 3.814697265625e-06 Z" stroke="none" fill="#003c51"/></g><g transform="translate(10.01 -0.983)" fill="none"><path d="M2.674,0a2.741,2.741,0,0,0,.61,1.423,2.235,2.235,0,0,0,1.064.61,2.235,2.235,0,0,0-1.064.61,2.741,2.741,0,0,0-.61,1.423,2.741,2.741,0,0,0-.61-1.423A2.235,2.235,0,0,0,1,2.032a2.235,2.235,0,0,0,1.064-.61A2.741,2.741,0,0,0,2.674,0Z" stroke="none"/><path d="M 2.674019336700439 -1.9073486328125e-06 C 2.674019336700439 -1.9073486328125e-06 2.775629281997681 0.9144880771636963 3.283679246902466 1.422528266906738 C 3.791719436645508 1.930578231811523 4.348039150238037 2.032188177108765 4.348039150238037 2.032188177108765 C 4.348039150238037 2.032188177108765 3.791719436645508 2.133798122406006 3.283679246902466 2.641848087310791 C 2.775629281997681 3.149888038635254 2.674019336700439 4.064378261566162 2.674019336700439 4.064378261566162 C 2.674019336700439 4.064378261566162 2.572409391403198 3.149888038635254 2.064359426498413 2.641848087310791 C 1.556319236755371 2.133798122406006 0.9999995231628418 2.032188177108765 0.9999995231628418 2.032188177108765 C 0.9999995231628418 2.032188177108765 1.556319236755371 1.930578231811523 2.064359426498413 1.422528266906738 C 2.572409391403198 0.9144880771636963 2.674019336700439 -1.9073486328125e-06 2.674019336700439 -1.9073486328125e-06 Z" stroke="none" fill="#003c51"/></g><g transform="translate(9.339 5.715)" fill="none"><path d="M2.674,0a2.741,2.741,0,0,0,.61,1.423,2.235,2.235,0,0,0,1.064.61,2.235,2.235,0,0,0-1.064.61,2.741,2.741,0,0,0-.61,1.423,2.741,2.741,0,0,0-.61-1.423A2.235,2.235,0,0,0,1,2.032a2.235,2.235,0,0,0,1.064-.61A2.741,2.741,0,0,0,2.674,0Z" stroke="none"/><path d="M 2.674019336700439 -1.9073486328125e-06 C 2.674019336700439 -1.9073486328125e-06 2.775629281997681 0.9144880771636963 3.283679246902466 1.422528266906738 C 3.791719436645508 1.930578231811523 4.348039150238037 2.032188177108765 4.348039150238037 2.032188177108765 C 4.348039150238037 2.032188177108765 3.791719436645508 2.133798122406006 3.283679246902466 2.641848087310791 C 2.775629281997681 3.149888038635254 2.674019336700439 4.064378261566162 2.674019336700439 4.064378261566162 C 2.674019336700439 4.064378261566162 2.572409391403198 3.149888038635254 2.064359426498413 2.641848087310791 C 1.556319236755371 2.133798122406006 0.9999995231628418 2.032188177108765 0.9999995231628418 2.032188177108765 C 0.9999995231628418 2.032188177108765 1.556319236755371 1.930578231811523 2.064359426498413 1.422528266906738 C 2.572409391403198 0.9144880771636963 2.674019336700439 -1.9073486328125e-06 2.674019336700439 -1.9073486328125e-06 Z" stroke="none" fill="#003c51"/></g></g></g></svg>