<svg id="IconDelete24" xmlns="http://www.w3.org/2000/svg" width="24" height="24" viewBox="0 0 24 24">
  <g id="Rectangle_3579" data-name="Rectangle 3579" fill="#fff" stroke="#707070" stroke-width="1" opacity="0">
    <rect width="24" height="24" stroke="none"/>
    <rect x="0.5" y="0.5" width="23" height="23" fill="none"/>
  </g>
  <path id="Union_238" data-name="Union 238" d="M15821.641,23914.477h-5.846a1.782,1.782,0,0,1-1.746-1.506l-1.524-8.217a.552.552,0,0,1,.492-.631.6.6,0,0,1,.1-.006.58.58,0,0,1,.589.457l1.53,8.229c.012.053.12.582.558.582h2.371v-7.365a.606.606,0,0,1,1.206,0v7.365h2.209c.09-.025.366-.121.48-.619.233-.967,1.6-8.119,1.614-8.2a.579.579,0,0,1,.588-.451.6.6,0,0,1,.1.006.548.548,0,0,1,.485.631c-.054.3-1.38,7.25-1.614,8.24a1.8,1.8,0,0,1-1.572,1.482Zm-9.3-11.014a.6.6,0,0,1,0-1.2h3.895a2.549,2.549,0,0,1,5.065,0h3.722a.6.6,0,0,1,0,1.2Z" transform="translate(-15806.771 -23895.238)" fill="#003c51"/>
</svg>
