<svg xmlns="http://www.w3.org/2000/svg" width="32" height="32" viewBox="0 0 32 32"><g transform="translate(-379 -123)"><rect width="32" height="32" transform="translate(379 123)" fill="none" opacity="0"/><path d="M-12775.654-3248.783a11.235,11.235,0,0,0,3.966-8.576,11.317,11.317,0,0,0-11.3-11.3,10.562,10.562,0,0,0-2.078.186l-2.765-5.812a16.878,16.878,0,0,1,4.843-.69,17.547,17.547,0,0,1,17.566,17.615,17.554,17.554,0,0,1-7.472,14.385Zm-18.63-8.576a11.283,11.283,0,0,1,3.689-8.348l9.36,19.506a11.493,11.493,0,0,1-1.75.138A11.317,11.317,0,0,1-12794.284-3257.359Z" transform="translate(13174.852 3397.975)" fill="#232736"/></g></svg>