<svg xmlns="http://www.w3.org/2000/svg" width="32" height="32" viewBox="0 0 32 32"><g transform="translate(-23.2 -12.3)"><rect width="32" height="32" transform="translate(23.2 12.3)" fill="#060633"/><g transform="translate(3.551 2.844)"><path d="M-12847.806-3993.436a.376.376,0,0,1-.091-.522l6.43-9.2a.377.377,0,0,1,.522-.094.379.379,0,0,1,.081.078.369.369,0,0,1,.277-.3l12.646-3.118a.373.373,0,0,1,.454.274.373.373,0,0,1-.276.452l-12.644,3.121a.421.421,0,0,1-.091.01.37.37,0,0,1-.295-.146.38.38,0,0,1-.062.149l-6.43,9.2a.366.366,0,0,1-.307.161A.388.388,0,0,1-12847.806-3993.436Zm10.293-2.809-3.4-5.685a.373.373,0,0,1,.129-.513.377.377,0,0,1,.516.129l3.4,5.682a.378.378,0,0,1-.132.516.37.37,0,0,1-.19.052A.375.375,0,0,1-12837.513-3996.245Zm-5.233-7.945-5.47-4.485a.381.381,0,0,1-.051-.529.374.374,0,0,1,.528-.052l5.469,4.485a.375.375,0,0,1,.052.529.371.371,0,0,1-.29.135A.388.388,0,0,1-12842.746-4004.19Zm2.2-.945a.374.374,0,0,1-.177-.5l3.221-6.7a.373.373,0,0,1,.5-.174.376.376,0,0,1,.175.5l-3.219,6.7a.376.376,0,0,1-.338.21A.357.357,0,0,1-12840.548-4005.135Z" transform="translate(12874.883 4028.736)" fill="#fff"/><path d="M-12848.344-3989.778a2.937,2.937,0,0,1,2.7-3.147,2.936,2.936,0,0,1,3.147,2.7,2.937,2.937,0,0,1-2.7,3.147c-.075.006-.15.009-.225.009A2.936,2.936,0,0,1-12848.344-3989.778Zm13.7-2.064a.916.916,0,0,1-.8-1.016v.006a.917.917,0,0,1,1.009-.8.918.918,0,0,1,.8,1.009.918.918,0,0,1-.9.81A.877.877,0,0,1-12834.643-3991.842Zm-7.462-5.279a4.346,4.346,0,0,1,.623-6.123h0a4.351,4.351,0,0,1,6.123.625,4.36,4.36,0,0,1-.625,6.124,4.348,4.348,0,0,1-2.749.978A4.337,4.337,0,0,1-12842.1-3997.12Zm14.808-5.717a1.78,1.78,0,0,1,1.645-1.912,1.778,1.778,0,0,1,1.912,1.645,1.78,1.78,0,0,1-1.645,1.912c-.046,0-.092.005-.137.005A1.781,1.781,0,0,1-12827.3-4002.837Zm-19.2-1.96a1.306,1.306,0,0,1,.6-1.741,1.307,1.307,0,0,1,1.744.6,1.306,1.306,0,0,1-.6,1.741,1.279,1.279,0,0,1-.572.135A1.314,1.314,0,0,1-12846.5-4004.8Zm10.825-4.05a2.262,2.262,0,0,1,.322-3.186,2.268,2.268,0,0,1,3.189.326,2.267,2.267,0,0,1-.326,3.186,2.249,2.249,0,0,1-1.428.509A2.259,2.259,0,0,1-12835.671-4008.848Z" transform="translate(12872.232 4025.262)" fill="#fff"/></g></g></svg>