<svg xmlns="http://www.w3.org/2000/svg" width="32" height="32" viewBox="0 0 32 32"><g transform="translate(0.124)"><rect width="32" height="32" transform="translate(-0.124)" fill="none" opacity="0"/><rect width="30" height="24" rx="10" transform="translate(0.875 4)" fill="#0078d4"/><path d="M5.044-3.284A2.006,2.006,0,0,0,3.5-1.046V.592A3.193,3.193,0,0,1,2.7,2.906,3.18,3.18,0,0,1,3.5,5.2V6.85a2.03,2.03,0,0,0,1.588,2.2" transform="translate(3.48 13.118)" fill="none" stroke="#fff" stroke-linecap="round" stroke-linejoin="round" stroke-width="1.4"/><path d="M2.344,0A2.006,2.006,0,0,0,.805,2.238V3.876A3.193,3.193,0,0,1,0,6.19a3.18,3.18,0,0,1,.805,2.3v1.645a2.03,2.03,0,0,0,1.588,2.2" transform="translate(25.572 22.166) rotate(180)" fill="none" stroke="#fff" stroke-linecap="round" stroke-linejoin="round" stroke-width="1.4"/><circle cx="1" cy="1" r="1" transform="translate(10.876 18)" fill="#fff"/><circle cx="1" cy="1" r="1" transform="translate(14.876 18)" fill="#fff"/><circle cx="1" cy="1" r="1" transform="translate(18.876 18)" fill="#fff"/></g></svg>