<svg xmlns="http://www.w3.org/2000/svg" width="32" height="32" viewBox="0 0 32 32"><g transform="translate(0.124)"><rect width="32" height="32" transform="translate(-0.124)" fill="none" opacity="0"/><g transform="translate(3.879)"><path d="M20.059,17.326,11.08,17.1,14.2,20.4l5.858-.151Z" transform="translate(-1.808 -2.79)" fill="#c00"/><path d="M19.666,26.142l1.372-.159v-2.8L17.08,23.4Z" transform="translate(-2.787 -3.783)" fill="#c00"/><path d="M0,27.973,14.552,26.45l-2.8-2.82L0,24.308Z" transform="translate(0 -3.856)" fill="#c00"/><path d="M6.285,16.979,0,16.82v3.841l9.682-.234Z" transform="translate(0 -2.745)" fill="#c00"/><path d="M7.725,13.555l11.213.644V11.38L4.21,9.84Z" transform="translate(-0.687 -1.606)" fill="#c00"/><path d="M0,9.41v3.665l3.841.218Z" transform="translate(0 -1.536)" fill="#c00"/><path d="M19.038,24.268a1.121,1.121,0,0,0,.77-1.18V8.862a1.121,1.121,0,0,0-.77-1.18L0,5.021V2.611C2.159,1.071,6.695,0,12,0s9.841,1.071,11.992,2.611V29.389C21.833,30.929,17.3,32,11.992,32S2.159,30.962,0,29.381V26.987l19.038-2.72" fill="#c00"/></g></g></svg>