<svg xmlns="http://www.w3.org/2000/svg" width="32" height="32" viewBox="0 0 32 32"><g transform="translate(0.124)"><rect width="32" height="32" transform="translate(-0.124)" fill="none" opacity="0"/><g transform="translate(0.084 -0.001)"><path d="M11.622,24.74s-1.23.748.855.962a17.531,17.531,0,0,0,6.625-.267,10.02,10.02,0,0,0,1.763.855c-6.25,2.672-14.16-.16-9.244-1.55Zm-.8-3.473s-1.336,1.015.748,1.23a25.306,25.306,0,0,0,8.55-.427,3.26,3.26,0,0,0,1.282.8c-7.534,2.244-15.976.214-10.58-1.6Zm14.747,6.09s.908.748-1.015,1.336c-3.58,1.07-15.014,1.39-18.22,0-1.122-.48,1.015-1.175,1.7-1.282a5.343,5.343,0,0,1,1.07-.16c-1.23-.855-8.175,1.763-3.526,2.51,12.77,2.084,23.3-.908,19.983-2.4ZM12.2,17.633s-5.824,1.39-2.084,1.87a46.51,46.51,0,0,0,7.694-.053c2.4-.214,4.81-.64,4.81-.64a12.877,12.877,0,0,0-1.443.748c-5.93,1.55-17.312.855-14.052-.748A11.075,11.075,0,0,1,12.2,17.635Zm10.42,5.824c5.984-3.1,3.206-6.09,1.282-5.717a3.377,3.377,0,0,0-.695.214.916.916,0,0,1,.534-.427c3.794-1.336,6.786,4.007-1.23,6.09a.669.669,0,0,0,.107-.16ZM12.79,31.9c5.77.374,14.587-.214,14.8-2.94,0,0-.427,1.07-4.755,1.87a48.166,48.166,0,0,1-14.587.214s.748.64,4.542.855Z" transform="translate(0 0)" fill="#4e7896"/><path d="M19,0s3.313,3.366-3.152,8.442c-5.183,4.114-1.175,6.465,0,9.137-3.046-2.725-5.236-5.13-3.74-7.373C14.294,6.893,20.332,5.3,19,0ZM17.3,15.336c1.55,1.763-.427,3.366-.427,3.366s3.954-2.03,2.137-4.542c-1.656-2.4-2.94-3.58,4.007-7.587,0,0-10.953,2.725-5.717,8.763Z" transform="translate(0)" fill="#f58219"/></g></g></svg>