<svg xmlns="http://www.w3.org/2000/svg" width="32" height="32" viewBox="0 0 32 32"><g transform="translate(-23.2 -12.3)"><rect width="32" height="32" transform="translate(23.2 12.3)" fill="none" opacity="0"/><path d="M39.138,12.3H51.123A4.034,4.034,0,0,1,55.2,16.377V28.362A15.977,15.977,0,0,1,39.262,44.3h-.124a16,16,0,0,1,0-32Z" transform="translate(0)" fill="#148fcc"/><path d="M37.274,34.671c.247.247.494.124.618-.124l5.066-7.043L44.069,25.9a.61.61,0,0,0-.124-.865.454.454,0,0,0-.371-.124H36.038l1.853-5.683a.47.47,0,1,0-.865-.371L31.961,25.9l-1.236,1.483a.61.61,0,0,0,.124.865.454.454,0,0,0,.371.124h7.537L36.9,34.053C36.9,34.3,37.027,34.671,37.274,34.671Z" transform="translate(1.741 1.475)" fill="#fff"/></g></svg>