<svg xmlns="http://www.w3.org/2000/svg" width="32" height="32" viewBox="0 0 32 32"><g transform="translate(0.124 0)"><rect width="32" height="32" transform="translate(-0.124)" fill="none" opacity="0"/><g transform="translate(-709.532 -732.604)"><path d="M11.367,131.379c-.411,2.171-.914,5.393-1.187,8.661A66.777,66.777,0,0,0,10,149.659l-8.11,7.7s-.616-4.318-.936-9.184C.768,145.157.7,142.507.7,140.907c0-.091.044-.183.044-.274a3.662,3.662,0,0,1,1.189-2.193C3.074,137.343,11.506,130.739,11.367,131.379Z" transform="translate(708.899 603.903)" fill="#1496ff"/><path d="M11.367,131.452c-.411,2.171-.914,5.393-1.187,8.661,0,0-8.977-1.075-9.48,1.1a4.116,4.116,0,0,1,1.209-2.445C3.052,137.668,11.506,130.812,11.367,131.452Z" transform="translate(708.899 603.83)" fill="#1284ea"/><path d="M1.559,10.082c2.33-2.216,8.132-7.723,9.275-8.82A2.961,2.961,0,0,1,13.118.394c1.576.091,4.363.3,7.538.684,4.844.571,9.094,1.372,9.094,1.372l-8.112,7.7a67.84,67.84,0,0,0-9.595-.3,85.186,85.186,0,0,0-8.7.73A3.3,3.3,0,0,0,1.171,11.7,2.813,2.813,0,0,0,.6,12.8v-.5a2.889,2.889,0,0,1,.96-2.218Z" transform="translate(709 732.215)" fill="#b4dc00"/><path d="M140.03,1090.491a4.369,4.369,0,0,1-2.284,1.209c-.115,0-.3.093-.413.093-1.6-.093-4.226-.274-7.2-.618-4.844-.547-9.138-1.393-9.138-1.393l8.11-7.723a68.358,68.358,0,0,0,9.619.3c3.266-.113,6.51-.479,8.7-.777C148.071,1081.51,141.171,1089.394,140.03,1090.491Z" transform="translate(591.02 -327.218)" fill="#6f2da8"/><path d="M927.45,1090.7a4.349,4.349,0,0,1-2.65,1.075c2.169-.39,1.554-9.416,1.554-9.416,3.266-.113,6.51-.479,8.7-.777C935.7,1081.51,928.591,1089.6,927.45,1090.7Z" transform="translate(-196.605 -327.218)" fill="#591f91"/><path d="M924.1,195.151c-.159,0-.32-.022-.5-.022a2.366,2.366,0,0,0,1.121-.525,3.5,3.5,0,0,0,1.234-2.125c.388-2.171.914-5.393,1.165-8.661a70.422,70.422,0,0,0,.181-9.6l8.112-7.721s.594,4.294.936,9.162c.205,3.175.274,5.987.3,7.54a2.91,2.91,0,0,1-.96,2.24c-1.143,1.1-6.944,6.625-9.253,8.842A3.087,3.087,0,0,1,924.1,195.151Z" transform="translate(-195.429 569.446)" fill="#73be28"/></g></g></svg>