<svg xmlns="http://www.w3.org/2000/svg" width="32" height="32" viewBox="0 0 32 32"><g transform="translate(0.124)"><rect width="32" height="32" transform="translate(-0.124)" fill="none" opacity="0"/><path d="M3.6,33A2.693,2.693,0,0,1,1,30.067V25.533A5.724,5.724,0,0,1,3.733,20.8l6.333-3.733L3.733,13.333A6.208,6.208,0,0,1,1,8.533v-4.6A2.7,2.7,0,0,1,3.667,1a3.166,3.166,0,0,1,1.667.467L19.6,9.933A2.925,2.925,0,0,1,21.133,12.4,2.9,2.9,0,0,1,19.6,14.867l-3.4,2,3.4,2a3,3,0,0,1,1.6,2.467A2.838,2.838,0,0,1,19.6,23.8L5.333,32.533A3.393,3.393,0,0,1,3.6,33Zm9.533-14.133-7.8,4.6a2.9,2.9,0,0,0-1.2,2.067V29.6l13.533-8Zm-9-14.4V8.533a2.9,2.9,0,0,0,1.2,2.067l7.8,4.6,4.6-2.733Z" transform="translate(4.781 -1)" fill="#fe5000"/></g></svg>