<svg xmlns="http://www.w3.org/2000/svg" width="32" height="32" viewBox="0 0 32 32"><g transform="translate(-23.2 -12.3)"><rect width="32" height="32" transform="translate(23.2 12.3)" fill="#fff" opacity="0"/><path d="M20.905,7.247a2.848,2.848,0,0,0,.1.838,5.039,5.039,0,0,0,.3.678.409.409,0,0,1,.066.217.373.373,0,0,1-.179.282l-.593.4a.451.451,0,0,1-.245.085.433.433,0,0,1-.282-.132,2.912,2.912,0,0,1-.339-.442c-.094-.16-.188-.339-.292-.555a3.477,3.477,0,0,1-2.767,1.3A2.579,2.579,0,0,1,14.8,9.233a2.418,2.418,0,0,1-.7-1.807,2.423,2.423,0,0,1,.857-1.939,3.424,3.424,0,0,1,2.306-.734,7.452,7.452,0,0,1,1,.075c.348.047.706.122,1.082.207V4.348A2.086,2.086,0,0,0,18.9,2.841a2.167,2.167,0,0,0-1.534-.433,4.282,4.282,0,0,0-1.017.122,7.5,7.5,0,0,0-1.017.32A2.7,2.7,0,0,1,15,2.973.577.577,0,0,1,14.853,3c-.132,0-.2-.094-.2-.292V2.248a.6.6,0,0,1,.066-.329.7.7,0,0,1,.264-.2A5.419,5.419,0,0,1,16.171,1.3a5.706,5.706,0,0,1,1.468-.179,3.439,3.439,0,0,1,2.466.762A3.115,3.115,0,0,1,20.887,4.2v3.05ZM17.084,8.678a3.05,3.05,0,0,0,.97-.169,2.1,2.1,0,0,0,.894-.6,1.494,1.494,0,0,0,.32-.6,3.38,3.38,0,0,0,.094-.819v-.4a7.86,7.86,0,0,0-.866-.16,7.092,7.092,0,0,0-.885-.056,2.17,2.17,0,0,0-1.4.377,1.312,1.312,0,0,0-.461,1.083,1.215,1.215,0,0,0,1.337,1.346Zm7.558,1.017a.525.525,0,0,1-.358-.094.767.767,0,0,1-.2-.367L21.875,1.957a1.649,1.649,0,0,1-.085-.377.206.206,0,0,1,.226-.235h.922a.522.522,0,0,1,.367.094.77.77,0,0,1,.188.367l1.581,6.232,1.468-6.232a.66.66,0,0,1,.179-.367.647.647,0,0,1,.377-.094h.753a.566.566,0,0,1,.377.094.634.634,0,0,1,.179.367l1.487,6.307,1.628-6.307a.807.807,0,0,1,.188-.367.614.614,0,0,1,.367-.094h.875a.209.209,0,0,1,.235.235.939.939,0,0,1-.019.151,1.339,1.339,0,0,1-.066.235L30.836,9.243a.722.722,0,0,1-.2.367.6.6,0,0,1-.358.094h-.809a.566.566,0,0,1-.377-.094.667.667,0,0,1-.179-.377L27.457,3.162l-1.45,6.062a.735.735,0,0,1-.179.377.583.583,0,0,1-.377.094Zm12.1.254a6.228,6.228,0,0,1-1.45-.169A4.282,4.282,0,0,1,34.206,9.4a.678.678,0,0,1-.292-.264.665.665,0,0,1-.056-.264V8.4c0-.2.075-.292.216-.292a.533.533,0,0,1,.169.028c.056.019.141.056.235.094a5.12,5.12,0,0,0,1.035.329,5.652,5.652,0,0,0,1.12.113,2.539,2.539,0,0,0,1.374-.311,1.014,1.014,0,0,0,.489-.894.917.917,0,0,0-.254-.659,2.362,2.362,0,0,0-.951-.49l-1.365-.424a2.871,2.871,0,0,1-1.506-.96,2.243,2.243,0,0,1-.471-1.365,2.1,2.1,0,0,1,.254-1.045,2.42,2.42,0,0,1,.678-.772,2.987,2.987,0,0,1,.979-.49,4.1,4.1,0,0,1,1.186-.16,4.725,4.725,0,0,1,.631.038c.216.028.414.066.612.1s.367.094.537.151a2.054,2.054,0,0,1,.4.169A.814.814,0,0,1,39.5,1.8a.507.507,0,0,1,.085.311V2.55c0,.2-.075.3-.216.3a.979.979,0,0,1-.358-.113,4.306,4.306,0,0,0-1.807-.367,2.429,2.429,0,0,0-1.252.264.909.909,0,0,0-.442.838.889.889,0,0,0,.282.668,2.812,2.812,0,0,0,1.035.518l1.337.424a2.863,2.863,0,0,1,1.459.9A2.13,2.13,0,0,1,40.06,7.3,2.42,2.42,0,0,1,39.816,8.4a2.532,2.532,0,0,1-.687.828,3.034,3.034,0,0,1-1.045.527A4.476,4.476,0,0,1,36.738,9.949Z" transform="translate(12.12 18.74)" fill="#252f3e"/><path d="M16139.794,20960.135c-.293-.262-.031-.621.318-.416a27.8,27.8,0,0,0,24.689,1.535c.518-.234.961.342.453.719a20.306,20.306,0,0,1-11.465,3.5A20.721,20.721,0,0,1,16139.794,20960.135Zm25.932,3.9c.375-.932,1.215-3.031.818-3.531s-2.617-.242-3.625-.121c-.3.041-.348-.225-.076-.422,1.771-1.244,4.678-.887,5.018-.469s-.094,3.33-1.752,4.725a.414.414,0,0,1-.252.113C16165.728,20964.326,16165.653,20964.213,16165.726,20964.031Z" transform="translate(-16114.619 -20928.711)" fill="#f90"/></g></svg>