<svg xmlns="http://www.w3.org/2000/svg" width="32" height="32" viewBox="0 0 32 32"><g transform="translate(0.124)"><rect width="32" height="32" transform="translate(-0.124)" fill="none" opacity="0"/><path d="M27.651,23.836H29.32v3.6a2.48,2.48,0,0,1-2.729,2.681,2.487,2.487,0,0,1-2.755-2.681v-3.6h1.669v3.607a1.074,1.074,0,1,0,2.146,0Zm-.46,12.59-.528-.128c-.589-.145-.858-.315-.858-.606,0-.219.281-.455.858-.455a1.934,1.934,0,0,1,1.316.549l1.035-.837a2.718,2.718,0,0,0-2.342-1.135c-1.612,0-2.532.881-2.532,1.922,0,.8.574,1.64,2.056,2.007l.555.137c.546.137.746.239.746.5,0,.331-.438.514-.988.514a2.051,2.051,0,0,1-1.53-.682l-1.035.837a3.009,3.009,0,0,0,2.573,1.217c1.7,0,2.714-.793,2.714-1.93C29.23,37.476,28.682,36.786,27.192,36.426Zm11.519-2.436h-5.3V35.44h1.814v4.637H36.9V35.44h1.814Zm-1.47-8.351H34.877V28h2.364Z" transform="translate(-15.398 -16.053)"/></g></svg>