<svg xmlns="http://www.w3.org/2000/svg" width="32" height="32" viewBox="0 0 32 32"><g transform="translate(0.124)"><rect width="32" height="32" transform="translate(-0.124)" fill="none" opacity="0"/><path d="M0-496v16H32v-32H0Zm16.75-12.244a1.83,1.83,0,0,1,.538,2.963,1.8,1.8,0,0,1-2.575,0,1.839,1.839,0,0,1,.894-3.094A2.047,2.047,0,0,1,16.75-508.244Zm-7.5,5.819a36.355,36.355,0,0,1,3.488,3.831c1.762,2.025,3.231,3.688,3.262,3.688s1.5-1.663,3.263-3.687c3.5-4.025,3.475-4,4.063-3.95a1.173,1.173,0,0,1,.962,1.625c-.05.112-1.581,1.912-3.406,4.013s-3.312,3.831-3.306,3.856,1.469,1.706,3.237,3.744,3.288,3.794,3.369,3.913a1.232,1.232,0,0,1,.069,1.194,1.159,1.159,0,0,1-1.575.475c-.094-.05-1.619-1.762-3.4-3.806S16.025-491.25,16-491.25s-1.494,1.675-3.275,3.719-3.306,3.756-3.4,3.806a1.116,1.116,0,0,1-.831.1,1.137,1.137,0,0,1-.744-.575,1.232,1.232,0,0,1,.069-1.194c.081-.119,1.6-1.875,3.369-3.913s3.225-3.719,3.238-3.744-1.481-1.763-3.306-3.856-3.356-3.9-3.406-4.013a1.229,1.229,0,0,1,.344-1.388A1.055,1.055,0,0,1,9.25-502.425Z" transform="translate(-0.124 512)"/></g></svg>