<svg xmlns="http://www.w3.org/2000/svg" width="32" height="32" viewBox="0 0 32 32"><g transform="translate(0.124)"><rect width="32" height="32" transform="translate(-0.124)" fill="none" opacity="0"/><path d="M118.858,166.3c.034,0,.068.042.119.119s3.613,4.351,7.938,9.515,7.853,9.413,7.836,9.439-3.452,2.849-7.649,6.267-7.768,6.326-7.929,6.462c-.28.229-.3.237-.4.136-.059-.059-3.638-2.985-7.955-6.5s-7.836-6.42-7.819-6.462,3.562-4.274,7.9-9.413,7.878-9.388,7.9-9.456S118.832,166.3,118.858,166.3Z" transform="translate(-102.999 -166.3)" fill="#00bef2"/><path d="M171.9,268.529a2.773,2.773,0,0,1-1.331-1.162,2.7,2.7,0,0,1,.059-2.23c.263-.543.263-.56.093-.687-.093-.068-1.221-.7-2.493-1.382s-2.383-1.289-2.459-1.331c-.1-.059-.271,0-.577.2a2.2,2.2,0,0,1-2.841-.2,2.349,2.349,0,0,1-.119-3.333,2.265,2.265,0,0,1,2.366-.594c.458.153.466.153.755-.068.339-.254,3.061-2.739,4.376-3.986l.907-.865-.271-.568a2.551,2.551,0,0,1,.7-3.18,2.292,2.292,0,0,1,1.671-.543,2.561,2.561,0,0,1,2.332,3.5c-.178.458-.178.466-.008.746.144.246,2.6,3.206,3.893,4.715a1.563,1.563,0,0,0,.568.475,3.1,3.1,0,0,0,.645-.187,2.305,2.305,0,0,1,2.442,3.859,2,2,0,0,1-1.56.6,1.919,1.919,0,0,1-1.153-.322,1.513,1.513,0,0,0-.78-.271c-.2.051-3.333,2.2-4.028,2.756-.424.348-.458.475-.237.992a2.506,2.506,0,0,1-.051,1.806,2.7,2.7,0,0,1-1.484,1.272A2,2,0,0,1,171.9,268.529Zm.144-9.345V254.35l-.271-.373a1.927,1.927,0,0,0-.322-.373c-.11,0-5.589,4.978-5.589,5.08a5.689,5.689,0,0,0,.187.551,2.876,2.876,0,0,1,.17.907c-.008.229-.008.483-.008.568.008.2,1.84,1.365,4.588,2.951.755.441,1.018.551,1.111.475C172.023,264.043,172.048,263.1,172.048,259.184Zm2.324,4.274c3.63-2.281,4.308-2.739,4.351-2.909a6.5,6.5,0,0,0,.068-.9l.025-.712-1.849-2.2c-1.984-2.349-2.714-3.146-2.883-3.146a3.089,3.089,0,0,0-.661.373l-.56.373.025,4.825c.025,4.325.059,5.054.22,5.054C173.125,264.23,173.7,263.882,174.372,263.458Z" transform="translate(-156.63 -241.62)" fill="#fff"/></g></svg>