<svg xmlns="http://www.w3.org/2000/svg" width="32" height="32" viewBox="0 0 32 32"><g transform="translate(0.124)"><rect width="32" height="32" transform="translate(-0.124)" fill="none" opacity="0"/><g transform="translate(-259.634 5.677)"><path d="M274.442,9.9a1.954,1.954,0,0,0,.215-.061,50.844,50.844,0,0,0,4.968-1.809,18.885,18.885,0,0,0,4.569-2.606A10.2,10.2,0,0,0,287.382.92a3.19,3.19,0,0,0,.276-.92C285.45,3.036,276.65,3.342,276.65,3.342l2.085-1.9A29.067,29.067,0,0,0,261.9,6.9a15.9,15.9,0,0,1,8.923,3.986C272.019,10.518,273.246,10.242,274.442,9.9Z" fill="#f99d1c"/><path d="M310.328,31.165A48.7,48.7,0,0,0,293.8,33.25a17.075,17.075,0,0,1,2.79,3.956C301.006,34.783,307.17,31.625,310.328,31.165Z" transform="translate(-22.118 -21.567)" fill="#f99d1c"/><path d="M304.7,46.741a15.883,15.883,0,0,1,1.012,4.2L313.439,43Z" transform="translate(-29.676 -29.814)" fill="#f99d1c"/></g></g></svg>