<svg xmlns="http://www.w3.org/2000/svg" width="32" height="32" viewBox="0 0 32 32"><g transform="translate(-23.2 -12.3)"><rect width="32" height="32" transform="translate(23.2 12.3)" fill="#040f4b"/><path d="M4.571,10.052v8.142L0,20.742V7.734L13.373.3V5.158Zm8.8-4.9v8.126l-8.8,4.9v4.866l13.373-7.46V2.6Zm-2.768,6.8c-.464,0-.731-.379-.731-1.041s.267-1.045.731-1.045.731.381.731,1.045S11.062,11.951,10.6,11.951Zm-3.25,1.536c-.464,0-.731-.379-.731-1.041s.267-1.045.731-1.045.731.381.731,1.045-.274,1.041-.738,1.041Z" transform="translate(30.228 16.627)" fill="#e8ff26"/></g></svg>