<svg xmlns="http://www.w3.org/2000/svg" width="32" height="32" viewBox="0 0 32 32"><g transform="translate(0.124)"><rect width="32" height="32" transform="translate(-0.124)" fill="none" opacity="0"/><path d="M25.312,22.991,22.65,21.235l-2.221,3.71-2.583-.755-2.274,3.471.117,1.093,12.366-2.278-.718-7.726ZM13.78,19.66l1.984-.273a5,5,0,0,0,.929.3,2.917,2.917,0,0,0,2.321-.212,4.039,4.039,0,0,0,.939-.834l8.129-1.475L28.911,27.2,14.985,29.71Zm15.1-3.616-.8.153L26.536.27.27,3.316,3.506,29.575l3.074-.446A6.945,6.945,0,0,0,5.3,27.811c-.905-.752-.585-2.03-.051-2.837.707-1.363,4.348-3.1,4.141-5.275a3.847,3.847,0,0,0-.935-2.53,2.447,2.447,0,0,0,.022.576,2.962,2.962,0,0,1-.453-.911A4.461,4.461,0,0,1,7.6,16.3a2.018,2.018,0,0,0-.1.672A4.2,4.2,0,0,1,7.213,15.9a1.712,1.712,0,0,0-.183.639,4.133,4.133,0,0,1-.248-1.416,6.691,6.691,0,0,1-.458-3.232A2.612,2.612,0,0,0,9.578,11.3c.228-.336.385-1.252-.114-3.057A27.057,27.057,0,0,0,8.042,4.709L8,4.736c.163.527.5,1.632.628,2.167a5.854,5.854,0,0,1,.312,2.939c-.156.651-.53,1.077-1.477,1.553s-2.2-.685-2.284-.749A5.062,5.062,0,0,1,3.471,8.135c-.083-.636.367-1.018.593-1.538a5.832,5.832,0,0,0-.685.257,8.277,8.277,0,0,1,.963-.832,5.688,5.688,0,0,0,.581-.431c-.336-.006-.609,0-.609,0a10.889,10.889,0,0,1,1.141-.523c-.425-.019-.831,0-.831,0S5.874,4.51,6.861,4.1a1.342,1.342,0,0,1,1.715.343,2.973,2.973,0,0,0,2.092,1.327,8.963,8.963,0,0,1,1.712-.678,2.715,2.715,0,0,1,1.32-.919,1.337,1.337,0,0,0-.365.679,9.644,9.644,0,0,1,.879-.606,3.11,3.11,0,0,0-.344.569l.038.057a8.741,8.741,0,0,1,1.064-.525s-.164.208-.357.477c.369,0,1.117.016,1.407.049,1.714.038,2.07-1.831,2.728-2.065.824-.294,1.192-.472,2.6.907,1.2,1.184,2.145,3.3,1.678,3.777C22.633,7.885,21.86,7.337,21,6.27a4.621,4.621,0,0,1-.955-2.083,2.044,2.044,0,0,0-.662-1.133,3.711,3.711,0,0,1,.306,1.28,4.209,4.209,0,0,0,.567,2.241c-.052.1-.076.5-.134.573a8.046,8.046,0,0,0-2.138-1.423,12.111,12.111,0,0,1,3.03,3.265c.605,1.236.249,2.369.555,2.663a10.444,10.444,0,0,1,1.535,2.357,4.545,4.545,0,0,1-.509,3.58l-1.489.232a2.083,2.083,0,0,1-.56-.2,3.735,3.735,0,0,0,.324-.764l-.084-.148a6.286,6.286,0,0,1-1.885,1.66,3.186,3.186,0,0,1-2.451.209,14,14,0,0,1-3.908-2.089s-.013.255.065.312a13.929,13.929,0,0,0,2.5,2.081l-2.14.235,1.012,7.877c-.448.064-.518.1-1.009.166A5.276,5.276,0,0,0,10.8,24.048a4.086,4.086,0,0,0-2.952-.42l-.068.078a3.8,3.8,0,0,1,2.485.592A5.7,5.7,0,0,1,12.1,27.132a3.659,3.659,0,0,1-.331,3.51,3,3,0,0,1-3.981.315,2.433,2.433,0,0,0,1.666,1.267,3.184,3.184,0,0,0,2.809-.765,4.585,4.585,0,0,0,.837-3.276l.953-.138.344,2.446,15.769-1.9ZM19.286,9.4c-.044.1-.113.166-.009.493l.006.019.016.042.043.1a1.947,1.947,0,0,0,.736.928,2.4,2.4,0,0,1,.276-.03,1.265,1.265,0,0,1,.655.107,1.393,1.393,0,0,0,.007-.3c-.025-.485.1-1.309-.836-1.743a.957.957,0,0,0-1.009.091.4.4,0,0,1,.078.017c.249.087.08.173.036.275M21.9,13.923a3.419,3.419,0,0,0-1.095.007,5.22,5.22,0,0,0-1.771.5.558.558,0,0,0,.064.879A2.736,2.736,0,0,0,21,16.073c.387-.051.728-.664.97-1.22.166-.383.166-.8-.077-.931M15.128,10c.216-.2-1.074-.474-2.075.209A1.381,1.381,0,0,0,13,12.4a1.653,1.653,0,0,0,.183.139,6.019,6.019,0,0,1,.712-.283,6.361,6.361,0,0,1,1.15-.266,1.247,1.247,0,0,0,.28-.994c-.059-.722-.607-.608-.2-1" transform="translate(0.658 -0.27)" fill="#632ca6" fill-rule="evenodd"/></g></svg>