<svg xmlns="http://www.w3.org/2000/svg" viewBox="0 0 32 32"><rect width="32" height="32" rx="4" /><g transform="translate(8 8)"><g transform="translate(4 2.607)"><rect width="16" height="16" transform="translate(-4 -2.607)" fill="none"/><path d="M22988,20936.893a1.5,1.5,0,1,1,1.5,1.5A1.5,1.5,0,0,1,22988,20936.893Zm0-5a1.5,1.5,0,1,1,1.5,1.5A1.5,1.5,0,0,1,22988,20931.895Zm0-5a1.5,1.5,0,1,1,1.5,1.5A1.5,1.5,0,0,1,22988,20926.893Z" transform="translate(-22985.5 -20926.5)" fill="#2a354b"/></g></g></svg>