<svg xmlns="http://www.w3.org/2000/svg" width="220" height="120" viewBox="0 0 220 120"><rect width="220" height="120" fill="#fff" opacity="0"/><path d="M179.328,24.4c-2.069-15-44.483-22.759-64.655-21.207C62.986,7.171,55.594,29.331,27.755,38.165S-2.972,59.387,1.972,70.193s24.517,16.085,36.443,18.2c48.5,8.606,72.433-5.576,84.622-7.011,57.843-6.809,59-37.372,56.291-56.981" transform="translate(19.942 12.926)" fill="#f2f7f8"/><path d="M113.465,14.9h-25.1a7.451,7.451,0,0,1,0-14.9h25.1a7.451,7.451,0,1,1,0,14.9" transform="translate(-56.466 15.926)" fill="#d7e0e3"/><path d="M129.465,53.9h-25.1a7.451,7.451,0,0,1,0-14.9h25.1a7.451,7.451,0,0,1,0,14.9Z" transform="translate(35.543 50.605)" fill="none" stroke="#d7e0e3" stroke-miterlimit="10" stroke-width="1"/><path d="M129.465,53.9h-25.1a7.451,7.451,0,0,1,0-14.9h25.1a7.451,7.451,0,0,1,0,14.9Z" transform="translate(-58.948 15.59)" fill="none" stroke="#d7e0e3" stroke-miterlimit="10" stroke-width="1"/><path d="M136.465,90.9h-25.1a7.451,7.451,0,1,1,0-14.9h25.1a7.451,7.451,0,1,1,0,14.9" transform="translate(-28.948 13.605)" fill="#d7e0e3" stroke="#d7e0e3" stroke-width="1"/><path d="M41.416,19v6.239a6.377,6.377,0,0,0,6.378,6.378H162.538a6.377,6.377,0,0,1,6.378,6.378V58.844a6.377,6.377,0,0,1-6.378,6.378H141.794a6.378,6.378,0,0,0-6.378,6.378v6.786" transform="translate(3.543 11.219)" fill="none" stroke="#d7e0e3" stroke-miterlimit="10" stroke-width="1"/><g transform="translate(68.448 20.49)"><path d="M43.04,15.421A27.822,27.822,0,1,0,70.861,43.242,27.821,27.821,0,0,0,43.04,15.421m0,44.315A16.493,16.493,0,1,1,59.534,43.242,16.494,16.494,0,0,1,43.04,59.736" transform="translate(-11.416 -9.271)" fill="#0097ac"/><path d="M44.746,69.3a26.6,26.6,0,1,1,12.172-2.94" transform="translate(-11.416 -9.271)" fill="none" stroke="#152738" stroke-linecap="round" stroke-miterlimit="10" stroke-width="1.2"/><path d="M28.812,43.08a16.315,16.315,0,1,1,.869,5.271" transform="translate(-11.416 -9.271)" fill="none" stroke="#152738" stroke-linecap="round" stroke-miterlimit="10" stroke-width="1.2"/><line y2="6.358" transform="translate(33.416)" fill="none" stroke="#152738" stroke-linecap="round" stroke-miterlimit="10" stroke-width="1.2"/><line y2="6.358" transform="translate(33.416 60.477)" fill="none" stroke="#152738" stroke-linecap="round" stroke-miterlimit="10" stroke-width="1.2"/><line x2="3.179" y2="5.506" transform="translate(16.709 4.477)" fill="none" stroke="#152738" stroke-linecap="round" stroke-miterlimit="10" stroke-width="1.2"/><line x2="3.179" y2="5.506" transform="translate(46.945 56.85)" fill="none" stroke="#152738" stroke-linecap="round" stroke-miterlimit="10" stroke-width="1.2"/><line x2="5.506" y2="3.179" transform="translate(4.477 16.709)" fill="none" stroke="#152738" stroke-linecap="round" stroke-miterlimit="10" stroke-width="1.2"/><line x2="5.506" y2="3.179" transform="translate(56.85 46.945)" fill="none" stroke="#152738" stroke-linecap="round" stroke-miterlimit="10" stroke-width="1.2"/><line x2="6.358" transform="translate(0 33.416)" fill="none" stroke="#152738" stroke-linecap="round" stroke-miterlimit="10" stroke-width="1.2"/><line x2="6.358" transform="translate(60.477 33.416)" fill="none" stroke="#152738" stroke-linecap="round" stroke-miterlimit="10" stroke-width="1.2"/><line x1="5.506" y2="3.179" transform="translate(56.85 16.709)" fill="none" stroke="#152738" stroke-linecap="round" stroke-miterlimit="10" stroke-width="1.2"/><line x1="5.506" y2="3.179" transform="translate(4.477 46.945)" fill="none" stroke="#152738" stroke-linecap="round" stroke-miterlimit="10" stroke-width="1.2"/><line y1="5.506" x2="3.179" transform="translate(16.709 56.85)" fill="none" stroke="#152738" stroke-linecap="round" stroke-miterlimit="10" stroke-width="1.2"/><line y1="5.506" x2="3.179" transform="translate(46.947 4.477)" fill="none" stroke="#152738" stroke-linecap="round" stroke-miterlimit="10" stroke-width="1.2"/><path d="M76.411,61.163a14.31,14.31,0,1,0,14.31,14.31,14.31,14.31,0,0,0-14.31-14.31m0,22.794a8.484,8.484,0,1,1,8.484-8.484,8.484,8.484,0,0,1-8.484,8.484" transform="translate(-11.416 -9.271)" fill="#4db7c5"/><path d="M77.288,88.874a13.679,13.679,0,1,1,6.261-1.512" transform="translate(-11.416 -9.271)" fill="none" stroke="#152738" stroke-linecap="round" stroke-miterlimit="10" stroke-width="1.2"/><path d="M69.092,75.39a8.391,8.391,0,1,1,.447,2.711" transform="translate(-11.416 -9.271)" fill="none" stroke="#152738" stroke-linecap="round" stroke-miterlimit="10" stroke-width="1.2"/><line y2="3.27" transform="translate(65.916 48.729)" fill="none" stroke="#152738" stroke-linecap="round" stroke-miterlimit="10" stroke-width="1.2"/><line y2="3.27" transform="translate(65.916 79.834)" fill="none" stroke="#152738" stroke-linecap="round" stroke-miterlimit="10" stroke-width="1.2"/><line x2="1.635" y2="2.832" transform="translate(57.322 51.031)" fill="none" stroke="#152738" stroke-linecap="round" stroke-miterlimit="10" stroke-width="1.2"/><line x2="1.635" y2="2.832" transform="translate(72.875 77.971)" fill="none" stroke="#152738" stroke-linecap="round" stroke-miterlimit="10" stroke-width="1.2"/><line x2="2.832" y2="1.635" transform="translate(51.031 57.322)" fill="none" stroke="#152738" stroke-linecap="round" stroke-miterlimit="10" stroke-width="1.2"/><line x2="2.832" y2="1.635" transform="translate(77.971 72.875)" fill="none" stroke="#152738" stroke-linecap="round" stroke-miterlimit="10" stroke-width="1.2"/><line x2="3.27" transform="translate(48.729 65.916)" fill="none" stroke="#152738" stroke-linecap="round" stroke-miterlimit="10" stroke-width="1.2"/><line x2="3.27" transform="translate(79.834 65.916)" fill="none" stroke="#152738" stroke-linecap="round" stroke-miterlimit="10" stroke-width="1.2"/><line x1="2.832" y2="1.635" transform="translate(77.971 57.322)" fill="none" stroke="#152738" stroke-linecap="round" stroke-miterlimit="10" stroke-width="1.2"/><line x1="2.832" y2="1.635" transform="translate(51.031 72.875)" fill="none" stroke="#152738" stroke-linecap="round" stroke-miterlimit="10" stroke-width="1.2"/><line y1="2.832" x2="1.635" transform="translate(57.322 77.971)" fill="none" stroke="#152738" stroke-linecap="round" stroke-miterlimit="10" stroke-width="1.2"/><line y1="2.832" x2="1.635" transform="translate(72.875 51.031)" fill="none" stroke="#152738" stroke-linecap="round" stroke-miterlimit="10" stroke-width="1.2"/></g><path d="M193.465,53.9h-25.1a7.451,7.451,0,0,1,0-14.9h25.1a7.451,7.451,0,0,1,0,14.9" transform="translate(-8.456 15.592)" fill="#d7e0e3"/></svg>