<svg width="220" height="120" viewBox="0 0 220 120" fill="none" xmlns="http://www.w3.org/2000/svg">
<g clip-path="url(#clip0_8_9)">
<path d="M56.999 30.826H31.899C29.9443 30.794 28.0804 29.995 26.7094 28.6013C25.3384 27.2077 24.5701 25.331 24.5701 23.376C24.5701 21.421 25.3384 19.5443 26.7094 18.1507C28.0804 16.757 29.9443 15.958 31.899 15.926H56.999C57.9876 15.9098 58.9696 16.0905 59.8876 16.4577C60.8057 16.8248 61.6415 17.371 62.3464 18.0644C63.0512 18.7578 63.611 19.5845 63.9932 20.4965C64.3753 21.4084 64.5721 22.3873 64.5721 23.376C64.5721 24.3648 64.3753 25.3436 63.9932 26.2555C63.611 27.1675 63.0512 27.9942 62.3464 28.6876C61.6415 29.381 60.8057 29.9272 59.8876 30.2943C58.9696 30.6615 57.9876 30.8422 56.999 30.826Z" fill="#D7E0E3"/>
<path d="M165.008 104.505H139.908C137.953 104.473 136.089 103.674 134.718 102.28C133.347 100.887 132.579 99.01 132.579 97.055C132.579 95.1 133.347 93.2233 134.718 91.8297C136.089 90.436 137.953 89.637 139.908 89.605H165.008C166.963 89.637 168.827 90.436 170.198 91.8297C171.569 93.2233 172.337 95.1 172.337 97.055C172.337 99.01 171.569 100.887 170.198 102.28C168.827 103.674 166.963 104.473 165.008 104.505Z" stroke="#D7E0E3" stroke-miterlimit="10"/>
<path d="M70.517 69.49H45.417C43.4623 69.458 41.5985 68.659 40.2274 67.2653C38.8564 65.8717 38.0881 63.995 38.0881 62.04C38.0881 60.085 38.8564 58.2083 40.2274 56.8147C41.5985 55.421 43.4623 54.622 45.417 54.59H70.517C72.4717 54.622 74.3356 55.421 75.7066 56.8147C77.0776 58.2083 77.8459 60.085 77.8459 62.04C77.8459 63.995 77.0776 65.8717 75.7066 67.2653C74.3356 68.659 72.4717 69.458 70.517 69.49Z" stroke="#D7E0E3" stroke-miterlimit="10"/>
<path d="M107.517 104.505H82.417C81.4284 104.521 80.4464 104.34 79.5284 103.973C78.6103 103.606 77.7745 103.06 77.0696 102.367C76.3648 101.673 75.805 100.846 75.4228 99.9345C75.0407 99.0226 74.8439 98.0438 74.8439 97.055C74.8439 96.0662 75.0407 95.0874 75.4228 94.1755C75.805 93.2635 76.3648 92.4368 77.0696 91.7434C77.7745 91.05 78.6103 90.5038 79.5284 90.1367C80.4464 89.7695 81.4284 89.5888 82.417 89.605H107.517C108.506 89.5888 109.488 89.7695 110.406 90.1367C111.324 90.5038 112.16 91.05 112.864 91.7434C113.569 92.4368 114.129 93.2635 114.511 94.1755C114.893 95.0874 115.09 96.0662 115.09 97.055C115.09 98.0438 114.893 99.0226 114.511 99.9345C114.129 100.846 113.569 101.673 112.864 102.367C112.16 103.06 111.324 103.606 110.406 103.973C109.488 104.34 108.506 104.521 107.517 104.505Z" fill="#D7E0E3" stroke="#D7E0E3"/>
<path d="M44.959 30.219V36.458C44.9589 37.2956 45.1238 38.125 45.4442 38.8989C45.7647 39.6728 46.2345 40.3759 46.8268 40.9682C47.4191 41.5605 48.1222 42.0303 48.8961 42.3508C49.67 42.6713 50.4994 42.8361 51.337 42.836H166.081C166.919 42.8359 167.748 43.0008 168.522 43.3212C169.296 43.6417 169.999 44.1115 170.591 44.7038C171.183 45.2961 171.653 45.9992 171.974 46.7731C172.294 47.547 172.459 48.3764 172.459 49.214V70.063C172.459 70.9006 172.294 71.73 171.974 72.5039C171.653 73.2778 171.183 73.9809 170.591 74.5732C169.999 75.1655 169.296 75.6353 168.522 75.9558C167.748 76.2763 166.919 76.4411 166.081 76.441H145.337C144.499 76.441 143.67 76.606 142.896 76.9265C142.122 77.247 141.419 77.7168 140.827 78.3091C140.235 78.9013 139.765 79.6044 139.444 80.3783C139.124 81.1521 138.959 81.9814 138.959 82.819V89.605" stroke="#D7E0E3" stroke-miterlimit="10"/>
<path d="M185.009 69.492H159.909C157.954 69.46 156.09 68.661 154.719 67.2673C153.348 65.8737 152.58 63.997 152.58 62.042C152.58 60.087 153.348 58.2103 154.719 56.8167C156.09 55.423 157.954 54.624 159.909 54.592H185.009C186.964 54.624 188.828 55.423 190.199 56.8167C191.57 58.2103 192.338 60.087 192.338 62.042C192.338 63.997 191.57 65.8737 190.199 67.2673C188.828 68.661 186.964 69.46 185.009 69.492Z" fill="#D7E0E3"/>
<rect x="52.3514" y="21" width="114.568" height="70.0541" rx="9" fill="#0097AC"/>
<path d="M88.1081 21.7297H61.8378C57.0016 21.7297 53.0811 25.6503 53.0811 30.4865V30.4865M141.743 21.7297H158.649C163.619 21.7297 167.649 25.7592 167.649 30.7297V39.2432M84.4595 91.7838H158.892C163.728 91.7838 167.649 87.8632 167.649 83.027V83.027M53.0811 46.9054V82.7838C53.0811 87.7543 57.1105 91.7838 62.0811 91.7838H67.402" stroke="#152738"/>
<rect x="55.2703" y="23.9189" width="108.73" height="64.2162" rx="6" fill="#E7E9EC"/>
<rect x="85.9189" y="95.4324" width="47.4324" height="5.83784" rx="2.91892" fill="#4DB7C5"/>
<path d="M122.223 96.1622H131.162C132.774 96.1622 134.081 97.469 134.081 99.0811V99.0811C134.081 100.693 132.774 102 131.162 102H128.152M94.3108 96.1622H89.5676C87.9555 96.1622 86.6486 97.469 86.6486 99.0811V99.0811C86.6486 100.693 87.9555 102 89.5676 102H92.5777H98.5068H110.365H116.294" stroke="#152738"/>
<path d="M140.956 25.3784H62.4595C59.698 25.3784 57.4595 27.617 57.4595 30.3784V33.1318M148.514 87.4054H158.27C161.032 87.4054 163.27 85.1668 163.27 82.4054V52.2568M57.4595 75.6892V82.4054C57.4595 85.1668 59.698 87.4054 62.4595 87.4054H132.679" stroke="#152738"/>
<path d="M61.3333 79.5C61.3333 80.9728 62.5272 82.1667 64 82.1667C65.4728 82.1667 66.6667 80.9728 66.6667 79.5C66.6667 78.0272 65.4728 76.8333 64 76.8333C62.5272 76.8333 61.3333 78.0272 61.3333 79.5ZM153.833 31C153.833 32.4728 155.027 33.6667 156.5 33.6667C157.973 33.6667 159.167 32.4728 159.167 31C159.167 29.5272 157.973 28.3333 156.5 28.3333C155.027 28.3333 153.833 29.5272 153.833 31ZM64.2322 79.9428L156.732 31.4428L156.268 30.5572L63.7678 79.0572L64.2322 79.9428Z" fill="#152738" fill-opacity="0.4"/>
</g>
<defs>
<clipPath id="clip0_8_9">
<rect width="220" height="120" fill="white"/>
</clipPath>
</defs>
</svg>
