<svg xmlns="http://www.w3.org/2000/svg" width="32" height="31.999" viewBox="0 0 32 31.999"><g transform="translate(0 -0.003)"><path d="M20,32H12A12,12,0,0,1,0,20V12A12,12,0,0,1,12,0h8A12,12,0,0,1,32,12v8A12,12,0,0,1,20,32ZM16.121,18.726h0L20,22.6a1.01,1.01,0,0,0,.713.293,1,1,0,0,0,.706-.293L22.5,21.522a1,1,0,0,0,.293-.707.966.966,0,0,0-.293-.7l-3.877-3.883,2.8-2.807a.593.593,0,0,0,0-.846l-2-2a.614.614,0,0,0-.854,0L15.77,13.379,11.889,9.5a1,1,0,0,0-.707-.292,1.02,1.02,0,0,0-.711.292L9.4,10.58A1.007,1.007,0,0,0,9.4,12l3.876,3.877-3.594,3.6a.6.6,0,0,0-.177.424v2a.6.6,0,0,0,.6.6h2a.582.582,0,0,0,.422-.178l3.595-3.593Zm4.174-9.62a.591.591,0,0,0-.422.173.6.6,0,0,0,0,.852l2,2a.6.6,0,0,0,.848,0,.6.6,0,0,0,0-.848l-2-2A.608.608,0,0,0,20.294,9.106Zm.416,12.786h0l-1.071-1.069.356-.354a.5.5,0,0,0,0-.7.508.508,0,0,0-.356-.145.493.493,0,0,0-.351.145l-.356.353-.67-.671.351-.352a.506.506,0,0,0,0-.711.494.494,0,0,0-.352-.144.5.5,0,0,0-.354.144l-.354.357-.723-.722,1.082-1.085,3.881,3.881-1.081,1.077Zm-8.853-.6H10.7v-1.15l8.3-8.3L20.156,13l-8.3,8.3Zm2.127-6.129h0l-.673-.671.355-.352a.5.5,0,0,0,0-.707.51.51,0,0,0-.71,0l-.352.352-.723-.721.352-.351a.5.5,0,0,0,.149-.358A.5.5,0,0,0,11.527,12l-.354.356-1.068-1.067v-.006l1.076-1.082,3.881,3.881-1.077,1.079Z" fill="#4b576c"/></g></svg>