<svg xmlns="http://www.w3.org/2000/svg" width="32.003" height="32.005" viewBox="0 0 32.003 32.005"><g transform="translate(0.003 0.003)"><path d="M20,32H12A12,12,0,0,1,0,20V12A12,12,0,0,1,12,0h8A12,12,0,0,1,32,12V20A12,12,0,0,1,20,32Zm-.541-15.325a2.669,2.669,0,0,0-2.669,2.664v3.133a2.671,2.671,0,0,0,2.669,2.667H22.59a2.672,2.672,0,0,0,2.671-2.667V19.341a2.671,2.671,0,0,0-2.671-2.664ZM6.746,20.111a.8.8,0,1,0,0,1.6H8.94V23.9a.8.8,0,1,0,1.6,0V21.707h2.186a.8.8,0,1,0,0-1.6H10.543V17.917a.8.8,0,1,0-1.6,0v2.194ZM15.381,5.792a4.941,4.941,0,1,0,4.937,4.944A4.945,4.945,0,0,0,15.381,5.792Zm7.209,17.75H19.459a1.07,1.07,0,0,1-1.068-1.068V19.341a1.07,1.07,0,0,1,1.068-1.068H22.59a1.069,1.069,0,0,1,1.066,1.068v3.133A1.069,1.069,0,0,1,22.59,23.542Zm-7.209-9.466a3.34,3.34,0,1,1,3.337-3.34A3.344,3.344,0,0,1,15.381,14.076Z" fill="#fe8d4c"/></g></svg>