<svg xmlns="http://www.w3.org/2000/svg" width="32" height="32" viewBox="0 0 32 32"><g transform="translate(0.003 0)"><path d="M20,32H12A12,12,0,0,1,0,20V12A12,12,0,0,1,12,0h8A12,12,0,0,1,32,12v8A12,12,0,0,1,20,32ZM10,15.7a2.593,2.593,0,0,0-1.844.762l-.922.922a5.22,5.22,0,1,0,7.383,7.383l.922-.923a2.6,2.6,0,0,0,.168-3.506l2.313-2.316a.786.786,0,0,0,.237-.566.794.794,0,0,0-1.362-.559l-2.311,2.3L12.8,17.416l2.3-2.3a.794.794,0,0,0,.239-.571.8.8,0,0,0-1.364-.56l-2.315,2.314A2.628,2.628,0,0,0,10,15.7ZM21.076,5.7a5.2,5.2,0,0,0-3.7,1.53l-.105.107a2.606,2.606,0,0,0,0,3.694l3.689,3.69a2.614,2.614,0,0,0,1.85.767,2.585,2.585,0,0,0,1.84-.767l.109-.11A5.22,5.22,0,0,0,21.076,5.7ZM10.923,24.692a3.619,3.619,0,0,1-2.558-6.178l.922-.924a.994.994,0,0,1,.711-.3,1.02,1.02,0,0,1,.716.3l3.69,3.694a1.012,1.012,0,0,1,0,1.426l-.922.923A3.6,3.6,0,0,1,10.923,24.692Zm11.89-10.8A1.017,1.017,0,0,1,22.1,13.6L18.409,9.9a.983.983,0,0,1-.3-.7,1,1,0,0,1,.3-.723l.105-.109a3.619,3.619,0,1,1,5.117,5.118l-.106.116A1,1,0,0,1,22.813,13.889Z" fill="#2dbad1"/></g></svg>