<svg xmlns="http://www.w3.org/2000/svg" width="32" height="32" viewBox="0 0 32 32"><g transform="translate(0 -0.003)"><path d="M20,32H12A12,12,0,0,1,0,20V12A12,12,0,0,1,12,0h8A12,12,0,0,1,32,12v8A12,12,0,0,1,20,32ZM10.5,5.6A2.4,2.4,0,0,0,8.1,8V24a2.4,2.4,0,0,0,2.4,2.4h11A2.4,2.4,0,0,0,23.9,24V11a1.418,1.418,0,0,0-.407-.99l-4-4A1.391,1.391,0,0,0,18.5,5.6ZM21.5,25h-11a1,1,0,0,1-1-1V8a1,1,0,0,1,1-1h7.353l-.023,3.541a.7.7,0,0,0,.7.7h3.905c.023,0,.046,0,.068,0V24A1,1,0,0,1,21.5,25ZM12,20.3a.7.7,0,1,0,0,1.4h6a.7.7,0,1,0,0-1.4Zm0-3a.7.7,0,1,0,0,1.4h7.5a.7.7,0,1,0,0-1.4Zm0-4a.7.7,0,1,0,0,1.4h4a.7.7,0,1,0,0-1.4Zm9.348-3.457H19.236l.013-2.1,2.1,2.1Z" fill="#56a0d2"/></g></svg>