<svg xmlns="http://www.w3.org/2000/svg" width="32.002" height="32.002" viewBox="0 0 32.002 32.002"><path d="M15535,20832h-8a12.012,12.012,0,0,1-12-12v-8a12.015,12.015,0,0,1,12-12h8a12.006,12.006,0,0,1,12,12v8A12.015,12.015,0,0,1,15535,20832Zm-5.864-10.053a.671.671,0,0,0-.368.109l-1.312.82a.692.692,0,0,0-.313.434.742.742,0,0,0,.089.529l.821,1.311a.707.707,0,0,0,.6.33.687.687,0,0,0,.366-.109.7.7,0,0,0,.225-.963l-.037-.057a8.715,8.715,0,0,0,1.8.188,8.555,8.555,0,0,0,7.268-13.074.7.7,0,0,0-1.274.211.686.686,0,0,0,.087.525,7.161,7.161,0,0,1-6.08,10.938,6.823,6.823,0,0,1-1.271-.115.7.7,0,0,0-.594-1.076Zm.846-1.473a1.639,1.639,0,0,1,1.285.615.781.781,0,0,0,.612.3.793.793,0,0,0,.758-.539,1.648,1.648,0,0,1,1.56-1.117,1.527,1.527,0,0,1,.317.033.964.964,0,0,0,.162.014.791.791,0,0,0,.731-1.078,1.648,1.648,0,0,1,.741-2.043.789.789,0,0,0,0-1.387,1.659,1.659,0,0,1-.742-2.043.781.781,0,0,0-.084-.732.794.794,0,0,0-.652-.344.645.645,0,0,0-.157.016,1.909,1.909,0,0,1-.321.031,1.644,1.644,0,0,1-1.556-1.119.8.8,0,0,0-1.37-.242,1.642,1.642,0,0,1-2.138.377.791.791,0,0,0-.409-.115.8.8,0,0,0-.568.238.79.79,0,0,0-.226.572,1.653,1.653,0,0,1-1.4,1.662.793.793,0,0,0-.625.518.781.781,0,0,0,.149.791,1.655,1.655,0,0,1,0,2.168.776.776,0,0,0-.194.523.788.788,0,0,0,.67.785,1.653,1.653,0,0,1,1.4,1.662.79.79,0,0,0,.226.572.8.8,0,0,0,.568.238.791.791,0,0,0,.409-.115A1.63,1.63,0,0,1,15529.979,20820.477Zm1.023-13.047a8.56,8.56,0,0,0-7.481,12.715.708.708,0,0,0,.612.361.7.7,0,0,0,.611-1.041,7.163,7.163,0,0,1,6.258-10.639,6.725,6.725,0,0,1,.728.037.7.7,0,0,0,.5,1.186.694.694,0,0,0,.34-.088l1.349-.748a.693.693,0,0,0,.334-.412.707.707,0,0,0-.056-.539l-.753-1.35a.7.7,0,0,0-.615-.363.685.685,0,0,0-.336.086.724.724,0,0,0-.335.424.67.67,0,0,0,.025.449A8.8,8.8,0,0,0,15531,20807.43Zm.706,12.188v0a3.045,3.045,0,0,0-1.724-.537,2.941,2.941,0,0,0-.769.1,2.2,2.2,0,0,1-1.354-3.211,2.956,2.956,0,0,0-.277-1.264,1.8,1.8,0,0,1,2.387-1.852,2.723,2.723,0,0,1,3.935.732c-.007.088-.011.166-.011.24a3.049,3.049,0,0,1,0,4.281c0,.092.006.178.011.24a3.085,3.085,0,0,0-2.2,1.27Zm-.6-4.77a1.114,1.114,0,1,0,1.113,1.115A1.116,1.116,0,0,0,15531.108,20814.848Z" transform="translate(-15515 -20800)" fill="#003c51"/></svg>