<svg xmlns="http://www.w3.org/2000/svg" width="31.999" height="32" viewBox="0 0 31.999 32"><g transform="translate(0 -0.002)"><path d="M-4879-5094h-8a11.919,11.919,0,0,1-8.485-3.515A11.921,11.921,0,0,1-4899-5106v-8a11.92,11.92,0,0,1,3.515-8.485A11.92,11.92,0,0,1-4887-5126h8a11.92,11.92,0,0,1,8.485,3.515A11.92,11.92,0,0,1-4867-5114v8a11.921,11.921,0,0,1-3.515,8.485A11.919,11.919,0,0,1-4879-5094Zm1.8-21.521a.593.593,0,0,0-.424.177l-1.73,1.73a3.064,3.064,0,0,0-.556,2.533,9.492,9.492,0,0,0,.2,1.153l-6.229,6.229a.6.6,0,0,0-.175.438.6.6,0,0,0,.2.43l1.455,1.324a.6.6,0,0,0,.4.155.6.6,0,0,0,.425-.175l6.156-6.157a7.832,7.832,0,0,0,1.811.246,2.558,2.558,0,0,0,1.876-.618l1.73-1.73a.6.6,0,0,0,.175-.424.6.6,0,0,0-.175-.425l-1.376-1.376a.6.6,0,0,0-.425-.175.6.6,0,0,0-.407.159,9.912,9.912,0,0,1-1.63,1.277,1.792,1.792,0,0,1-.759-.755,7.056,7.056,0,0,1,1.276-1.6.6.6,0,0,0,0-.848l-1.388-1.388A.594.594,0,0,0-4877.2-5115.521Zm-9.084-1.955a2.073,2.073,0,0,0-1.023.274,2.056,2.056,0,0,0-1.059,1.86,1.133,1.133,0,0,1-.962,1.151,2.076,2.076,0,0,0-1.762,2.067,2.075,2.075,0,0,0,.515,1.37,1.152,1.152,0,0,1,.282.752,1.147,1.147,0,0,1-.281.75,2.083,2.083,0,0,0-.516,1.372,2.081,2.081,0,0,0,1.762,2.068,1.132,1.132,0,0,1,.962,1.15,2.09,2.09,0,0,0,.27,1.085l.762-.767a1.108,1.108,0,0,1-.032-.3,2.127,2.127,0,0,0-1.809-2.16,1.082,1.082,0,0,1-.916-1.079,1.083,1.083,0,0,1,.27-.714,2.154,2.154,0,0,0,.526-1.408,2.144,2.144,0,0,0-.529-1.41,1.08,1.08,0,0,1-.268-.713,1.082,1.082,0,0,1,.916-1.079,2.123,2.123,0,0,0,1.809-2.16,1.073,1.073,0,0,1,.551-.97,1.076,1.076,0,0,1,.531-.143,1.089,1.089,0,0,1,.558.158,2.116,2.116,0,0,0,1.1.31,2.122,2.122,0,0,0,1.667-.8,1.055,1.055,0,0,1,.831-.407,1.125,1.125,0,0,1,.2.018,1.073,1.073,0,0,1,.837.719,2.119,2.119,0,0,0,1.025,1.206l.877-.762a1.137,1.137,0,0,1-.957-.764,2.061,2.061,0,0,0-1.607-1.384,2.192,2.192,0,0,0-.375-.032,2.057,2.057,0,0,0-1.612.781,1.127,1.127,0,0,1-.886.423,1.126,1.126,0,0,1-.583-.162A2.075,2.075,0,0,0-4886.282-5117.476Zm3.1,4.338a3.136,3.136,0,0,0-3.126,3.138,3.156,3.156,0,0,0,1.78,2.83l.767-.774a2.144,2.144,0,0,1-1.547-2.056,2.135,2.135,0,0,1,2.126-2.138,2.105,2.105,0,0,1,1.69.843l.132-1.253A3.093,3.093,0,0,0-4883.187-5113.138Zm-.888,10.633h0l-.861-.783,6.324-6.325-.125-.541a8.222,8.222,0,0,1-.175-1.026,2.331,2.331,0,0,1,.268-1.725l1.447-1.449.827.829a6.347,6.347,0,0,0-1.241,1.707l-.09.272.068.279a2.6,2.6,0,0,0,1.38,1.454l.391.146.379-.175a9.67,9.67,0,0,0,1.6-1.194l.826.826-1.447,1.447a1.744,1.744,0,0,1-1.169.324,6.938,6.938,0,0,1-1.569-.216l-.549-.136-6.286,6.286Z" transform="translate(4899 5126.002)" fill="#0097ac"/></g></svg>