<svg xmlns="http://www.w3.org/2000/svg" width="31.995" height="32" viewBox="0 0 31.995 32"><g transform="translate(-0.003 -0.004)"><path d="M20,32H12A12,12,0,0,1,0,20V12A12,12,0,0,1,12,0H20A12,12,0,0,1,32,12v8A12,12,0,0,1,20,32Zm.979-23.317v0c-.1,2.247-.649,3.709-1.687,4.468a7.116,7.116,0,0,1-3.9.861c-2.548.117-5.719.262-6,4.864a3.594,3.594,0,0,0-1.778,6.059l.035.037a3.6,3.6,0,1,0,5.086-5.088l-.033-.035A3.618,3.618,0,0,0,11,18.894c.2-3.083,1.9-3.16,4.471-3.277a8.541,8.541,0,0,0,4.772-1.168c1.451-1.065,2.214-2.937,2.332-5.725l1.514,1.51a.772.772,0,0,0,.562.239.8.8,0,0,0,.565-1.366l-2.9-2.9a.78.78,0,0,0-.558-.236.805.805,0,0,0-.569.236L18.371,9.029a.8.8,0,0,0,0,1.127.789.789,0,0,0,.565.239.78.78,0,0,0,.562-.239l1.477-1.471Zm-1,11.116a.8.8,0,0,0-.565.232.8.8,0,0,0,0,1.13l1.252,1.252-1.252,1.256a.781.781,0,0,0-.236.558.8.8,0,0,0,.8.8.8.8,0,0,0,.565-.233l1.254-1.255,1.254,1.255a.79.79,0,0,0,.563.232.8.8,0,0,0,.569-1.359l-1.258-1.256,1.25-1.252a.786.786,0,0,0,.236-.558.8.8,0,0,0-.236-.571.792.792,0,0,0-.562-.232.806.806,0,0,0-.566.232l-1.248,1.25-1.254-1.25A.786.786,0,0,0,19.977,19.8Zm-9.8-9.042h0l1.255,1.254a.778.778,0,0,0,.563.236.788.788,0,0,0,.564-.236.805.805,0,0,0,0-1.13L11.3,9.63l1.25-1.247a.8.8,0,0,0,.237-.573.809.809,0,0,0-.8-.794.8.8,0,0,0-.567.237L10.174,8.5,8.922,7.253a.783.783,0,0,0-.562-.237.792.792,0,0,0-.565.237.8.8,0,0,0,0,1.129L9.047,9.63,7.795,10.882a.8.8,0,0,0-.239.571.81.81,0,0,0,.8.794.8.8,0,0,0,.566-.236l1.251-1.254Zm.02,13.67a1.99,1.99,0,0,1-1.415-.587l-.037-.03a2.018,2.018,0,0,1,0-2.83,2,2,0,0,1,1.414-.584,1.975,1.975,0,0,1,1.41.584l.043.035a2,2,0,0,1-1.416,3.411Z" transform="translate(0 0.004)" fill="#5075c1"/></g></svg>