<svg xmlns="http://www.w3.org/2000/svg" width="32" height="32" viewBox="0 0 32 32"><g transform="translate(0 -0.003)"><path d="M20,32H12A12,12,0,0,1,0,20V12A12,12,0,0,1,12,0h8A12,12,0,0,1,32,12v8A12,12,0,0,1,20,32ZM8,5.333A2.67,2.67,0,0,0,5.331,8v1.34A2.67,2.67,0,0,0,8,12.005h3.333v13.33a.726.726,0,0,0,.693.788c.322,0,.646-.243.646-.788v-4A3.31,3.31,0,0,0,14.665,22h4a2.672,2.672,0,0,0,2.667,2.668h4A2.671,2.671,0,0,0,28,22V20.668a2.668,2.668,0,0,0-2.668-2.662h-4a2.667,2.667,0,0,0-2.666,2.662H14.665a2,2,0,0,1-1.994-2V12.005H16A2.67,2.67,0,0,0,18.67,9.339V8A2.67,2.67,0,0,0,16,5.333Zm17.337,17.74h-4A1.071,1.071,0,0,1,20.266,22V20.668a1.068,1.068,0,0,1,1.07-1.063h4a1.068,1.068,0,0,1,1.07,1.063V22A1.071,1.071,0,0,1,25.335,23.073ZM16,10.4H8A1.066,1.066,0,0,1,6.93,9.339V8A1.066,1.066,0,0,1,8,6.937h8A1.066,1.066,0,0,1,17.071,8v1.34A1.066,1.066,0,0,1,16,10.4Z" fill="#91bc47"/></g></svg>