<svg xmlns="http://www.w3.org/2000/svg" width="32" height="31.999" viewBox="0 0 32 31.999"><g transform="translate(0 -0.003)"><path d="M20,32H12A12,12,0,0,1,0,20V12A12,12,0,0,1,12,0h8A12,12,0,0,1,32,12v8A12,12,0,0,1,20,32ZM15.3,20.57v4.363a.7.7,0,1,0,1.4,0V20.572l.855.688a.684.684,0,0,0,.431.151.705.705,0,0,0,.551-.264.7.7,0,0,0-.108-.985l-1.992-1.589A.7.7,0,0,0,16,18.416a.721.721,0,0,0-.442.157l-1.988,1.589a.708.708,0,0,0-.113.985.7.7,0,0,0,.985.113l.858-.688Zm5.382-7.235a.7.7,0,0,0-.546.26l-1.6,1.994a.714.714,0,0,0,0,.877l1.6,1.993a.7.7,0,0,0,1.244-.362.686.686,0,0,0-.148-.513l-.684-.856h4.36a.7.7,0,0,0,0-1.4H20.549l.686-.853a.688.688,0,0,0,.148-.514.7.7,0,0,0-.7-.624ZM7.092,15.326a.7.7,0,0,0,0,1.4h4.36l-.684.856a.7.7,0,0,0,.107.982.716.716,0,0,0,.44.155.706.706,0,0,0,.548-.262l1.592-1.993a.7.7,0,0,0,0-.877L11.863,13.6a.707.707,0,0,0-.988-.107.7.7,0,0,0-.107.985l.686.853ZM16,15.01a1,1,0,1,0,1,1A1,1,0,0,0,16,15.01Zm-1.99-4.371a.709.709,0,0,0-.553.265.689.689,0,0,0-.146.511.7.7,0,0,0,.26.471l1.988,1.592a.693.693,0,0,0,.878,0l1.992-1.592a.7.7,0,1,0-.875-1.1l-.855.686V7.121a.7.7,0,1,0-1.4,0v4.358l-.86-.688A.68.68,0,0,0,14.012,10.639Z" fill="#8968cf"/></g></svg>