<svg xmlns="http://www.w3.org/2000/svg" width="32" height="32" viewBox="0 0 32 32"><g transform="translate(0 -0.003)"><path d="M20,32H12A12,12,0,0,1,0,20V12A12,12,0,0,1,12,0h8A12,12,0,0,1,32,12v8A12,12,0,0,1,20,32ZM19.045,24.4a1.173,1.173,0,1,0,.827.343A1.164,1.164,0,0,0,19.045,24.4Zm-6.981-4.673h0l4.059,4.059a.8.8,0,0,0,1.372-.573.779.779,0,0,0-.236-.557l-3.9-3.9a4.108,4.108,0,0,0,.986-1.984.719.719,0,0,0,.217.031h4.7a.8.8,0,0,0,0-1.6h-4.7a.72.72,0,0,0-.217.031,4.077,4.077,0,0,0-.994-1.984l3.9-3.9a.807.807,0,0,0,0-1.13.8.8,0,0,0-.567-.234.806.806,0,0,0-.57.234l-4.064,4.064a4.109,4.109,0,1,0,0,7.436Zm11.395-6.071A2.35,2.35,0,1,0,25.81,16,2.353,2.353,0,0,0,23.458,13.652ZM19.045,5.266a1.174,1.174,0,0,0,0,2.347,1.181,1.181,0,0,0,1.172-1.175,1.17,1.17,0,0,0-1.171-1.172ZM10.31,18.512a2.514,2.514,0,1,1,1.777-.738A2.487,2.487,0,0,1,10.31,18.512Zm13.148-1.765a.748.748,0,1,1,.75-.743A.747.747,0,0,1,23.458,16.746Z" fill="#8968cf"/></g></svg>