<svg width="220" height="120" viewBox="0 0 220 120" fill="none" xmlns="http://www.w3.org/2000/svg">
<g clip-path="url(#clip0_8_9)">
<rect x="52.3514" y="21" width="114.568" height="70.0541" rx="9" fill="#0097AC"/>
<path d="M88.1081 21.7297H61.8378C57.0016 21.7297 53.0811 25.6503 53.0811 30.4865V30.4865M141.743 21.7297H158.649C163.619 21.7297 167.649 25.7592 167.649 30.7297V39.2432M84.4595 91.7838H158.892C163.728 91.7838 167.649 87.8632 167.649 83.027V83.027M53.0811 46.9054V82.7838C53.0811 87.7543 57.1105 91.7838 62.0811 91.7838H67.402" stroke="#152738"/>
<rect x="55.2703" y="23.9189" width="108.73" height="64.2162" rx="6" fill="#E7E9EC"/>
<rect x="85.9189" y="95.4324" width="47.4324" height="5.83784" rx="2.91892" fill="#D7E0E3"/>
<path d="M122.223 96.1622H131.162C132.774 96.1622 134.081 97.469 134.081 99.0811V99.0811C134.081 100.693 132.774 102 131.162 102H128.152M94.3108 96.1622H89.5676C87.9555 96.1622 86.6486 97.469 86.6486 99.0811V99.0811C86.6486 100.693 87.9555 102 89.5676 102H92.5777H98.5068H110.365H116.294" stroke="#152738"/>
<path d="M140.956 25.3784H62.4595C59.698 25.3784 57.4595 27.617 57.4595 30.3784V33.1318M148.514 87.4054H158.27C161.032 87.4054 163.27 85.1668 163.27 82.4054V52.2568M57.4595 75.6892V82.4054C57.4595 85.1668 59.698 87.4054 62.4595 87.4054H132.679" stroke="#152738"/>
<path d="M61.3333 79.5C61.3333 80.9728 62.5272 82.1667 64 82.1667C65.4728 82.1667 66.6667 80.9728 66.6667 79.5C66.6667 78.0272 65.4728 76.8333 64 76.8333C62.5272 76.8333 61.3333 78.0272 61.3333 79.5ZM153.833 31C153.833 32.4728 155.027 33.6667 156.5 33.6667C157.973 33.6667 159.167 32.4728 159.167 31C159.167 29.5272 157.973 28.3333 156.5 28.3333C155.027 28.3333 153.833 29.5272 153.833 31ZM64.2322 79.9428L156.732 31.4428L156.268 30.5572L63.7678 79.0572L64.2322 79.9428Z" fill="#152738" fill-opacity="0.4"/>
</g>
<defs>
<clipPath id="clip0_8_9">
<rect width="220" height="120" fill="white"/>
</clipPath>
</defs>
</svg>
