<svg width="220" height="120" viewBox="0 0 220 120" fill="none" xmlns="http://www.w3.org/2000/svg">
<g clip-path="url(#clip0_12_2)">
<rect x="52.3513" y="21" width="114.568" height="70.0541" rx="9" fill="#0097AC"/>
<path d="M88.1081 21.7297H61.8378C57.0016 21.7297 53.0811 25.6503 53.0811 30.4865V30.4865M84.4595 91.7838H145M53.0811 46.9054V82.7838C53.0811 87.7543 57.1105 91.7838 62.0811 91.7838H67.402M167.649 57.5V32" stroke="#152738"/>
<rect x="55.2703" y="23.9189" width="108.73" height="64.2162" rx="6" fill="#E7E9EC"/>
<rect x="85.9189" y="95.4324" width="47.4324" height="5.83784" rx="2.91892" fill="#D7E0E3"/>
<path d="M122.223 96.1622H131.162C132.774 96.1622 134.081 97.469 134.081 99.0811V99.0811C134.081 100.693 132.774 102 131.162 102H128.152M94.3108 96.1622H89.5676C87.9555 96.1622 86.6487 97.469 86.6487 99.0811V99.0811C86.6487 100.693 87.9555 102 89.5676 102H92.5777H98.5068H110.365H116.294" stroke="#152738"/>
<path d="M140.956 25.3784H99.2079M148.514 87.4054H158.27C161.032 87.4054 163.27 85.1668 163.27 82.4054V52.2568" stroke="#152738"/>
<path d="M107.333 79C107.333 80.4728 108.527 81.6667 110 81.6667C111.473 81.6667 112.667 80.4728 112.667 79C112.667 77.5272 111.473 76.3333 110 76.3333C108.527 76.3333 107.333 77.5272 107.333 79ZM107.333 33C107.333 34.4728 108.527 35.6667 110 35.6667C111.473 35.6667 112.667 34.4728 112.667 33C112.667 31.5272 111.473 30.3333 110 30.3333C108.527 30.3333 107.333 31.5272 107.333 33ZM110.5 79V33H109.5V79H110.5Z" fill="#152738"/>
</g>
<defs>
<clipPath id="clip0_12_2">
<rect width="220" height="120" fill="white"/>
</clipPath>
</defs>
</svg>
