<svg width="220" height="120" viewBox="0 0 220 120" fill="none" xmlns="http://www.w3.org/2000/svg">
<g clip-path="url(#clip0_8_9)">
<rect x="52.3513" y="21" width="114.568" height="70.0541" rx="9" fill="#0097AC"/>
<path d="M88.1081 21.7297H61.8378C57.0016 21.7297 53.0811 25.6503 53.0811 30.4865V30.4865M84.4595 91.7838H145M53.0811 46.9054V82.7838C53.0811 87.7543 57.1105 91.7838 62.0811 91.7838H67.402M167.649 57.5V32" stroke="#152738"/>
<rect x="55.2703" y="23.9189" width="108.73" height="64.2162" rx="6" fill="#E7E9EC"/>
<rect x="85.9189" y="95.4324" width="47.4324" height="5.83784" rx="2.91892" fill="#D7E0E3"/>
<path d="M122.223 96.1622H131.162C132.774 96.1622 134.081 97.469 134.081 99.0811V99.0811C134.081 100.693 132.774 102 131.162 102H128.152M94.3108 96.1622H89.5676C87.9555 96.1622 86.6486 97.469 86.6486 99.0811V99.0811C86.6486 100.693 87.9555 102 89.5676 102H92.5777H98.5068H110.365H116.294" stroke="#152738"/>
<path d="M140.956 25.3784H99.2079M148.514 87.4054H158.27C161.032 87.4054 163.27 85.1668 163.27 82.4054V52.2568" stroke="#152738"/>
<path d="M61.3333 55C61.3333 53.5272 62.5272 52.3333 64 52.3333C65.4728 52.3333 66.6667 53.5272 66.6667 55C66.6667 56.4728 65.4728 57.6667 64 57.6667C62.5272 57.6667 61.3333 56.4728 61.3333 55ZM154.333 55C154.333 53.5272 155.527 52.3333 157 52.3333C158.473 52.3333 159.667 53.5272 159.667 55C159.667 56.4728 158.473 57.6667 157 57.6667C155.527 57.6667 154.333 56.4728 154.333 55ZM64 54.5H157V55.5H64V54.5Z" fill="#152738"/>
</g>
<defs>
<clipPath id="clip0_8_9">
<rect width="220" height="120" fill="white"/>
</clipPath>
</defs>
</svg>
