<svg xmlns="http://www.w3.org/2000/svg" width="126.213" height="15.39" viewBox="0 0 126.213 15.39"><g transform="translate(-8.43 -19.78)"><g transform="translate(8.43 19.797)"><path d="M16.225,20.15h2.81v7.11c0,3.6-1.97,5.14-5.277,5.14-3.426,0-5.328-1.576-5.328-5.14V20.15h2.81v7.264c0,1.816.942,2.655,2.5,2.655s2.5-.839,2.5-2.655Z" transform="translate(-8.43 -19.956)" fill="#231f20"/><path d="M37.521,23.276a2.821,2.821,0,0,0-2.587-1.4c-1.4,0-1.97.571-1.97,1.319,0,.651.326,1.142,1.713,1.49l1.2.274c2.724.617,3.815,1.782,3.815,3.6,0,2.313-1.747,3.683-4.866,3.683-2.022,0-3.82-.531-4.866-2.284L31.793,28.6a3.324,3.324,0,0,0,3.032,1.713c1.508,0,2.227-.48,2.227-1.422,0-.685-.394-1.142-1.782-1.439l-1.182-.274c-2.673-.617-3.683-1.987-3.683-3.752,0-2.056,1.662-3.615,4.506-3.615,2.073,0,3.615.6,4.523,2.244Z" transform="translate(-17.665 -19.81)" fill="#231f20"/><path d="M58.922,20.15v2.364H55.256v9.628h-2.81V22.514H48.78V20.15Z" transform="translate(-25.737 -19.956)" fill="#231f20"/></g><path d="M82.924,22.424a3.323,3.323,0,0,0-3.307-1.833c-2.124,0-3.032.942-3.032,2.313,0,1.182.754,1.936,2.656,2.381l1.079.257c2.673.634,3.7,1.542,3.7,3.289,0,2.107-1.525,3.341-4.3,3.341a4.758,4.758,0,0,1-4.54-2.284l.788-.514a3.848,3.848,0,0,0,3.735,1.97c2.347,0,3.358-.942,3.358-2.467,0-1.2-.617-1.833-2.855-2.4L79.063,26.2c-2.284-.571-3.426-1.542-3.426-3.289,0-1.867,1.371-3.135,4-3.135A4.154,4.154,0,0,1,83.729,21.9Z" transform="translate(-28.631)" fill="#231f20"/><path d="M95.43,26.545h.84l.1,1.833a3.1,3.1,0,0,1,3-2.022,2.438,2.438,0,0,1,2.587,2.284,3.152,3.152,0,0,1,3.187-2.284q2.724,0,2.724,3.187V34.8h-.959v-5c0-1.936-.771-2.621-2.039-2.621-1.61,0-2.655,1.182-2.741,3.2V34.8h-.959V29.834c0-1.953-.805-2.655-2.09-2.655-1.576,0-2.587,1.182-2.69,3.272V34.8H95.43Z" transform="translate(-37.317 -2.819)" fill="#231f20"/><path d="M124.665,35c-1.713,0-2.855-.891-2.855-2.467s1.142-2.673,3.6-2.673h2.45c0-2.09-.805-2.707-2.484-2.707a2.939,2.939,0,0,0-2.621,1.142l-.571-.571a3.646,3.646,0,0,1,3.238-1.353c2.159,0,3.375.857,3.375,3.324v5.14h-.822l-.069-1.822A3.278,3.278,0,0,1,124.665,35Zm3.187-4v-.377h-2.416c-1.8,0-2.69.571-2.69,1.867,0,1.1.72,1.713,2.141,1.713,1.782.006,2.861-1.194,2.964-3.2Z" transform="translate(-48.632 -2.827)" fill="#231f20"/><path d="M139.77,26.62h.839l.086,2.056a3.1,3.1,0,0,1,3.169-2.142v.908c-1.9-.12-3.015,1.062-3.135,3.272v4.163h-.959Z" transform="translate(-56.335 -2.893)" fill="#231f20"/><path d="M149.7,24.811v-2.5h.942v2.5H153.3v.748h-2.656v4.683c0,1.816.668,2.176,1.662,2.176a3.061,3.061,0,0,0,1.1-.188l.154.788a3.724,3.724,0,0,1-1.4.24c-1.508,0-2.45-.822-2.45-2.855V25.559H148.14v-.748Z" transform="translate(-59.925 -1.085)" fill="#231f20"/><path d="M165.7,19.82c3.512,0,5.26,1.747,5.26,6.185s-1.833,6.185-5.26,6.185S160.47,30.425,160.47,26,162.286,19.82,165.7,19.82Zm0,11.547c2.707,0,4.266-1.285,4.266-5.379s-1.559-5.345-4.266-5.345-4.232,1.251-4.232,5.362,1.542,5.34,4.232,5.34Z" transform="translate(-65.214 -0.017)" fill="#231f20"/><path d="M184.937,26.542l.086,1.816a3.261,3.261,0,0,1,3.255-2c2.244,0,3.426,1.508,3.426,4.3s-1.319,4.334-3.683,4.334a3.118,3.118,0,0,1-2.981-1.713v4.711h-.959V26.564Zm2.981,7.658c1.9,0,2.855-1.233,2.855-3.546s-.925-3.512-2.724-3.512c-1.713,0-2.981,1.142-2.981,3.581S186.273,34.2,187.917,34.2Z" transform="translate(-75.341 -2.816)" fill="#231f20"/><path d="M206.516,32.707c0-.874-.48-1.251-1.953-1.576l-.771-.171c-1.8-.394-2.621-1.079-2.621-2.284,0-1.353.942-2.364,3.015-2.364a3.358,3.358,0,0,1,2.947,1.3l-.634.571a2.661,2.661,0,0,0-2.364-1.142c-1.4,0-2.056.6-2.056,1.508,0,.737.428,1.142,1.833,1.491l.874.206c2.107.463,2.638,1.234,2.638,2.284,0,1.285-.805,2.381-3.187,2.381a3.823,3.823,0,0,1-3.478-1.593l.7-.531a3.027,3.027,0,0,0,2.81,1.388C205.9,34.232,206.516,33.552,206.516,32.707Z" transform="translate(-82.496 -2.796)" fill="#231f20"/><path d="M218.558,21.35v.434H217.13v3.592h-.491V21.784H215.2V21.35Zm.508,0h.571l1.548,3.495,1.576-3.495h.571v4h-.491V22.2l-1.428,3.181h-.423l-1.439-3.135v3.135h-.468Z" transform="translate(-88.689 -0.673)" fill="#231f20"/></g></svg>