<svg width="1440" height="63" viewBox="0 0 1440 63" fill="none" xmlns="http://www.w3.org/2000/svg">
<g clip-path="url(#clip0_7_49)">
<path d="M0.001 0.000976562H1440V35.001H0.001V0.000976562Z" fill="black"/>
<path d="M0.001 63V24H6.001L6.006 23.9878C7.27641 23.9879 8.49923 23.5046 9.42605 22.6357C10.3529 21.7669 10.9142 20.5778 10.996 19.3101V5C10.996 3.67392 11.5228 2.40204 12.4605 1.46436C13.3982 0.526674 14.6699 0 15.996 0H231.996C233.322 0 234.594 0.526674 235.532 1.46436C236.469 2.40204 236.996 3.67392 236.996 5V19C236.996 20.3261 237.523 21.598 238.46 22.5356C239.398 23.4733 240.67 24 241.996 24H1440V63H0.001Z" fill="#353535"/>
<path d="M1384 17.501C1387.31 17.501 1390 14.8147 1390 11.501C1390 8.18727 1387.31 5.50098 1384 5.50098C1380.69 5.50098 1378 8.18727 1378 11.501C1378 14.8147 1380.69 17.501 1384 17.501Z" fill="#F95555"/>
<path d="M1404 17.501C1407.31 17.501 1410 14.8147 1410 11.501C1410 8.18727 1407.31 5.50098 1404 5.50098C1400.69 5.50098 1398 8.18727 1398 11.501C1398 14.8147 1400.69 17.501 1404 17.501Z" fill="#FBE06C"/>
<path d="M1424 17.501C1427.31 17.501 1430 14.8147 1430 11.501C1430 8.18727 1427.31 5.50098 1424 5.50098C1420.69 5.50098 1418 8.18727 1418 11.501C1418 14.8147 1420.69 17.501 1424 17.501Z" fill="#62D65D"/>
<path d="M1319.5 32.001H155.501C149.15 32.001 144.001 37.1497 144.001 43.501C144.001 49.8523 149.15 55.001 155.501 55.001H1319.5C1325.85 55.001 1331 49.8523 1331 43.501C1331 37.1497 1325.85 32.001 1319.5 32.001Z" fill="#202124"/>
<path opacity="0.2" d="M31.001 20.001C34.867 20.001 38.001 16.867 38.001 13.001C38.001 9.13498 34.867 6.00098 31.001 6.00098C27.135 6.00098 24.001 9.13498 24.001 13.001C24.001 16.867 27.135 20.001 31.001 20.001Z" fill="#CECECE"/>
<g opacity="0.7">
<path d="M27 43.3611H40.338" stroke="white" stroke-width="2" stroke-linecap="round"/>
<path d="M33.649 36.844L27 43.4929L33.649 50.1418" stroke="white" stroke-width="2" stroke-linecap="round"/>
<path d="M78.338 43.3611H65" stroke="white" stroke-width="2" stroke-linecap="round"/>
<path d="M71.689 36.844L78.338 43.4929L71.689 50.1418" stroke="white" stroke-width="2" stroke-linecap="round"/>
<path d="M103 44.3862C103.055 42.4239 103.886 40.563 105.311 39.2124C106.735 37.8618 108.637 37.1317 110.6 37.1812H110.967L110.355 36.6011C110.263 36.5173 110.189 36.4145 110.139 36.3003C110.088 36.1861 110.062 36.062 110.062 35.937C110.062 35.8121 110.088 35.6899 110.139 35.5757C110.189 35.4615 110.263 35.3587 110.355 35.2749C110.546 35.0981 110.797 34.9995 111.057 34.9995C111.316 34.9995 111.566 35.0981 111.756 35.2749L114.068 37.4741C114.159 37.5585 114.232 37.6613 114.281 37.7749C114.331 37.8885 114.356 38.0104 114.355 38.1343C114.356 38.259 114.331 38.383 114.281 38.4976C114.232 38.6121 114.159 38.7148 114.068 38.8003L111.758 41.0015C111.567 41.1766 111.316 41.2729 111.057 41.2729C110.797 41.2729 110.548 41.1766 110.357 41.0015C110.265 40.9171 110.189 40.8134 110.139 40.6987C110.088 40.584 110.062 40.4609 110.062 40.3354C110.062 40.21 110.088 40.0849 110.139 39.9702C110.189 39.8555 110.265 39.7538 110.357 39.6694L110.986 39.0698H110.596C109.554 39.1259 108.55 39.4851 107.711 40.105C106.872 40.7249 106.233 41.5769 105.873 42.5562C105.513 43.5354 105.449 44.599 105.688 45.6147C105.926 46.6305 106.455 47.5537 107.213 48.271C107.97 48.9883 108.922 49.4695 109.949 49.6519C110.976 49.8342 112.034 49.7111 112.992 49.2983C113.95 48.8856 114.767 48.2014 115.34 47.3296C115.913 46.4578 116.22 45.4354 116.219 44.3921C116.235 44.1396 116.345 43.9031 116.529 43.73C116.714 43.5569 116.958 43.4604 117.211 43.4604C117.464 43.4604 117.708 43.5569 117.893 43.73C118.077 43.9031 118.187 44.1396 118.203 44.3921C118.103 46.3403 117.26 48.1774 115.846 49.521C114.431 50.8646 112.554 51.6128 110.604 51.6128C108.653 51.6128 106.778 50.8646 105.363 49.521C103.949 48.1774 103.104 46.3403 103.004 44.3921L103 44.3862Z" fill="white"/>
<path d="M53.5527 8.46875V17H52.416L48.1211 10.4199V17H46.9902V8.46875H48.1211L52.4336 15.0664V8.46875H53.5527ZM58.0234 17.1172C57.582 17.1172 57.1816 17.043 56.8223 16.8945C56.4668 16.7422 56.1602 16.5293 55.9023 16.2559C55.6484 15.9824 55.4531 15.6582 55.3164 15.2832C55.1797 14.9082 55.1113 14.498 55.1113 14.0527V13.8066C55.1113 13.291 55.1875 12.832 55.3398 12.4297C55.4922 12.0234 55.6992 11.6797 55.9609 11.3984C56.2227 11.1172 56.5195 10.9043 56.8516 10.7598C57.1836 10.6152 57.5273 10.543 57.8828 10.543C58.3359 10.543 58.7266 10.6211 59.0547 10.7773C59.3867 10.9336 59.6582 11.1523 59.8691 11.4336C60.0801 11.7109 60.2363 12.0391 60.3379 12.418C60.4395 12.793 60.4902 13.2031 60.4902 13.6484V14.1348H55.7559V13.25H59.4062V13.168C59.3906 12.8867 59.332 12.6133 59.2305 12.3477C59.1328 12.082 58.9766 11.8633 58.7617 11.6914C58.5469 11.5195 58.2539 11.4336 57.8828 11.4336C57.6367 11.4336 57.4102 11.4863 57.2031 11.5918C56.9961 11.6934 56.8184 11.8457 56.6699 12.0488C56.5215 12.252 56.4062 12.5 56.3242 12.793C56.2422 13.0859 56.2012 13.4238 56.2012 13.8066V14.0527C56.2012 14.3535 56.2422 14.6367 56.3242 14.9023C56.4102 15.1641 56.5332 15.3945 56.6934 15.5938C56.8574 15.793 57.0547 15.9492 57.2852 16.0625C57.5195 16.1758 57.7852 16.2324 58.082 16.2324C58.4648 16.2324 58.7891 16.1543 59.0547 15.998C59.3203 15.8418 59.5527 15.6328 59.752 15.3711L60.4082 15.8926C60.2715 16.0996 60.0977 16.2969 59.8867 16.4844C59.6758 16.6719 59.416 16.8242 59.1074 16.9414C58.8027 17.0586 58.4414 17.1172 58.0234 17.1172ZM63.3613 15.875L64.9902 10.6602H65.7051L65.5645 11.6973L63.9062 17H63.209L63.3613 15.875ZM62.2656 10.6602L63.6543 15.9336L63.7539 17H63.0215L61.1816 10.6602H62.2656ZM67.2637 15.8926L68.5879 10.6602H69.666L67.8262 17H67.0996L67.2637 15.8926ZM65.8633 10.6602L67.457 15.7871L67.6387 17H66.9473L65.2422 11.6855L65.1016 10.6602H65.8633ZM76.8379 8.46875V17H75.7246V8.46875H76.8379ZM79.5801 8.46875V9.39453H72.9883V8.46875H79.5801ZM83.752 15.916V12.6523C83.752 12.4023 83.7012 12.1855 83.5996 12.002C83.502 11.8145 83.3535 11.6699 83.1543 11.5684C82.9551 11.4668 82.709 11.416 82.416 11.416C82.1426 11.416 81.9023 11.4629 81.6953 11.5566C81.4922 11.6504 81.332 11.7734 81.2148 11.9258C81.1016 12.0781 81.0449 12.2422 81.0449 12.418H79.9609C79.9609 12.1914 80.0195 11.9668 80.1367 11.7441C80.2539 11.5215 80.4219 11.3203 80.6406 11.1406C80.8633 10.957 81.1289 10.8125 81.4375 10.707C81.75 10.5977 82.0977 10.543 82.4805 10.543C82.9414 10.543 83.3477 10.6211 83.6992 10.7773C84.0547 10.9336 84.332 11.1699 84.5312 11.4863C84.7344 11.7988 84.8359 12.1914 84.8359 12.6641V15.6172C84.8359 15.8281 84.8535 16.0527 84.8887 16.291C84.9277 16.5293 84.9844 16.7344 85.0586 16.9062V17H83.9277C83.873 16.875 83.8301 16.709 83.7988 16.502C83.7676 16.291 83.752 16.0957 83.752 15.916ZM83.9395 13.1562L83.9512 13.918H82.8555C82.5469 13.918 82.2715 13.9434 82.0293 13.9941C81.7871 14.041 81.584 14.1133 81.4199 14.2109C81.2559 14.3086 81.1309 14.4316 81.0449 14.5801C80.959 14.7246 80.916 14.8945 80.916 15.0898C80.916 15.2891 80.9609 15.4707 81.0508 15.6348C81.1406 15.7988 81.2754 15.9297 81.4551 16.0273C81.6387 16.1211 81.8633 16.168 82.1289 16.168C82.4609 16.168 82.7539 16.0977 83.0078 15.957C83.2617 15.8164 83.4629 15.6445 83.6113 15.4414C83.7637 15.2383 83.8457 15.041 83.8574 14.8496L84.3203 15.3711C84.293 15.5352 84.2188 15.7168 84.0977 15.916C83.9766 16.1152 83.8145 16.3066 83.6113 16.4902C83.4121 16.6699 83.1738 16.8203 82.8965 16.9414C82.623 17.0586 82.3145 17.1172 81.9707 17.1172C81.541 17.1172 81.1641 17.0332 80.8398 16.8652C80.5195 16.6973 80.2695 16.4727 80.0898 16.1914C79.9141 15.9062 79.8262 15.5879 79.8262 15.2363C79.8262 14.8965 79.8926 14.5977 80.0254 14.3398C80.1582 14.0781 80.3496 13.8613 80.5996 13.6895C80.8496 13.5137 81.1504 13.3809 81.502 13.291C81.8535 13.2012 82.2461 13.1562 82.6797 13.1562H83.9395ZM86.5352 8H87.625V15.7695L87.5312 17H86.5352V8ZM91.9082 13.7773V13.9004C91.9082 14.3613 91.8535 14.7891 91.7441 15.1836C91.6348 15.5742 91.4746 15.9141 91.2637 16.2031C91.0527 16.4922 90.7949 16.7168 90.4902 16.877C90.1855 17.0371 89.8359 17.1172 89.4414 17.1172C89.0391 17.1172 88.6855 17.0488 88.3809 16.9121C88.0801 16.7715 87.8262 16.5703 87.6191 16.3086C87.4121 16.0469 87.2461 15.7305 87.1211 15.3594C87 14.9883 86.916 14.5703 86.8691 14.1055V13.5664C86.916 13.0977 87 12.6777 87.1211 12.3066C87.2461 11.9355 87.4121 11.6191 87.6191 11.3574C87.8262 11.0918 88.0801 10.8906 88.3809 10.7539C88.6816 10.6133 89.0312 10.543 89.4297 10.543C89.8281 10.543 90.1816 10.6211 90.4902 10.7773C90.7988 10.9297 91.0566 11.1484 91.2637 11.4336C91.4746 11.7188 91.6348 12.0605 91.7441 12.459C91.8535 12.8535 91.9082 13.293 91.9082 13.7773ZM90.8184 13.9004V13.7773C90.8184 13.4609 90.7891 13.1641 90.7305 12.8867C90.6719 12.6055 90.5781 12.3594 90.4492 12.1484C90.3203 11.9336 90.1504 11.7656 89.9395 11.6445C89.7285 11.5195 89.4688 11.457 89.1602 11.457C88.8867 11.457 88.6484 11.5039 88.4453 11.5977C88.2461 11.6914 88.0762 11.8184 87.9355 11.9785C87.7949 12.1348 87.6797 12.3145 87.5898 12.5176C87.5039 12.7168 87.4395 12.9238 87.3965 13.1387V14.5508C87.459 14.8242 87.5605 15.0879 87.7012 15.3418C87.8457 15.5918 88.0371 15.7969 88.2754 15.957C88.5176 16.1172 88.8164 16.1973 89.1719 16.1973C89.4648 16.1973 89.7148 16.1387 89.9219 16.0215C90.1328 15.9004 90.3027 15.7344 90.4316 15.5234C90.5645 15.3125 90.6621 15.0684 90.7246 14.791C90.7871 14.5137 90.8184 14.2168 90.8184 13.9004Z" fill="white"/>
<path d="M171.537 44.8438C171.537 44.6445 171.506 44.4688 171.443 44.3164C171.385 44.1602 171.279 44.0195 171.127 43.8945C170.979 43.7695 170.771 43.6504 170.506 43.5371C170.244 43.4238 169.912 43.3086 169.51 43.1914C169.088 43.0664 168.707 42.9277 168.367 42.7754C168.027 42.6191 167.736 42.4414 167.494 42.2422C167.252 42.043 167.066 41.8145 166.938 41.5566C166.809 41.2988 166.744 41.0039 166.744 40.6719C166.744 40.3398 166.812 40.0332 166.949 39.752C167.086 39.4707 167.281 39.2266 167.535 39.0195C167.793 38.8086 168.1 38.6445 168.455 38.5273C168.811 38.4102 169.207 38.3516 169.645 38.3516C170.285 38.3516 170.828 38.4746 171.273 38.7207C171.723 38.9629 172.064 39.2812 172.299 39.6758C172.533 40.0664 172.65 40.4844 172.65 40.9297H171.525C171.525 40.6094 171.457 40.3262 171.32 40.0801C171.184 39.8301 170.977 39.6348 170.699 39.4941C170.422 39.3496 170.07 39.2773 169.645 39.2773C169.242 39.2773 168.91 39.3379 168.648 39.459C168.387 39.5801 168.191 39.7441 168.062 39.9512C167.938 40.1582 167.875 40.3945 167.875 40.6602C167.875 40.8398 167.912 41.0039 167.986 41.1523C168.064 41.2969 168.184 41.4316 168.344 41.5566C168.508 41.6816 168.715 41.7969 168.965 41.9023C169.219 42.0078 169.521 42.1094 169.873 42.207C170.357 42.3438 170.775 42.4961 171.127 42.6641C171.479 42.832 171.768 43.0215 171.994 43.2324C172.225 43.4395 172.395 43.6758 172.504 43.9414C172.617 44.2031 172.674 44.5 172.674 44.832C172.674 45.1797 172.604 45.4941 172.463 45.7754C172.322 46.0566 172.121 46.2969 171.859 46.4961C171.598 46.6953 171.283 46.8496 170.916 46.959C170.553 47.0645 170.146 47.1172 169.697 47.1172C169.303 47.1172 168.914 47.0625 168.531 46.9531C168.152 46.8438 167.807 46.6797 167.494 46.4609C167.186 46.2422 166.938 45.9727 166.75 45.6523C166.566 45.3281 166.475 44.9531 166.475 44.5273H167.6C167.6 44.8203 167.656 45.0723 167.77 45.2832C167.883 45.4902 168.037 45.6621 168.232 45.7988C168.432 45.9355 168.656 46.0371 168.906 46.1035C169.16 46.166 169.424 46.1973 169.697 46.1973C170.092 46.1973 170.426 46.1426 170.699 46.0332C170.973 45.9238 171.18 45.7676 171.32 45.5645C171.465 45.3613 171.537 45.1211 171.537 44.8438ZM176.582 47.1172C176.141 47.1172 175.74 47.043 175.381 46.8945C175.025 46.7422 174.719 46.5293 174.461 46.2559C174.207 45.9824 174.012 45.6582 173.875 45.2832C173.738 44.9082 173.67 44.498 173.67 44.0527V43.8066C173.67 43.291 173.746 42.832 173.898 42.4297C174.051 42.0234 174.258 41.6797 174.52 41.3984C174.781 41.1172 175.078 40.9043 175.41 40.7598C175.742 40.6152 176.086 40.543 176.441 40.543C176.895 40.543 177.285 40.6211 177.613 40.7773C177.945 40.9336 178.217 41.1523 178.428 41.4336C178.639 41.7109 178.795 42.0391 178.896 42.418C178.998 42.793 179.049 43.2031 179.049 43.6484V44.1348H174.314V43.25H177.965V43.168C177.949 42.8867 177.891 42.6133 177.789 42.3477C177.691 42.082 177.535 41.8633 177.32 41.6914C177.105 41.5195 176.812 41.4336 176.441 41.4336C176.195 41.4336 175.969 41.4863 175.762 41.5918C175.555 41.6934 175.377 41.8457 175.229 42.0488C175.08 42.252 174.965 42.5 174.883 42.793C174.801 43.0859 174.76 43.4238 174.76 43.8066V44.0527C174.76 44.3535 174.801 44.6367 174.883 44.9023C174.969 45.1641 175.092 45.3945 175.252 45.5938C175.416 45.793 175.613 45.9492 175.844 46.0625C176.078 46.1758 176.344 46.2324 176.641 46.2324C177.023 46.2324 177.348 46.1543 177.613 45.998C177.879 45.8418 178.111 45.6328 178.311 45.3711L178.967 45.8926C178.83 46.0996 178.656 46.2969 178.445 46.4844C178.234 46.6719 177.975 46.8242 177.666 46.9414C177.361 47.0586 177 47.1172 176.582 47.1172ZM184.053 45.916V42.6523C184.053 42.4023 184.002 42.1855 183.9 42.002C183.803 41.8145 183.654 41.6699 183.455 41.5684C183.256 41.4668 183.01 41.416 182.717 41.416C182.443 41.416 182.203 41.4629 181.996 41.5566C181.793 41.6504 181.633 41.7734 181.516 41.9258C181.402 42.0781 181.346 42.2422 181.346 42.418H180.262C180.262 42.1914 180.32 41.9668 180.438 41.7441C180.555 41.5215 180.723 41.3203 180.941 41.1406C181.164 40.957 181.43 40.8125 181.738 40.707C182.051 40.5977 182.398 40.543 182.781 40.543C183.242 40.543 183.648 40.6211 184 40.7773C184.355 40.9336 184.633 41.1699 184.832 41.4863C185.035 41.7988 185.137 42.1914 185.137 42.6641V45.6172C185.137 45.8281 185.154 46.0527 185.189 46.291C185.229 46.5293 185.285 46.7344 185.359 46.9062V47H184.229C184.174 46.875 184.131 46.709 184.1 46.502C184.068 46.291 184.053 46.0957 184.053 45.916ZM184.24 43.1562L184.252 43.918H183.156C182.848 43.918 182.572 43.9434 182.33 43.9941C182.088 44.041 181.885 44.1133 181.721 44.2109C181.557 44.3086 181.432 44.4316 181.346 44.5801C181.26 44.7246 181.217 44.8945 181.217 45.0898C181.217 45.2891 181.262 45.4707 181.352 45.6348C181.441 45.7988 181.576 45.9297 181.756 46.0273C181.939 46.1211 182.164 46.168 182.43 46.168C182.762 46.168 183.055 46.0977 183.309 45.957C183.562 45.8164 183.764 45.6445 183.912 45.4414C184.064 45.2383 184.146 45.041 184.158 44.8496L184.621 45.3711C184.594 45.5352 184.52 45.7168 184.398 45.916C184.277 46.1152 184.115 46.3066 183.912 46.4902C183.713 46.6699 183.475 46.8203 183.197 46.9414C182.924 47.0586 182.615 47.1172 182.271 47.1172C181.842 47.1172 181.465 47.0332 181.141 46.8652C180.82 46.6973 180.57 46.4727 180.391 46.1914C180.215 45.9062 180.127 45.5879 180.127 45.2363C180.127 44.8965 180.193 44.5977 180.326 44.3398C180.459 44.0781 180.65 43.8613 180.9 43.6895C181.15 43.5137 181.451 43.3809 181.803 43.291C182.154 43.2012 182.547 43.1562 182.98 43.1562H184.24ZM187.926 41.6562V47H186.842V40.6602H187.896L187.926 41.6562ZM189.906 40.625L189.9 41.6328C189.811 41.6133 189.725 41.6016 189.643 41.5977C189.564 41.5898 189.475 41.5859 189.373 41.5859C189.123 41.5859 188.902 41.625 188.711 41.7031C188.52 41.7812 188.357 41.8906 188.225 42.0312C188.092 42.1719 187.986 42.3398 187.908 42.5352C187.834 42.7266 187.785 42.9375 187.762 43.168L187.457 43.3438C187.457 42.9609 187.494 42.6016 187.568 42.2656C187.646 41.9297 187.766 41.6328 187.926 41.375C188.086 41.1133 188.289 40.9102 188.535 40.7656C188.785 40.6172 189.082 40.543 189.426 40.543C189.504 40.543 189.594 40.5527 189.695 40.5723C189.797 40.5879 189.867 40.6055 189.906 40.625ZM193.328 46.2266C193.586 46.2266 193.824 46.1738 194.043 46.0684C194.262 45.9629 194.441 45.8184 194.582 45.6348C194.723 45.4473 194.803 45.2344 194.822 44.9961H195.854C195.834 45.3711 195.707 45.7207 195.473 46.0449C195.242 46.3652 194.939 46.625 194.564 46.8242C194.189 47.0195 193.777 47.1172 193.328 47.1172C192.852 47.1172 192.436 47.0332 192.08 46.8652C191.729 46.6973 191.436 46.4668 191.201 46.1738C190.971 45.8809 190.797 45.5449 190.68 45.166C190.566 44.7832 190.51 44.3789 190.51 43.9531V43.707C190.51 43.2812 190.566 42.8789 190.68 42.5C190.797 42.1172 190.971 41.7793 191.201 41.4863C191.436 41.1934 191.729 40.9629 192.08 40.7949C192.436 40.627 192.852 40.543 193.328 40.543C193.824 40.543 194.258 40.6445 194.629 40.8477C195 41.0469 195.291 41.3203 195.502 41.668C195.717 42.0117 195.834 42.4023 195.854 42.8398H194.822C194.803 42.5781 194.729 42.3418 194.6 42.1309C194.475 41.9199 194.303 41.752 194.084 41.627C193.869 41.498 193.617 41.4336 193.328 41.4336C192.996 41.4336 192.717 41.5 192.49 41.6328C192.268 41.7617 192.09 41.9375 191.957 42.1602C191.828 42.3789 191.734 42.623 191.676 42.8926C191.621 43.1582 191.594 43.4297 191.594 43.707V43.9531C191.594 44.2305 191.621 44.5039 191.676 44.7734C191.73 45.043 191.822 45.2871 191.951 45.5059C192.084 45.7246 192.262 45.9004 192.484 46.0332C192.711 46.1621 192.992 46.2266 193.328 46.2266ZM198.156 38V47H197.072V38H198.156ZM197.898 43.5898L197.447 43.5723C197.451 43.1387 197.516 42.7383 197.641 42.3711C197.766 42 197.941 41.6777 198.168 41.4043C198.395 41.1309 198.664 40.9199 198.977 40.7715C199.293 40.6191 199.643 40.543 200.025 40.543C200.338 40.543 200.619 40.5859 200.869 40.6719C201.119 40.7539 201.332 40.8867 201.508 41.0703C201.688 41.2539 201.824 41.4922 201.918 41.7852C202.012 42.0742 202.059 42.4277 202.059 42.8457V47H200.969V42.834C200.969 42.502 200.92 42.2363 200.822 42.0371C200.725 41.834 200.582 41.6875 200.395 41.5977C200.207 41.5039 199.977 41.457 199.703 41.457C199.434 41.457 199.188 41.5137 198.965 41.627C198.746 41.7402 198.557 41.8965 198.396 42.0957C198.24 42.2949 198.117 42.5234 198.027 42.7812C197.941 43.0352 197.898 43.3047 197.898 43.5898ZM213.127 42.752V45.875C213.021 46.0312 212.854 46.207 212.623 46.4023C212.393 46.5938 212.074 46.7617 211.668 46.9062C211.266 47.0469 210.746 47.1172 210.109 47.1172C209.59 47.1172 209.111 47.0273 208.674 46.8477C208.24 46.6641 207.863 46.3984 207.543 46.0508C207.227 45.6992 206.98 45.2734 206.805 44.7734C206.633 44.2695 206.547 43.6992 206.547 43.0625V42.4004C206.547 41.7637 206.621 41.1953 206.77 40.6953C206.922 40.1953 207.145 39.7715 207.438 39.4238C207.73 39.0723 208.09 38.8066 208.516 38.627C208.941 38.4434 209.43 38.3516 209.98 38.3516C210.633 38.3516 211.178 38.4648 211.615 38.6914C212.057 38.9141 212.4 39.2227 212.646 39.6172C212.896 40.0117 213.057 40.4609 213.127 40.9648H211.996C211.945 40.6562 211.844 40.375 211.691 40.1211C211.543 39.8672 211.33 39.6641 211.053 39.5117C210.775 39.3555 210.418 39.2773 209.98 39.2773C209.586 39.2773 209.244 39.3496 208.955 39.4941C208.666 39.6387 208.428 39.8457 208.24 40.1152C208.053 40.3848 207.912 40.7109 207.818 41.0938C207.729 41.4766 207.684 41.9082 207.684 42.3887V43.0625C207.684 43.5547 207.74 43.9941 207.854 44.3809C207.971 44.7676 208.137 45.0977 208.352 45.3711C208.566 45.6406 208.822 45.8457 209.119 45.9863C209.42 46.127 209.752 46.1973 210.115 46.1973C210.518 46.1973 210.844 46.1641 211.094 46.0977C211.344 46.0273 211.539 45.9453 211.68 45.8516C211.82 45.7539 211.928 45.6621 212.002 45.5762V43.666H210.027V42.752H213.127ZM214.551 43.9004V43.7656C214.551 43.3086 214.617 42.8848 214.75 42.4941C214.883 42.0996 215.074 41.7578 215.324 41.4688C215.574 41.1758 215.877 40.9492 216.232 40.7891C216.588 40.625 216.986 40.543 217.428 40.543C217.873 40.543 218.273 40.625 218.629 40.7891C218.988 40.9492 219.293 41.1758 219.543 41.4688C219.797 41.7578 219.99 42.0996 220.123 42.4941C220.256 42.8848 220.322 43.3086 220.322 43.7656V43.9004C220.322 44.3574 220.256 44.7812 220.123 45.1719C219.99 45.5625 219.797 45.9043 219.543 46.1973C219.293 46.4863 218.99 46.7129 218.635 46.877C218.283 47.0371 217.885 47.1172 217.439 47.1172C216.994 47.1172 216.594 47.0371 216.238 46.877C215.883 46.7129 215.578 46.4863 215.324 46.1973C215.074 45.9043 214.883 45.5625 214.75 45.1719C214.617 44.7812 214.551 44.3574 214.551 43.9004ZM215.635 43.7656V43.9004C215.635 44.2168 215.672 44.5156 215.746 44.7969C215.82 45.0742 215.932 45.3203 216.08 45.5352C216.232 45.75 216.422 45.9199 216.648 46.0449C216.875 46.166 217.139 46.2266 217.439 46.2266C217.736 46.2266 217.996 46.166 218.219 46.0449C218.445 45.9199 218.633 45.75 218.781 45.5352C218.93 45.3203 219.041 45.0742 219.115 44.7969C219.193 44.5156 219.232 44.2168 219.232 43.9004V43.7656C219.232 43.4531 219.193 43.1582 219.115 42.8809C219.041 42.5996 218.928 42.3516 218.775 42.1367C218.627 41.918 218.439 41.7461 218.213 41.6211C217.99 41.4961 217.729 41.4336 217.428 41.4336C217.131 41.4336 216.869 41.4961 216.643 41.6211C216.42 41.7461 216.232 41.918 216.08 42.1367C215.932 42.3516 215.82 42.5996 215.746 42.8809C215.672 43.1582 215.635 43.4531 215.635 43.7656ZM221.395 43.9004V43.7656C221.395 43.3086 221.461 42.8848 221.594 42.4941C221.727 42.0996 221.918 41.7578 222.168 41.4688C222.418 41.1758 222.721 40.9492 223.076 40.7891C223.432 40.625 223.83 40.543 224.271 40.543C224.717 40.543 225.117 40.625 225.473 40.7891C225.832 40.9492 226.137 41.1758 226.387 41.4688C226.641 41.7578 226.834 42.0996 226.967 42.4941C227.1 42.8848 227.166 43.3086 227.166 43.7656V43.9004C227.166 44.3574 227.1 44.7812 226.967 45.1719C226.834 45.5625 226.641 45.9043 226.387 46.1973C226.137 46.4863 225.834 46.7129 225.479 46.877C225.127 47.0371 224.729 47.1172 224.283 47.1172C223.838 47.1172 223.438 47.0371 223.082 46.877C222.727 46.7129 222.422 46.4863 222.168 46.1973C221.918 45.9043 221.727 45.5625 221.594 45.1719C221.461 44.7812 221.395 44.3574 221.395 43.9004ZM222.479 43.7656V43.9004C222.479 44.2168 222.516 44.5156 222.59 44.7969C222.664 45.0742 222.775 45.3203 222.924 45.5352C223.076 45.75 223.266 45.9199 223.492 46.0449C223.719 46.166 223.982 46.2266 224.283 46.2266C224.58 46.2266 224.84 46.166 225.062 46.0449C225.289 45.9199 225.477 45.75 225.625 45.5352C225.773 45.3203 225.885 45.0742 225.959 44.7969C226.037 44.5156 226.076 44.2168 226.076 43.9004V43.7656C226.076 43.4531 226.037 43.1582 225.959 42.8809C225.885 42.5996 225.771 42.3516 225.619 42.1367C225.471 41.918 225.283 41.7461 225.057 41.6211C224.834 41.4961 224.572 41.4336 224.271 41.4336C223.975 41.4336 223.713 41.4961 223.486 41.6211C223.264 41.7461 223.076 41.918 222.924 42.1367C222.775 42.3516 222.664 42.5996 222.59 42.8809C222.516 43.1582 222.479 43.4531 222.479 43.7656ZM232.633 40.6602H233.617V46.8652C233.617 47.4238 233.504 47.9004 233.277 48.2949C233.051 48.6895 232.734 48.9883 232.328 49.1914C231.926 49.3984 231.461 49.502 230.934 49.502C230.715 49.502 230.457 49.4668 230.16 49.3965C229.867 49.3301 229.578 49.2148 229.293 49.0508C229.012 48.8906 228.775 48.6738 228.584 48.4004L229.152 47.7559C229.418 48.0762 229.695 48.2988 229.984 48.4238C230.277 48.5488 230.566 48.6113 230.852 48.6113C231.195 48.6113 231.492 48.5469 231.742 48.418C231.992 48.2891 232.186 48.0977 232.322 47.8438C232.463 47.5938 232.533 47.2852 232.533 46.918V42.0547L232.633 40.6602ZM228.268 43.9004V43.7773C228.268 43.293 228.324 42.8535 228.438 42.459C228.555 42.0605 228.721 41.7188 228.936 41.4336C229.154 41.1484 229.418 40.9297 229.727 40.7773C230.035 40.6211 230.383 40.543 230.77 40.543C231.168 40.543 231.516 40.6133 231.812 40.7539C232.113 40.8906 232.367 41.0918 232.574 41.3574C232.785 41.6191 232.951 41.9355 233.072 42.3066C233.193 42.6777 233.277 43.0977 233.324 43.5664V44.1055C233.281 44.5703 233.197 44.9883 233.072 45.3594C232.951 45.7305 232.785 46.0469 232.574 46.3086C232.367 46.5703 232.113 46.7715 231.812 46.9121C231.512 47.0488 231.16 47.1172 230.758 47.1172C230.379 47.1172 230.035 47.0371 229.727 46.877C229.422 46.7168 229.16 46.4922 228.941 46.2031C228.723 45.9141 228.555 45.5742 228.438 45.1836C228.324 44.7891 228.268 44.3613 228.268 43.9004ZM229.352 43.7773V43.9004C229.352 44.2168 229.383 44.5137 229.445 44.791C229.512 45.0684 229.611 45.3125 229.744 45.5234C229.881 45.7344 230.055 45.9004 230.266 46.0215C230.477 46.1387 230.729 46.1973 231.021 46.1973C231.381 46.1973 231.678 46.1211 231.912 45.9688C232.146 45.8164 232.332 45.6152 232.469 45.3652C232.609 45.1152 232.719 44.8438 232.797 44.5508V43.1387C232.754 42.9238 232.688 42.7168 232.598 42.5176C232.512 42.3145 232.398 42.1348 232.258 41.9785C232.121 41.8184 231.951 41.6914 231.748 41.5977C231.545 41.5039 231.307 41.457 231.033 41.457C230.736 41.457 230.48 41.5195 230.266 41.6445C230.055 41.7656 229.881 41.9336 229.744 42.1484C229.611 42.3594 229.512 42.6055 229.445 42.8867C229.383 43.1641 229.352 43.4609 229.352 43.7773ZM236.441 38V47H235.352V38H236.441ZM240.812 47.1172C240.371 47.1172 239.971 47.043 239.611 46.8945C239.256 46.7422 238.949 46.5293 238.691 46.2559C238.438 45.9824 238.242 45.6582 238.105 45.2832C237.969 44.9082 237.9 44.498 237.9 44.0527V43.8066C237.9 43.291 237.977 42.832 238.129 42.4297C238.281 42.0234 238.488 41.6797 238.75 41.3984C239.012 41.1172 239.309 40.9043 239.641 40.7598C239.973 40.6152 240.316 40.543 240.672 40.543C241.125 40.543 241.516 40.6211 241.844 40.7773C242.176 40.9336 242.447 41.1523 242.658 41.4336C242.869 41.7109 243.025 42.0391 243.127 42.418C243.229 42.793 243.279 43.2031 243.279 43.6484V44.1348H238.545V43.25H242.195V43.168C242.18 42.8867 242.121 42.6133 242.02 42.3477C241.922 42.082 241.766 41.8633 241.551 41.6914C241.336 41.5195 241.043 41.4336 240.672 41.4336C240.426 41.4336 240.199 41.4863 239.992 41.5918C239.785 41.6934 239.607 41.8457 239.459 42.0488C239.311 42.252 239.195 42.5 239.113 42.793C239.031 43.0859 238.99 43.4238 238.99 43.8066V44.0527C238.99 44.3535 239.031 44.6367 239.113 44.9023C239.199 45.1641 239.322 45.3945 239.482 45.5938C239.646 45.793 239.844 45.9492 240.074 46.0625C240.309 46.1758 240.574 46.2324 240.871 46.2324C241.254 46.2324 241.578 46.1543 241.844 45.998C242.109 45.8418 242.342 45.6328 242.541 45.3711L243.197 45.8926C243.061 46.0996 242.887 46.2969 242.676 46.4844C242.465 46.6719 242.205 46.8242 241.896 46.9414C241.592 47.0586 241.23 47.1172 240.812 47.1172ZM247.234 43.9004V43.7656C247.234 43.3086 247.301 42.8848 247.434 42.4941C247.566 42.0996 247.758 41.7578 248.008 41.4688C248.258 41.1758 248.561 40.9492 248.916 40.7891C249.271 40.625 249.67 40.543 250.111 40.543C250.557 40.543 250.957 40.625 251.312 40.7891C251.672 40.9492 251.977 41.1758 252.227 41.4688C252.48 41.7578 252.674 42.0996 252.807 42.4941C252.939 42.8848 253.006 43.3086 253.006 43.7656V43.9004C253.006 44.3574 252.939 44.7812 252.807 45.1719C252.674 45.5625 252.48 45.9043 252.227 46.1973C251.977 46.4863 251.674 46.7129 251.318 46.877C250.967 47.0371 250.568 47.1172 250.123 47.1172C249.678 47.1172 249.277 47.0371 248.922 46.877C248.566 46.7129 248.262 46.4863 248.008 46.1973C247.758 45.9043 247.566 45.5625 247.434 45.1719C247.301 44.7812 247.234 44.3574 247.234 43.9004ZM248.318 43.7656V43.9004C248.318 44.2168 248.355 44.5156 248.43 44.7969C248.504 45.0742 248.615 45.3203 248.764 45.5352C248.916 45.75 249.105 45.9199 249.332 46.0449C249.559 46.166 249.822 46.2266 250.123 46.2266C250.42 46.2266 250.68 46.166 250.902 46.0449C251.129 45.9199 251.316 45.75 251.465 45.5352C251.613 45.3203 251.725 45.0742 251.799 44.7969C251.877 44.5156 251.916 44.2168 251.916 43.9004V43.7656C251.916 43.4531 251.877 43.1582 251.799 42.8809C251.725 42.5996 251.611 42.3516 251.459 42.1367C251.311 41.918 251.123 41.7461 250.896 41.6211C250.674 41.4961 250.412 41.4336 250.111 41.4336C249.814 41.4336 249.553 41.4961 249.326 41.6211C249.104 41.7461 248.916 41.918 248.764 42.1367C248.615 42.3516 248.504 42.5996 248.43 42.8809C248.355 43.1582 248.318 43.4531 248.318 43.7656ZM255.449 41.6562V47H254.365V40.6602H255.42L255.449 41.6562ZM257.43 40.625L257.424 41.6328C257.334 41.6133 257.248 41.6016 257.166 41.5977C257.088 41.5898 256.998 41.5859 256.896 41.5859C256.646 41.5859 256.426 41.625 256.234 41.7031C256.043 41.7812 255.881 41.8906 255.748 42.0312C255.615 42.1719 255.51 42.3398 255.432 42.5352C255.357 42.7266 255.309 42.9375 255.285 43.168L254.98 43.3438C254.98 42.9609 255.018 42.6016 255.092 42.2656C255.17 41.9297 255.289 41.6328 255.449 41.375C255.609 41.1133 255.812 40.9102 256.059 40.7656C256.309 40.6172 256.605 40.543 256.949 40.543C257.027 40.543 257.117 40.5527 257.219 40.5723C257.32 40.5879 257.391 40.6055 257.43 40.625ZM264.062 40.6602V41.4922H260.635V40.6602H264.062ZM261.795 39.1191H262.879V45.4297C262.879 45.6445 262.912 45.8066 262.979 45.916C263.045 46.0254 263.131 46.0977 263.236 46.1328C263.342 46.168 263.455 46.1855 263.576 46.1855C263.666 46.1855 263.76 46.1777 263.857 46.1621C263.959 46.1426 264.035 46.127 264.086 46.1152L264.092 47C264.006 47.0273 263.893 47.0527 263.752 47.0762C263.615 47.1035 263.449 47.1172 263.254 47.1172C262.988 47.1172 262.744 47.0645 262.521 46.959C262.299 46.8535 262.121 46.6777 261.988 46.4316C261.859 46.1816 261.795 45.8457 261.795 45.4238V39.1191ZM267.115 46.3438L268.879 40.6602H270.039L267.496 47.9785C267.438 48.1348 267.359 48.3027 267.262 48.4824C267.168 48.666 267.047 48.8398 266.898 49.0039C266.75 49.168 266.57 49.3008 266.359 49.4023C266.152 49.5078 265.904 49.5605 265.615 49.5605C265.529 49.5605 265.42 49.5488 265.287 49.5254C265.154 49.502 265.061 49.4824 265.006 49.4668L265 48.5879C265.031 48.5918 265.08 48.5957 265.146 48.5996C265.217 48.6074 265.266 48.6113 265.293 48.6113C265.539 48.6113 265.748 48.5781 265.92 48.5117C266.092 48.4492 266.236 48.3418 266.354 48.1895C266.475 48.041 266.578 47.8359 266.664 47.5742L267.115 46.3438ZM265.82 40.6602L267.467 45.582L267.748 46.7246L266.969 47.123L264.637 40.6602H265.82ZM272.102 41.8789V49.4375H271.012V40.6602H272.008L272.102 41.8789ZM276.373 43.7773V43.9004C276.373 44.3613 276.318 44.7891 276.209 45.1836C276.1 45.5742 275.939 45.9141 275.729 46.2031C275.521 46.4922 275.266 46.7168 274.961 46.877C274.656 47.0371 274.307 47.1172 273.912 47.1172C273.51 47.1172 273.154 47.0508 272.846 46.918C272.537 46.7852 272.275 46.5918 272.061 46.3379C271.846 46.084 271.674 45.7793 271.545 45.4238C271.42 45.0684 271.334 44.668 271.287 44.2227V43.5664C271.334 43.0977 271.422 42.6777 271.551 42.3066C271.68 41.9355 271.85 41.6191 272.061 41.3574C272.275 41.0918 272.535 40.8906 272.84 40.7539C273.145 40.6133 273.496 40.543 273.895 40.543C274.293 40.543 274.646 40.6211 274.955 40.7773C275.264 40.9297 275.523 41.1484 275.734 41.4336C275.945 41.7188 276.104 42.0605 276.209 42.459C276.318 42.8535 276.373 43.293 276.373 43.7773ZM275.283 43.9004V43.7773C275.283 43.4609 275.25 43.1641 275.184 42.8867C275.117 42.6055 275.014 42.3594 274.873 42.1484C274.736 41.9336 274.561 41.7656 274.346 41.6445C274.131 41.5195 273.875 41.457 273.578 41.457C273.305 41.457 273.066 41.5039 272.863 41.5977C272.664 41.6914 272.494 41.8184 272.354 41.9785C272.213 42.1348 272.098 42.3145 272.008 42.5176C271.922 42.7168 271.857 42.9238 271.814 43.1387V44.6562C271.893 44.9297 272.002 45.1875 272.143 45.4297C272.283 45.668 272.471 45.8613 272.705 46.0098C272.939 46.1543 273.234 46.2266 273.59 46.2266C273.883 46.2266 274.135 46.166 274.346 46.0449C274.561 45.9199 274.736 45.75 274.873 45.5352C275.014 45.3203 275.117 45.0742 275.184 44.7969C275.25 44.5156 275.283 44.2168 275.283 43.9004ZM280.387 47.1172C279.945 47.1172 279.545 47.043 279.186 46.8945C278.83 46.7422 278.523 46.5293 278.266 46.2559C278.012 45.9824 277.816 45.6582 277.68 45.2832C277.543 44.9082 277.475 44.498 277.475 44.0527V43.8066C277.475 43.291 277.551 42.832 277.703 42.4297C277.855 42.0234 278.062 41.6797 278.324 41.3984C278.586 41.1172 278.883 40.9043 279.215 40.7598C279.547 40.6152 279.891 40.543 280.246 40.543C280.699 40.543 281.09 40.6211 281.418 40.7773C281.75 40.9336 282.021 41.1523 282.232 41.4336C282.443 41.7109 282.6 42.0391 282.701 42.418C282.803 42.793 282.854 43.2031 282.854 43.6484V44.1348H278.119V43.25H281.77V43.168C281.754 42.8867 281.695 42.6133 281.594 42.3477C281.496 42.082 281.34 41.8633 281.125 41.6914C280.91 41.5195 280.617 41.4336 280.246 41.4336C280 41.4336 279.773 41.4863 279.566 41.5918C279.359 41.6934 279.182 41.8457 279.033 42.0488C278.885 42.252 278.77 42.5 278.688 42.793C278.605 43.0859 278.564 43.4238 278.564 43.8066V44.0527C278.564 44.3535 278.605 44.6367 278.688 44.9023C278.773 45.1641 278.896 45.3945 279.057 45.5938C279.221 45.793 279.418 45.9492 279.648 46.0625C279.883 46.1758 280.148 46.2324 280.445 46.2324C280.828 46.2324 281.152 46.1543 281.418 45.998C281.684 45.8418 281.916 45.6328 282.115 45.3711L282.771 45.8926C282.635 46.0996 282.461 46.2969 282.25 46.4844C282.039 46.6719 281.779 46.8242 281.471 46.9414C281.166 47.0586 280.805 47.1172 280.387 47.1172ZM290.834 45.916V42.6523C290.834 42.4023 290.783 42.1855 290.682 42.002C290.584 41.8145 290.436 41.6699 290.236 41.5684C290.037 41.4668 289.791 41.416 289.498 41.416C289.225 41.416 288.984 41.4629 288.777 41.5566C288.574 41.6504 288.414 41.7734 288.297 41.9258C288.184 42.0781 288.127 42.2422 288.127 42.418H287.043C287.043 42.1914 287.102 41.9668 287.219 41.7441C287.336 41.5215 287.504 41.3203 287.723 41.1406C287.945 40.957 288.211 40.8125 288.52 40.707C288.832 40.5977 289.18 40.543 289.562 40.543C290.023 40.543 290.43 40.6211 290.781 40.7773C291.137 40.9336 291.414 41.1699 291.613 41.4863C291.816 41.7988 291.918 42.1914 291.918 42.6641V45.6172C291.918 45.8281 291.936 46.0527 291.971 46.291C292.01 46.5293 292.066 46.7344 292.141 46.9062V47H291.01C290.955 46.875 290.912 46.709 290.881 46.502C290.85 46.291 290.834 46.0957 290.834 45.916ZM291.021 43.1562L291.033 43.918H289.938C289.629 43.918 289.354 43.9434 289.111 43.9941C288.869 44.041 288.666 44.1133 288.502 44.2109C288.338 44.3086 288.213 44.4316 288.127 44.5801C288.041 44.7246 287.998 44.8945 287.998 45.0898C287.998 45.2891 288.043 45.4707 288.133 45.6348C288.223 45.7988 288.357 45.9297 288.537 46.0273C288.721 46.1211 288.945 46.168 289.211 46.168C289.543 46.168 289.836 46.0977 290.09 45.957C290.344 45.8164 290.545 45.6445 290.693 45.4414C290.846 45.2383 290.928 45.041 290.939 44.8496L291.402 45.3711C291.375 45.5352 291.301 45.7168 291.18 45.916C291.059 46.1152 290.896 46.3066 290.693 46.4902C290.494 46.6699 290.256 46.8203 289.979 46.9414C289.705 47.0586 289.396 47.1172 289.053 47.1172C288.623 47.1172 288.246 47.0332 287.922 46.8652C287.602 46.6973 287.352 46.4727 287.172 46.1914C286.996 45.9062 286.908 45.5879 286.908 45.2363C286.908 44.8965 286.975 44.5977 287.107 44.3398C287.24 44.0781 287.432 43.8613 287.682 43.6895C287.932 43.5137 288.232 43.3809 288.584 43.291C288.936 43.2012 289.328 43.1562 289.762 43.1562H291.021ZM301.645 38.4688H302.77V44.2402C302.77 44.8809 302.627 45.4141 302.342 45.8398C302.057 46.2656 301.678 46.5859 301.205 46.8008C300.736 47.0117 300.227 47.1172 299.676 47.1172C299.098 47.1172 298.574 47.0117 298.105 46.8008C297.641 46.5859 297.271 46.2656 296.998 45.8398C296.729 45.4141 296.594 44.8809 296.594 44.2402V38.4688H297.713V44.2402C297.713 44.6855 297.795 45.0527 297.959 45.3418C298.123 45.6309 298.352 45.8457 298.645 45.9863C298.941 46.127 299.285 46.1973 299.676 46.1973C300.07 46.1973 300.414 46.127 300.707 45.9863C301.004 45.8457 301.234 45.6309 301.398 45.3418C301.562 45.0527 301.645 44.6855 301.645 44.2402V38.4688ZM304.545 38.4688H307.369C308.01 38.4688 308.551 38.5664 308.992 38.7617C309.438 38.957 309.775 39.2461 310.006 39.6289C310.24 40.0078 310.357 40.4746 310.357 41.0293C310.357 41.4199 310.277 41.7773 310.117 42.1016C309.961 42.4219 309.734 42.6953 309.438 42.9219C309.145 43.1445 308.793 43.3105 308.383 43.4199L308.066 43.543H305.412L305.4 42.623H307.404C307.811 42.623 308.148 42.5527 308.418 42.4121C308.688 42.2676 308.891 42.0742 309.027 41.832C309.164 41.5898 309.232 41.3223 309.232 41.0293C309.232 40.7012 309.168 40.4141 309.039 40.168C308.91 39.9219 308.707 39.7324 308.43 39.5996C308.156 39.4629 307.803 39.3945 307.369 39.3945H305.676V47H304.545V38.4688ZM309.531 47L307.457 43.1328L308.635 43.127L310.738 46.9297V47H309.531ZM317.113 46.0801V47H312.848V46.0801H317.113ZM313.07 38.4688V47H311.939V38.4688H313.07Z" fill="white"/>
<path d="M223.682 9.82056L217.318 16.1845" stroke="white" stroke-width="2"/>
<path d="M223.682 16.1846L217.318 9.82061" stroke="white" stroke-width="2"/>
<path d="M251.5 8.50098V17.501" stroke="white" stroke-width="2"/>
<path d="M256 13.001H247" stroke="white" stroke-width="2"/>
</g>
</g>
<defs>
<clipPath id="clip0_7_49">
<rect width="1440" height="63.001" fill="white"/>
</clipPath>
</defs>
</svg>
